<svg width="363" height="80" viewBox="0 0 363 80" fill="none" xmlns="http://www.w3.org/2000/svg">
<g opacity="0.12" clip-path="url(#clip0_70_1273)">
<mask id="mask0_70_1273" style="mask-type:alpha" maskUnits="userSpaceOnUse" x="0" y="0" width="363" height="80">
<path d="M0 80L363 80V12C363 5.37258 357.627 0 351 0L12 0C5.37259 0 0 5.37258 0 12L0 80Z" fill="#189193"/>
</mask>
<g mask="url(#mask0_70_1273)">
<path d="M94.5189 -11.9162H89.5421V-60.7697C89.5421 -64.8392 86.66 -68.1389 83.1077 -68.1389H62.5192C58.9669 -68.1389 56.0848 -64.8392 56.0848 -60.7697V-11.9162H51.108C47.9952 -11.9162 45.4683 -9.61382 45.4683 -6.7761V104.254C45.4683 107.092 47.9915 109.394 51.108 109.394H94.5189C97.6317 109.394 100.155 107.092 100.155 104.254V-6.7761C100.155 -9.61382 97.6317 -11.9162 94.5189 -11.9162Z" fill="#6CCAD0"/>
<path d="M303.176 -58.1814H281.222V-76.5129C281.222 -78.5367 279.255 -80.1792 276.831 -80.1792H268.928C266.504 -80.1792 264.537 -78.5367 264.537 -76.5129V-74.8484H257.945V-82.5989C257.945 -84.4394 256.305 -85.9316 254.283 -85.9316H238.518C238.529 -86.0379 238.536 -86.1442 238.536 -86.2506V-98.9103C238.536 -100.751 236.895 -102.243 234.874 -102.243H211.436C209.415 -102.243 207.774 -100.751 207.774 -98.9103V-86.2469C207.774 -86.1406 207.781 -86.0342 207.792 -85.9279H205.211C203.189 -85.9279 201.548 -84.4357 201.548 -82.5953V-74.8447H188.365C186.343 -74.8447 184.703 -73.3525 184.703 -71.512V-13.6835H176.423V-58.8193C176.423 -61.1584 174.357 -63.0539 171.808 -63.0539H161.21V-100.219C161.21 -102.859 159.221 -105 156.768 -105H140.995C138.541 -105 136.553 -102.859 136.553 -100.219V-63.0576H126.372C123.823 -63.0576 121.758 -61.1621 121.758 -58.823V-31.9894H110.109C108.087 -31.9894 106.446 -30.3469 106.446 -28.3231V-13.6762C105.033 -13.5589 103.927 -12.47 103.927 -11.1391V140.748C103.927 142.156 105.165 143.296 106.696 143.296H190.851C192.378 143.296 193.62 142.156 193.62 140.748V6.23911H254.873V97.3136L307.563 96.8186V-54.5151C307.563 -56.5389 305.597 -58.1814 303.173 -58.1814H303.176Z" fill="#6CCAD0"/>
<path d="M30.8711 -54.1301H21.0346C19.6356 -54.1301 18.504 -52.4876 18.504 -50.4638V-42.9296H-0.469466C-1.86474 -42.9296 -3 -41.2871 -3 -39.2633V86.1387C-3 88.1625 -1.8684 89.805 -0.469466 89.805H30.7319C32.1308 89.805 33.2624 88.1625 33.2624 86.1387V10.9796C33.354 10.6057 33.4016 10.2024 33.4016 9.78442V-50.4602C33.4016 -52.484 32.27 -54.1265 30.8711 -54.1265V-54.1301Z" fill="#6CCAD0"/>
<path d="M355.992 -62.6432H346.368V-63.1638C346.368 -65.1876 344.939 -66.8301 343.174 -66.8301H330.946C329.185 -66.8301 327.753 -65.1876 327.753 -63.1638V-62.6432H321.242C319.48 -62.6432 318.048 -61.0007 318.048 -58.9769V16.5305C318.048 18.5543 319.476 20.1968 321.242 20.1968H355.988C357.749 20.1968 359.181 18.5543 359.181 16.5305V-58.9769C359.181 -61.0007 357.753 -62.6432 355.988 -62.6432H355.992Z" fill="#6CCAD0"/>
<path d="M358.171 13.2782H352.285V-39.9674C352.285 -44.4036 348.88 -48.0002 344.679 -48.0002H320.333C316.133 -48.0002 312.727 -44.4036 312.727 -39.9674V13.2782H306.842C303.162 13.2782 300.173 15.786 300.173 18.8804V139.894C300.173 142.988 303.158 145.496 306.842 145.496H358.174C361.855 145.496 363.217 143.073 363.217 139.978L363.279 18.9903C363.279 15.896 361.855 13.2746 358.174 13.2746L358.171 13.2782Z" fill="#438387"/>
<path d="M320.209 -5.46411C318.836 -5.46411 317.722 -4.52187 317.722 -3.35599V-1.66949C317.722 -0.503609 318.836 0.438629 320.209 0.438629C321.582 0.438629 322.695 -0.503609 322.695 -1.66949V-3.35599C322.695 -4.51821 321.582 -5.46411 320.209 -5.46411Z" fill="white"/>
<path d="M326.581 -5.46411C325.208 -5.46411 324.091 -4.52187 324.091 -3.35599V-1.66949C324.091 -0.503609 325.204 0.438629 326.581 0.438629C327.958 0.438629 329.068 -0.503609 329.068 -1.66949V-3.35599C329.068 -4.51821 327.954 -5.46411 326.581 -5.46411Z" fill="white"/>
<path d="M338.413 -5.36865C337.04 -5.36865 335.927 -4.42641 335.927 -3.26053V-1.57403C335.927 -0.40815 337.04 0.534088 338.413 0.534088C339.787 0.534088 340.9 -0.40815 340.9 -1.57403V-3.26053C340.9 -4.42275 339.787 -5.36865 338.413 -5.36865Z" fill="white"/>
<path d="M344.785 -5.36865C343.412 -5.36865 342.295 -4.42641 342.295 -3.26053V-1.57403C342.295 -0.40815 343.408 0.534088 344.785 0.534088C346.162 0.534088 347.272 -0.40815 347.272 -1.57403V-3.26053C347.272 -4.42275 346.159 -5.36865 344.785 -5.36865Z" fill="white"/>
<path d="M308.16 19.698C306.787 19.698 305.674 20.6439 305.674 21.8061V23.4926C305.674 24.6548 306.787 25.6007 308.16 25.6007C309.534 25.6007 310.647 24.6585 310.647 23.4926V21.8061C310.647 20.6439 309.534 19.698 308.16 19.698Z" fill="white"/>
<path d="M314.533 19.698C313.159 19.698 312.042 20.6439 312.042 21.8061V23.4926C312.042 24.6548 313.156 25.6007 314.533 25.6007C315.91 25.6007 317.019 24.6585 317.019 23.4926V21.8061C317.019 20.6439 315.906 19.698 314.533 19.698Z" fill="white"/>
<path d="M308.16 26.5247C306.787 26.5247 305.674 27.4669 305.674 28.6328V30.3193C305.674 31.4815 306.787 32.4274 308.16 32.4274C309.534 32.4274 310.647 31.4852 310.647 30.3193V28.6328C310.647 27.4669 309.534 26.5247 308.16 26.5247Z" fill="white"/>
<path d="M314.448 26.5284C313.075 26.5687 311.987 27.544 312.02 28.7062L312.068 30.3927C312.101 31.5549 313.24 32.4678 314.617 32.4275C315.99 32.3871 317.078 31.4119 317.045 30.2497L316.997 28.5632C316.964 27.401 315.825 26.4881 314.448 26.5284Z" fill="white"/>
<path d="M320.883 26.4954C319.509 26.488 318.389 27.4266 318.381 28.5888L318.374 30.2753C318.367 31.4375 319.476 32.3871 320.85 32.3944C322.223 32.4018 323.344 31.4632 323.351 30.301L323.358 28.6145C323.366 27.4486 322.256 26.499 320.883 26.4917V26.4954Z" fill="white"/>
<path d="M320.809 19.6981C319.436 19.7091 318.326 20.6587 318.337 21.8246L318.348 23.511C318.356 24.6733 319.476 25.6118 320.853 25.6008C322.227 25.5898 323.336 24.6403 323.325 23.4744L323.314 21.7879C323.307 20.622 322.186 19.6871 320.809 19.6981Z" fill="white"/>
<path d="M308.16 33.2632C306.787 33.2632 305.674 34.2091 305.674 35.3713V37.0578C305.674 38.22 306.787 39.1659 308.16 39.1659C309.534 39.1659 310.647 38.2237 310.647 37.0578V35.3713C310.647 34.2091 309.534 33.2632 308.16 33.2632Z" fill="white"/>
<path d="M314.533 33.2632C313.159 33.2632 312.042 34.2091 312.042 35.3713V37.0578C312.042 38.22 313.156 39.1659 314.533 39.1659C315.91 39.1659 317.019 38.2237 317.019 37.0578V35.3713C317.019 34.2091 315.906 33.2632 314.533 33.2632Z" fill="white"/>
<path d="M320.809 33.2633C319.436 33.2743 318.326 34.2239 318.337 35.3897L318.348 37.0762C318.356 38.2384 319.476 39.177 320.853 39.166C322.227 39.155 323.336 38.2055 323.325 37.0396L323.314 35.3531C323.307 34.1872 322.186 33.2523 320.809 33.2633Z" fill="white"/>
<path d="M240.997 140.792C240.997 144.605 244.139 147.696 248.014 147.696H291.34C295.215 147.696 298.357 144.605 298.357 140.792V14.9354C298.357 11.1224 295.215 8.03174 291.34 8.03174H248.014C244.139 8.03174 240.997 11.1224 240.997 14.9354V140.792Z" fill="#438387"/>
<path d="M241.165 11.6725C241.165 15.8007 244.308 19.1481 248.182 19.1481H257.041C260.915 19.1481 264.057 15.8007 264.057 11.6725V-8.10718C264.057 -12.2354 260.915 -15.5828 257.041 -15.5828H248.182C244.308 -15.5828 241.165 -12.2354 241.165 -8.10718V11.6725Z" fill="#438387"/>
<path d="M272.359 22.2313C272.359 23.2506 273.363 24.0792 274.604 24.0792C275.842 24.0792 276.849 23.2542 276.849 22.2313V19.6833C276.849 18.664 275.846 17.8354 274.604 17.8354C273.367 17.8354 272.359 18.664 272.359 19.6833V22.2313Z" fill="white"/>
<path d="M266.013 22.2313C266.013 23.2506 267.016 24.0792 268.258 24.0792C269.496 24.0792 270.503 23.2542 270.503 22.2313V19.6833C270.503 18.664 269.499 17.8354 268.258 17.8354C267.02 17.8354 266.013 18.664 266.013 19.6833V22.2313Z" fill="white"/>
<path d="M272.261 31.1002C272.261 32.1195 273.264 32.948 274.506 32.948C275.743 32.948 276.75 32.1195 276.75 31.1002V28.5522C276.75 27.5329 275.747 26.7043 274.506 26.7043C273.264 26.7043 272.261 27.5329 272.261 28.5522V31.1002Z" fill="white"/>
<path d="M265.918 31.1002C265.918 32.1195 266.921 32.948 268.163 32.948C269.404 32.948 270.408 32.1195 270.408 31.1002V28.5522C270.408 27.5329 269.404 26.7043 268.163 26.7043C266.925 26.7043 265.918 27.5329 265.918 28.5522V31.1002Z" fill="white"/>
<path d="M289.366 22.2313C289.366 23.2506 290.37 24.0792 291.611 24.0792C292.853 24.0792 293.856 23.2542 293.856 22.2313V19.6833C293.856 18.664 292.853 17.8354 291.611 17.8354C290.373 17.8354 289.366 18.664 289.366 19.6833V22.2313Z" fill="white"/>
<path d="M283.02 22.2313C283.02 23.2506 284.023 24.0792 285.265 24.0792C286.503 24.0792 287.51 23.2542 287.51 22.2313V19.6833C287.51 18.664 286.506 17.8354 285.265 17.8354C284.023 17.8354 283.02 18.664 283.02 19.6833V22.2313Z" fill="white"/>
<path d="M289.268 31.1002C289.268 32.1195 290.271 32.948 291.512 32.948C292.75 32.948 293.757 32.1195 293.757 31.1002V28.5522C293.757 27.5329 292.75 26.7043 291.512 26.7043C290.271 26.7043 289.268 27.5329 289.268 28.5522V31.1002Z" fill="white"/>
<path d="M282.921 31.1002C282.921 32.1195 283.924 32.948 285.166 32.948C286.407 32.948 287.411 32.1195 287.411 31.1002V28.5522C287.411 27.5329 286.407 26.7043 285.166 26.7043C283.928 26.7043 282.921 27.5329 282.921 28.5522V31.1002Z" fill="white"/>
<path d="M250.368 -5.74243H255.587C256.389 -5.74243 257.041 -5.08983 257.041 -4.28691V0.303288C257.041 1.10621 256.389 1.75881 255.587 1.75881H250.368C249.566 1.75881 248.914 1.10621 248.914 0.303288V-4.28691C248.914 -5.08983 249.566 -5.74243 250.368 -5.74243Z" fill="white"/>
<path d="M250.368 9.97144H255.587C256.389 9.97144 257.041 10.624 257.041 11.427V16.0172C257.041 16.8201 256.389 17.4763 255.583 17.4763H250.365C249.563 17.4763 248.911 16.8237 248.911 16.0208V11.4306C248.911 10.6277 249.563 9.97511 250.365 9.97511L250.368 9.97144Z" fill="white"/>
<path d="M250.368 26.7959H255.587C256.389 26.7959 257.041 27.4485 257.041 28.2514V32.8416C257.041 33.6445 256.389 34.2971 255.587 34.2971H250.368C249.566 34.2971 248.914 33.6445 248.914 32.8416V28.2514C248.914 27.4485 249.566 26.7959 250.368 26.7959Z" fill="white"/>
<path d="M229.329 -40.4072H226.502C226.282 -47.3072 221.679 -52.8213 216.014 -52.8213H177.759C172.098 -52.8213 167.491 -47.3072 167.275 -40.4072H164.447C157.01 -40.4072 150.978 -32.9903 150.978 -23.8392V133.427C150.978 142.578 157.01 149.995 164.447 149.995H229.333C236.774 149.995 242.802 142.578 242.802 133.427V-23.8392C242.802 -32.9866 236.771 -40.4072 229.333 -40.4072H229.329Z" fill="#438387"/>
<path d="M163.411 69.6331C160.961 69.6331 158.976 71.2719 158.976 73.2957V78.4248C158.976 80.4486 160.961 82.0875 163.411 82.0875C165.861 82.0875 167.846 80.4486 167.846 78.4248V73.2957C167.846 71.2719 165.861 69.6331 163.411 69.6331Z" fill="white"/>
<path d="M163.411 50.0256C160.961 50.0256 158.976 51.6645 158.976 53.6883V58.8174C158.976 60.8412 160.961 62.48 163.411 62.48C165.861 62.48 167.846 60.8412 167.846 58.8174V53.6883C167.846 51.6645 165.861 50.0256 163.411 50.0256Z" fill="white"/>
<path d="M163.411 29.9084C160.961 29.9084 158.976 31.5473 158.976 33.5711V38.7002C158.976 40.724 160.961 42.3629 163.411 42.3629C165.861 42.3629 167.846 40.724 167.846 38.7002V33.5711C167.846 31.5473 165.861 29.9084 163.411 29.9084Z" fill="white"/>
<path d="M163.411 10.8403C160.961 10.8403 158.976 12.4792 158.976 14.503V19.6321C158.976 21.6559 160.961 23.2947 163.411 23.2947C165.861 23.2947 167.846 21.6559 167.846 19.6321V14.503C167.846 12.4792 165.861 10.8403 163.411 10.8403Z" fill="white"/>
<path d="M163.411 -8.60571C160.961 -8.60571 158.976 -6.96688 158.976 -4.94309V0.186061C158.976 2.20986 160.961 3.8487 163.411 3.8487C165.861 3.8487 167.846 2.20986 167.846 0.186061V-4.94309C167.846 -6.96688 165.861 -8.60571 163.411 -8.60571Z" fill="white"/>
<path d="M185.318 69.6331C182.868 69.6331 180.883 71.2719 180.883 73.2957V78.4248C180.883 80.4486 182.868 82.0875 185.318 82.0875C187.768 82.0875 189.753 80.4486 189.753 78.4248V73.2957C189.753 71.2719 187.768 69.6331 185.318 69.6331Z" fill="white"/>
<path d="M185.318 50.0256C182.868 50.0256 180.883 51.6645 180.883 53.6883V58.8174C180.883 60.8412 182.868 62.48 185.318 62.48C187.768 62.48 189.753 60.8412 189.753 58.8174V53.6883C189.753 51.6645 187.768 50.0256 185.318 50.0256Z" fill="white"/>
<path d="M185.318 10.8403C182.868 10.8403 180.883 12.4792 180.883 14.503V19.6321C180.883 21.6559 182.868 23.2947 185.318 23.2947C187.768 23.2947 189.753 21.6559 189.753 19.6321V14.503C189.753 12.4792 187.768 10.8403 185.318 10.8403Z" fill="white"/>
<path d="M185.318 -8.60571C182.868 -8.60571 180.883 -6.96688 180.883 -4.94309V0.186061C180.883 2.20986 182.868 3.8487 185.318 3.8487C187.768 3.8487 189.753 2.20986 189.753 0.186061V-4.94309C189.753 -6.96688 187.768 -8.60571 185.318 -8.60571Z" fill="white"/>
<path d="M207.503 69.6331C205.053 69.6331 203.068 71.2719 203.068 73.2957V78.4248C203.068 80.4486 205.053 82.0875 207.503 82.0875C209.953 82.0875 211.938 80.4486 211.938 78.4248V73.2957C211.938 71.2719 209.953 69.6331 207.503 69.6331Z" fill="white"/>
<path d="M207.503 50.0256C205.053 50.0256 203.068 51.6645 203.068 53.6883V58.8174C203.068 60.8412 205.053 62.48 207.503 62.48C209.953 62.48 211.938 60.8412 211.938 58.8174V53.6883C211.938 51.6645 209.953 50.0256 207.503 50.0256Z" fill="white"/>
<path d="M207.503 29.9084C205.053 29.9084 203.068 31.5473 203.068 33.5711V38.7002C203.068 40.724 205.053 42.3629 207.503 42.3629C209.953 42.3629 211.938 40.724 211.938 38.7002V33.5711C211.938 31.5473 209.953 29.9084 207.503 29.9084Z" fill="white"/>
<path d="M207.503 -8.60571C205.053 -8.60571 203.068 -6.96688 203.068 -4.94309V0.186061C203.068 2.20986 205.053 3.8487 207.503 3.8487C209.953 3.8487 211.938 2.20986 211.938 0.186061V-4.94309C211.938 -6.96688 209.953 -8.60571 207.503 -8.60571Z" fill="white"/>
<path d="M229.747 69.6331C227.297 69.6331 225.312 71.2719 225.312 73.2957V78.4248C225.312 80.4486 227.297 82.0875 229.747 82.0875C232.197 82.0875 234.182 80.4486 234.182 78.4248V73.2957C234.182 71.2719 232.197 69.6331 229.747 69.6331Z" fill="white"/>
<path d="M229.747 50.0256C227.297 50.0256 225.312 51.6645 225.312 53.6883V58.8174C225.312 60.8412 227.297 62.48 229.747 62.48C232.197 62.48 234.182 60.8412 234.182 58.8174V53.6883C234.182 51.6645 232.197 50.0256 229.747 50.0256Z" fill="white"/>
<path d="M229.747 29.9084C227.297 29.9084 225.312 31.5473 225.312 33.5711V38.7002C225.312 40.724 227.297 42.3629 229.747 42.3629C232.197 42.3629 234.182 40.724 234.182 38.7002V33.5711C234.182 31.5473 232.197 29.9084 229.747 29.9084Z" fill="white"/>
<path d="M229.747 10.8403C227.297 10.8403 225.312 12.4792 225.312 14.503V19.6321C225.312 21.6559 227.297 23.2947 229.747 23.2947C232.197 23.2947 234.182 21.6559 234.182 19.6321V14.503C234.182 12.4792 232.197 10.8403 229.747 10.8403Z" fill="white"/>
<path d="M229.747 -8.60571C227.297 -8.60571 225.312 -6.96688 225.312 -4.94309V0.186061C225.312 2.20986 227.297 3.8487 229.747 3.8487C232.197 3.8487 234.182 2.20986 234.182 0.186061V-4.94309C234.182 -6.96688 232.197 -8.60571 229.747 -8.60571Z" fill="white"/>
<path d="M60.3073 30.3782H49.797V-2.49382C49.797 -4.19864 48.2918 -5.57717 46.4351 -5.57717H38.7154V-32.6418C38.7154 -34.5666 37.2652 -36.1248 35.478 -36.1248H23.9899C22.2028 -36.1248 20.7526 -34.5666 20.7526 -32.6418V-5.57717H13.3368C11.4801 -5.57717 9.9786 -4.19498 9.9786 -2.49382V30.3782H-0.982165C-2.09545 30.3782 -3 31.2104 -3 32.2333V142.857C-3 143.883 -2.09545 144.712 -0.982165 144.712H60.311C61.4242 144.712 62.3288 143.879 62.3288 142.857V32.2333C62.3288 31.2104 61.4279 30.3782 60.311 30.3782H60.3073Z" fill="#438387"/>
<path d="M19.4379 1.11377H18.0975C16.5082 1.11377 15.2228 2.34198 15.2228 3.85616V7.56645C15.2228 9.08064 16.5082 10.3088 18.0975 10.3088H19.4379C21.0273 10.3088 22.3127 9.08064 22.3127 7.56645V3.85616C22.3127 2.34198 21.0273 1.11377 19.4379 1.11377Z" fill="white"/>
<path d="M30.5451 1.11377H29.2048C27.6154 1.11377 26.33 2.34198 26.33 3.85616V7.56645C26.33 9.08064 27.6191 10.3088 29.2048 10.3088H30.5451C32.1308 10.3088 33.4199 9.08064 33.4199 7.56645V3.85616C33.4199 2.34198 32.1308 1.11377 30.5451 1.11377Z" fill="white"/>
<path d="M40.3963 10.4629H41.7366C43.326 10.4629 44.6114 9.23469 44.6114 7.72051V4.01021C44.6114 2.49603 43.326 1.27148 41.7366 1.27148H40.3963C38.8069 1.27148 37.5215 2.49969 37.5215 4.01021V7.72051C37.5215 9.23469 38.8069 10.4629 40.3963 10.4629Z" fill="white"/>
<path d="M29.2048 25.0144H30.5451C32.1308 25.0144 33.4199 23.7862 33.4199 22.272V18.5617C33.4199 17.0475 32.1308 15.823 30.5451 15.823H29.2048C27.6154 15.823 26.33 17.0512 26.33 18.5617V22.272C26.33 23.7862 27.6191 25.0144 29.2048 25.0144Z" fill="white"/>
<path d="M19.4379 15.8267H18.0975C16.5082 15.8267 15.2228 17.0549 15.2228 18.5654V22.2757C15.2228 23.7899 16.5118 25.0181 18.0975 25.0181H19.4379C21.0236 25.0181 22.3127 23.7899 22.3127 22.2757V18.5654C22.3127 17.0512 21.0236 15.8267 19.4379 15.8267Z" fill="white"/>
<path d="M40.3963 25.1719H41.7366C43.326 25.1719 44.6114 23.9437 44.6114 22.4331V18.7229C44.6114 17.2087 43.326 15.9805 41.7366 15.9805H40.3963C38.8069 15.9805 37.5215 17.2087 37.5215 18.7229V22.4331C37.5215 23.9473 38.8069 25.1719 40.3963 25.1719Z" fill="white"/>
<path d="M8.11824 36.3286H6.75959C5.15191 36.3286 3.84819 37.5715 3.84819 39.104V42.8619C3.84819 44.3945 5.15191 45.6373 6.75959 45.6373H8.11824C9.72591 45.6373 11.0296 44.3945 11.0296 42.8619V39.104C11.0296 37.5715 9.72591 36.3286 8.11824 36.3286Z" fill="white"/>
<path d="M19.0021 36.3286H17.6434C16.0358 36.3286 14.732 37.5715 14.732 39.104V42.8619C14.732 44.3945 16.0358 45.6373 17.6434 45.6373H19.0021C20.6098 45.6373 21.9135 44.3945 21.9135 42.8619V39.104C21.9135 37.5715 20.6098 36.3286 19.0021 36.3286Z" fill="white"/>
<path d="M42.1541 36.3286H40.7954C39.1878 36.3286 37.884 37.5715 37.884 39.104V42.8619C37.884 44.3945 39.1878 45.6373 40.7954 45.6373H42.1541C43.7618 45.6373 45.0655 44.3945 45.0655 42.8619V39.104C45.0655 37.5715 43.7618 36.3286 42.1541 36.3286Z" fill="white"/>
<path d="M30.7063 36.1379H29.3476C27.7399 36.1379 26.4362 37.3808 26.4362 38.9133V42.6713C26.4362 44.2038 27.7399 45.4467 29.3476 45.4467H30.7063C32.314 45.4467 33.6177 44.2038 33.6177 42.6713V38.9133C33.6177 37.3808 32.314 36.1379 30.7063 36.1379Z" fill="white"/>
<path d="M8.11824 49.6079H6.75959C5.15191 49.6079 3.84819 50.8508 3.84819 52.3833V56.1412C3.84819 57.6738 5.15191 58.9203 6.75959 58.9203H8.11824C9.72591 58.9203 11.0296 57.6774 11.0296 56.1412V52.3833C11.0296 50.8508 9.72591 49.6079 8.11824 49.6079Z" fill="white"/>
<path d="M19.0021 49.6079H17.6434C16.0358 49.6079 14.732 50.8508 14.732 52.3833V56.1412C14.732 57.6738 16.0358 58.9203 17.6434 58.9203H19.0021C20.6098 58.9203 21.9135 57.6774 21.9135 56.1412V52.3833C21.9135 50.8508 20.6098 49.6079 19.0021 49.6079Z" fill="white"/>
<path d="M42.1541 49.6079H40.7954C39.1878 49.6079 37.884 50.8508 37.884 52.3833V56.1412C37.884 57.6738 39.1878 58.9203 40.7954 58.9203H42.1541C43.7618 58.9203 45.0655 57.6774 45.0655 56.1412V52.3833C45.0655 50.8508 43.7618 49.6079 42.1541 49.6079Z" fill="white"/>
<path d="M30.7063 49.4175H29.3476C27.7399 49.4175 26.4362 50.6604 26.4362 52.1929V55.9508C26.4362 57.4833 27.7399 58.7262 29.3476 58.7262H30.7063C32.314 58.7262 33.6177 57.4833 33.6177 55.9508V52.1929C33.6177 50.6604 32.314 49.4175 30.7063 49.4175Z" fill="white"/>
<path d="M144.749 3.59196H134.476V-21.5625C134.476 -23.0987 133.235 -24.3416 131.701 -24.3416H89.7765C88.242 -24.3416 87.0006 -23.0987 87.0006 -21.5625V3.59196H75.3404C73.8059 3.59196 72.5645 4.83483 72.5645 6.37101V147.153C72.5645 148.689 73.8059 149.932 75.3404 149.932H144.749C146.283 149.932 147.525 148.689 147.525 147.153V6.37101C147.525 4.83483 146.283 3.59196 144.749 3.59196Z" fill="#438387"/>
<path d="M89.9779 12.6221H92.545C93.6364 12.6221 94.5189 13.5093 94.5189 14.5982V17.1683C94.5189 18.2608 93.6327 19.1444 92.545 19.1444H89.9779C88.8866 19.1444 88.004 18.2572 88.004 17.1683V14.5982C88.004 13.5056 88.8902 12.6221 89.9779 12.6221Z" fill="white"/>
<path d="M89.9779 21.3442H92.5451C93.6364 21.3442 94.5189 22.2315 94.5189 23.3204V25.8905C94.5189 26.983 93.6327 27.8666 92.5451 27.8666H89.9742C88.8829 27.8666 88.0004 26.9793 88.0004 25.8905V23.3204C88.0004 22.2278 88.8866 21.3442 89.9742 21.3442H89.9779Z" fill="white"/>
<path d="M107.091 12.6221H104.52C103.43 12.6221 102.546 13.5068 102.546 14.5982V17.1719C102.546 18.2633 103.43 19.1481 104.52 19.1481H107.091C108.181 19.1481 109.065 18.2633 109.065 17.1719V14.5982C109.065 13.5068 108.181 12.6221 107.091 12.6221Z" fill="white"/>
<path d="M104.524 21.3442H107.091C108.182 21.3442 109.065 22.2315 109.065 23.3204V25.8905C109.065 26.983 108.179 27.8666 107.091 27.8666H104.52C103.429 27.8666 102.546 26.9793 102.546 25.8905V23.3204C102.546 22.2278 103.433 21.3442 104.52 21.3442H104.524Z" fill="white"/>
<path d="M112.921 21.3442H115.492C116.583 21.3442 117.466 22.2315 117.466 23.3204V25.8905C117.466 26.983 116.58 27.8666 115.492 27.8666H112.925C111.834 27.8666 110.951 26.9793 110.951 25.8905V23.3204C110.951 22.2278 111.837 21.3442 112.925 21.3442H112.921Z" fill="white"/>
<path d="M112.921 12.6221H115.488C116.58 12.6221 117.462 13.5093 117.462 14.5982V17.1683C117.462 18.2608 116.576 19.1444 115.488 19.1444H112.921C111.83 19.1444 110.947 18.2572 110.947 17.1683V14.5982C110.947 13.5056 111.834 12.6221 112.921 12.6221Z" fill="white"/>
<path d="M128.438 12.6221H131.005C132.096 12.6221 132.979 13.5093 132.979 14.5982V17.1683C132.979 18.2608 132.092 19.1444 131.005 19.1444H128.438C127.346 19.1444 126.464 18.2572 126.464 17.1683V14.5982C126.464 13.5056 127.35 12.6221 128.438 12.6221Z" fill="white"/>
<path d="M128.438 21.3442H131.008C132.1 21.3442 132.982 22.2315 132.982 23.3204V25.8905C132.982 26.983 132.096 27.8666 131.008 27.8666H128.441C127.35 27.8666 126.467 26.9793 126.467 25.8905V23.3204C126.467 22.2278 127.354 21.3442 128.441 21.3442H128.438Z" fill="white"/>
<path d="M136.835 21.3442H139.402C140.493 21.3442 141.376 22.2315 141.376 23.3204V25.8905C141.376 26.983 140.49 27.8666 139.402 27.8666H136.835C135.744 27.8666 134.861 26.9793 134.861 25.8905V23.3204C134.861 22.2278 135.747 21.3442 136.835 21.3442Z" fill="white"/>
<path d="M136.835 12.6221H139.402C140.493 12.6221 141.376 13.5093 141.376 14.5982V17.1683C141.376 18.2608 140.49 19.1444 139.402 19.1444H136.835C135.744 19.1444 134.861 18.2572 134.861 17.1683V14.5982C134.861 13.5056 135.747 12.6221 136.835 12.6221Z" fill="white"/>
<path d="M41.6194 67.085H40.1216C40.0044 64.1079 37.5654 61.7285 34.5625 61.7285H14.2853C11.2823 61.7285 8.84334 64.1079 8.72615 67.085H7.22834C3.28422 67.085 0.0871773 70.2856 0.0871773 74.2342V142.09C0.0871773 146.039 3.28422 149.239 7.22834 149.239H41.6194C45.5635 149.239 48.7606 146.039 48.7606 142.09V74.2342C48.7606 70.2856 45.5635 67.085 41.6194 67.085Z" fill="#0D595A"/>
<path d="M9.91268 84.8885C11.4911 84.8885 12.7691 83.609 12.7691 82.0288V78.0252C12.7691 76.4451 11.4911 75.1655 9.91268 75.1655C8.3343 75.1655 7.05622 76.4451 7.05622 78.0252V82.0288C7.05622 83.609 8.3343 84.8885 9.91268 84.8885Z" fill="white"/>
<path d="M19.339 75.1689C17.7606 75.1689 16.4826 76.4485 16.4826 78.0287V82.0323C16.4826 83.6124 17.7606 84.892 19.339 84.892C20.9174 84.892 22.1955 83.6124 22.1955 82.0323V78.0287C22.1955 76.4485 20.9174 75.1689 19.339 75.1689Z" fill="white"/>
<path d="M28.9924 84.8885C30.5708 84.8885 31.8489 83.609 31.8489 82.0288V78.0252C31.8489 76.4451 30.5708 75.1655 28.9924 75.1655C27.414 75.1655 26.1359 76.4451 26.1359 78.0252V82.0288C26.1359 83.609 27.414 84.8885 28.9924 84.8885Z" fill="white"/>
<path d="M38.4151 84.8885C39.9934 84.8885 41.2715 83.609 41.2715 82.0288V78.0252C41.2715 76.4451 39.9934 75.1655 38.4151 75.1655C36.8367 75.1655 35.5586 76.4451 35.5586 78.0252V82.0288C35.5586 83.609 36.8367 84.8885 38.4151 84.8885Z" fill="white"/>
<path d="M89.8717 54.3042H85.9605V16.072C85.9605 12.886 83.6973 10.3049 80.9031 10.3049H64.7238C61.9296 10.3049 59.6664 12.886 59.6664 16.072V54.3042H55.7553C53.309 54.3042 51.3241 56.1043 51.3241 58.3261V145.214C51.3241 147.435 53.309 149.236 55.7553 149.236H89.8717C92.318 149.236 94.3029 147.435 94.3029 145.214V58.3261C94.3029 56.1043 92.318 54.3042 89.8717 54.3042Z" fill="#0D595A"/>
<path d="M59.2526 58.8796C57.557 58.8796 56.1801 60.1372 56.1801 61.6917V63.9391C56.1801 65.49 57.557 66.7512 59.2526 66.7512C60.9482 66.7512 62.3251 65.4936 62.3251 63.9391V61.6917C62.3251 60.1408 60.9482 58.8796 59.2526 58.8796Z" fill="white"/>
<path d="M67.1152 66.7512C68.8108 66.7512 70.1877 65.4936 70.1877 63.9391V61.6917C70.1877 60.1408 68.8108 58.8796 67.1152 58.8796C65.4196 58.8796 64.0427 60.1372 64.0427 61.6917V63.9391C64.0427 65.49 65.4196 66.7512 67.1152 66.7512Z" fill="white"/>
<path d="M59.2526 67.9868C57.557 67.9868 56.1801 69.2444 56.1801 70.7989V73.0463C56.1801 74.5972 57.557 75.8584 59.2526 75.8584C60.9482 75.8584 62.3251 74.6008 62.3251 73.0463V70.7989C62.3251 69.2444 60.9482 67.9868 59.2526 67.9868Z" fill="white"/>
<path d="M67.1152 75.8584C68.8108 75.8584 70.1877 74.6008 70.1877 73.0463V70.7989C70.1877 69.2444 68.8108 67.9868 67.1152 67.9868C65.4196 67.9868 64.0427 69.2444 64.0427 70.7989V73.0463C64.0427 74.5972 65.4196 75.8584 67.1152 75.8584Z" fill="white"/>
<path d="M78.9146 58.8796C77.219 58.8796 75.8421 60.1372 75.8421 61.6917V63.9391C75.8421 65.49 77.219 66.7512 78.9146 66.7512C80.6102 66.7512 81.9871 65.4936 81.9871 63.9391V61.6917C81.9871 60.1408 80.6102 58.8796 78.9146 58.8796Z" fill="white"/>
<path d="M86.7808 58.8796C85.0853 58.8796 83.7083 60.1372 83.7083 61.6917V63.9391C83.7083 65.49 85.0853 66.7512 86.7808 66.7512C88.4764 66.7512 89.8534 65.4936 89.8534 63.9391V61.6917C89.8534 60.1408 88.4764 58.8796 86.7808 58.8796Z" fill="white"/>
<path d="M78.9146 67.9868C77.219 67.9868 75.8421 69.2444 75.8421 70.7989V73.0463C75.8421 74.5972 77.219 75.8584 78.9146 75.8584C80.6102 75.8584 81.9871 74.6008 81.9871 73.0463V70.7989C81.9871 69.2444 80.6102 67.9868 78.9146 67.9868Z" fill="white"/>
<path d="M86.7808 67.9868C85.0853 67.9868 83.7083 69.2444 83.7083 70.7989V73.0463C83.7083 74.5972 85.0853 75.8584 86.7808 75.8584C88.4764 75.8584 89.8534 74.6008 89.8534 73.0463V70.7989C89.8534 69.2444 88.4764 67.9868 86.7808 67.9868Z" fill="white"/>
<path d="M59.2526 79.4255C57.557 79.4255 56.1801 80.6831 56.1801 82.2376V84.485C56.1801 86.0395 57.557 87.2971 59.2526 87.2971C60.9482 87.2971 62.3251 86.0395 62.3251 84.485V82.2376C62.3251 80.6867 60.9482 79.4255 59.2526 79.4255Z" fill="white"/>
<path d="M67.1152 87.2971C68.8108 87.2971 70.1877 86.0395 70.1877 84.485V82.2376C70.1877 80.6867 68.8108 79.4255 67.1152 79.4255C65.4196 79.4255 64.0427 80.6831 64.0427 82.2376V84.485C64.0427 86.0395 65.4196 87.2971 67.1152 87.2971Z" fill="white"/>
<path d="M78.9146 79.4255C77.219 79.4255 75.8421 80.6831 75.8421 82.2376V84.485C75.8421 86.0395 77.219 87.2971 78.9146 87.2971C80.6102 87.2971 81.9871 86.0395 81.9871 84.485V82.2376C81.9871 80.6867 80.6102 79.4255 78.9146 79.4255Z" fill="white"/>
<path d="M86.7808 79.4255C85.0853 79.4255 83.7083 80.6831 83.7083 82.2376V84.485C83.7083 86.0395 85.0853 87.2971 86.7808 87.2971C88.4764 87.2971 89.8534 86.0395 89.8534 84.485V82.2376C89.8534 80.6867 88.4764 79.4255 86.7808 79.4255Z" fill="white"/>
<path d="M69.0818 42.8801C70.7773 42.8801 72.1543 41.6225 72.1543 40.068V37.8206C72.1543 36.2697 70.7773 35.0085 69.0818 35.0085C67.3862 35.0085 66.0092 36.2661 66.0092 37.8206V40.068C66.0092 41.6189 67.3862 42.8801 69.0818 42.8801Z" fill="white"/>
<path d="M76.948 42.8801C78.6436 42.8801 80.0206 41.6225 80.0206 40.068V37.8206C80.0206 36.2697 78.6436 35.0085 76.948 35.0085C75.2525 35.0085 73.8755 36.2661 73.8755 37.8206V40.068C73.8755 41.6189 75.2525 42.8801 76.948 42.8801Z" fill="white"/>
<path d="M69.0818 51.9873C70.7773 51.9873 72.1543 50.7297 72.1543 49.1752V46.9278C72.1543 45.3769 70.7773 44.1157 69.0818 44.1157C67.3862 44.1157 66.0092 45.3733 66.0092 46.9278V49.1752C66.0092 50.7261 67.3862 51.9873 69.0818 51.9873Z" fill="white"/>
<path d="M76.948 51.9873C78.6436 51.9873 80.0206 50.7297 80.0206 49.1752V46.9278C80.0206 45.3769 78.6436 44.1157 76.948 44.1157C75.2525 44.1157 73.8755 45.3733 73.8755 46.9278V49.1752C73.8755 50.7261 75.2525 51.9873 76.948 51.9873Z" fill="white"/>
<path d="M69.0818 23.4414C70.7773 23.4414 72.1543 22.1838 72.1543 20.6293V18.3819C72.1543 16.831 70.7773 15.5698 69.0818 15.5698C67.3862 15.5698 66.0092 16.8274 66.0092 18.3819V20.6293C66.0092 22.1802 67.3862 23.4414 69.0818 23.4414Z" fill="white"/>
<path d="M76.948 23.4414C78.6436 23.4414 80.0206 22.1838 80.0206 20.6293V18.3819C80.0206 16.831 78.6436 15.5698 76.948 15.5698C75.2525 15.5698 73.8755 16.8274 73.8755 18.3819V20.6293C73.8755 22.1802 75.2525 23.4414 76.948 23.4414Z" fill="white"/>
<path d="M69.0818 32.5485C70.7773 32.5485 72.1543 31.291 72.1543 29.7365V27.489C72.1543 25.9382 70.7773 24.677 69.0818 24.677C67.3862 24.677 66.0092 25.9345 66.0092 27.489V29.7365C66.0092 31.2873 67.3862 32.5485 69.0818 32.5485Z" fill="white"/>
<path d="M76.948 32.5485C78.6436 32.5485 80.0206 31.291 80.0206 29.7365V27.489C80.0206 25.9382 78.6436 24.677 76.948 24.677C75.2525 24.677 73.8755 25.9345 73.8755 27.489V29.7365C73.8755 31.2873 75.2525 32.5485 76.948 32.5485Z" fill="white"/>
<path d="M220.727 35.2724C220.789 34.9095 220.826 34.5355 220.826 34.1542V17.4615C220.826 13.9786 218.175 11.1519 214.904 11.1519H207.43C204.16 11.1519 201.508 13.9786 201.508 17.4615V31.0819H178.484C175.214 31.0819 172.563 33.6886 172.563 36.9076V90.8535C171.827 89.3503 170.589 88.3604 169.183 88.3604H144.573V43.4666C144.573 40.0606 142.017 37.3036 138.86 37.3036H103.162C100.009 37.3036 97.4487 40.0643 97.4487 43.4666V94.0762C97.4487 94.0762 97.4487 94.0762 97.4487 94.0798V143.344C97.4487 146.501 99.2797 149.063 101.543 149.063H169.179C170.937 149.063 172.427 147.516 173.009 145.346C173.899 147.457 176.012 148.942 178.481 148.942H215.043C218.314 148.942 220.965 146.336 220.965 143.117V36.9113C220.965 36.343 220.877 35.7967 220.723 35.2761L220.727 35.2724Z" fill="#0D595A"/>
<path d="M105.861 42.4729C103.909 42.4729 102.323 44.0567 102.323 46.0145V49.0832C102.323 51.0374 103.905 52.6249 105.861 52.6249C107.816 52.6249 109.398 51.041 109.398 49.0832V46.0145C109.398 44.0604 107.816 42.4729 105.861 42.4729Z" fill="white"/>
<path d="M114.701 42.4729C112.749 42.4729 111.163 44.0567 111.163 46.0145V49.0832C111.163 51.0374 112.745 52.6249 114.701 52.6249C116.657 52.6249 118.239 51.041 118.239 49.0832V46.0145C118.239 44.0604 116.657 42.4729 114.701 42.4729Z" fill="white"/>
<path d="M127.324 42.4729C125.372 42.4729 123.787 44.0567 123.787 46.0145V49.0832C123.787 51.0374 125.369 52.6249 127.324 52.6249C129.28 52.6249 130.862 51.041 130.862 49.0832V46.0145C130.862 44.0604 129.28 42.4729 127.324 42.4729Z" fill="white"/>
<path d="M136.165 42.4729C134.213 42.4729 132.627 44.0567 132.627 46.0145V49.0832C132.627 51.0374 134.209 52.6249 136.165 52.6249C138.12 52.6249 139.702 51.041 139.702 49.0832V46.0145C139.702 44.0604 138.12 42.4729 136.165 42.4729Z" fill="white"/>
<path d="M105.861 53.6296C103.909 53.6296 102.323 55.2135 102.323 57.1713V60.24C102.323 62.1941 103.905 63.7816 105.861 63.7816C107.816 63.7816 109.398 62.1978 109.398 60.24V57.1713C109.398 55.2171 107.816 53.6296 105.861 53.6296Z" fill="white"/>
<path d="M114.701 53.6296C112.749 53.6296 111.163 55.2135 111.163 57.1713V60.24C111.163 62.1941 112.745 63.7816 114.701 63.7816C116.657 63.7816 118.239 62.1978 118.239 60.24V57.1713C118.239 55.2171 116.657 53.6296 114.701 53.6296Z" fill="white"/>
<path d="M127.324 53.6296C125.372 53.6296 123.787 55.2135 123.787 57.1713V60.24C123.787 62.1941 125.369 63.7816 127.324 63.7816C129.28 63.7816 130.862 62.1978 130.862 60.24V57.1713C130.862 55.2171 129.28 53.6296 127.324 53.6296Z" fill="white"/>
<path d="M136.165 53.6296C134.213 53.6296 132.627 55.2135 132.627 57.1713V60.24C132.627 62.1941 134.209 63.7816 136.165 63.7816C138.12 63.7816 139.702 62.1978 139.702 60.24V57.1713C139.702 55.2171 138.12 53.6296 136.165 53.6296Z" fill="white"/>
<path d="M105.861 67.2756C103.909 67.2756 102.323 68.8595 102.323 70.8173V73.886C102.323 75.8438 103.905 77.4276 105.861 77.4276C107.816 77.4276 109.398 75.8438 109.398 73.886V70.8173C109.398 68.8631 107.816 67.2756 105.861 67.2756Z" fill="white"/>
<path d="M114.701 67.2756C112.749 67.2756 111.163 68.8595 111.163 70.8173V73.886C111.163 75.8438 112.745 77.4276 114.701 77.4276C116.657 77.4276 118.239 75.8438 118.239 73.886V70.8173C118.239 68.8631 116.657 67.2756 114.701 67.2756Z" fill="white"/>
<path d="M127.324 67.2756C125.372 67.2756 123.787 68.8595 123.787 70.8173V73.886C123.787 75.8438 125.369 77.4276 127.324 77.4276C129.28 77.4276 130.862 75.8438 130.862 73.886V70.8173C130.862 68.8631 129.28 67.2756 127.324 67.2756Z" fill="white"/>
<path d="M136.165 67.2756C134.213 67.2756 132.627 68.8595 132.627 70.8173V73.886C132.627 75.8438 134.209 77.4276 136.165 77.4276C138.12 77.4276 139.702 75.8438 139.702 73.886V70.8173C139.702 68.8631 138.12 67.2756 136.165 67.2756Z" fill="white"/>
<path d="M105.861 78.4321C103.909 78.4321 102.323 80.016 102.323 81.9738V85.0425C102.323 86.9966 103.905 88.5841 105.861 88.5841C107.816 88.5841 109.398 87.0003 109.398 85.0425V81.9738C109.398 80.0196 107.816 78.4321 105.861 78.4321Z" fill="white"/>
<path d="M114.701 78.4321C112.749 78.4321 111.163 80.016 111.163 81.9738V85.0425C111.163 86.9966 112.745 88.5841 114.701 88.5841C116.657 88.5841 118.239 87.0003 118.239 85.0425V81.9738C118.239 80.0196 116.657 78.4321 114.701 78.4321Z" fill="white"/>
<path d="M127.324 78.4321C125.372 78.4321 123.787 80.016 123.787 81.9738V85.0425C123.787 86.9966 125.369 88.5841 127.324 88.5841C129.28 88.5841 130.862 87.0003 130.862 85.0425V81.9738C130.862 80.0196 129.28 78.4321 127.324 78.4321Z" fill="white"/>
<path d="M136.165 78.4321C134.213 78.4321 132.627 80.016 132.627 81.9738V85.0425C132.627 86.9966 134.209 88.5841 136.165 88.5841C138.12 88.5841 139.702 87.0003 139.702 85.0425V81.9738C139.702 80.0196 138.12 78.4321 136.165 78.4321Z" fill="white"/>
<path d="M183.377 48.8341C185.505 48.8341 187.233 47.2283 187.233 45.2485V40.3027C187.233 38.3229 185.508 36.717 183.377 36.717C181.246 36.717 179.521 38.3229 179.521 40.3027V45.2485C179.521 47.2283 181.246 48.8341 183.377 48.8341Z" fill="white"/>
<path d="M194.279 48.8341C196.407 48.8341 198.135 47.2283 198.135 45.2485V40.3027C198.135 38.3229 196.41 36.717 194.279 36.717C192.148 36.717 190.423 38.3229 190.423 40.3027V45.2485C190.423 47.2283 192.148 48.8341 194.279 48.8341Z" fill="white"/>
<path d="M187.398 57.5161C187.398 55.5363 185.673 53.9304 183.542 53.9304C181.41 53.9304 179.686 55.5363 179.686 57.5161V62.4619C179.686 64.4417 181.41 66.0475 183.542 66.0475C185.673 66.0475 187.398 64.4417 187.398 62.4619V57.5161Z" fill="white"/>
<path d="M198.3 57.5161C198.3 55.5363 196.575 53.9304 194.444 53.9304C192.313 53.9304 190.588 55.5363 190.588 57.5161V62.4619C190.588 64.4417 192.313 66.0475 194.444 66.0475C196.575 66.0475 198.3 64.4417 198.3 62.4619V57.5161Z" fill="white"/>
<path d="M183.542 71.4219C181.414 71.4219 179.686 73.0277 179.686 75.0075V79.9533C179.686 81.9331 181.41 83.539 183.542 83.539C185.673 83.539 187.398 81.9331 187.398 79.9533V75.0075C187.398 73.0277 185.673 71.4219 183.542 71.4219Z" fill="white"/>
<path d="M194.444 71.4219C192.316 71.4219 190.588 73.0277 190.588 75.0075V79.9533C190.588 81.9331 192.313 83.539 194.444 83.539C196.575 83.539 198.3 81.9331 198.3 79.9533V75.0075C198.3 73.0277 196.575 71.4219 194.444 71.4219Z" fill="white"/>
<path d="M208.14 20.2002H214.186C215.117 20.2002 215.871 20.9555 215.871 21.8867V27.2028C215.871 28.1341 215.117 28.8893 214.186 28.8893H208.14C207.21 28.8893 206.456 28.1341 206.456 27.2028V21.8867C206.456 20.9555 207.21 20.1965 208.144 20.1965L208.14 20.2002Z" fill="white"/>
<path d="M208.14 38.4036H214.186C215.117 38.4036 215.871 39.1588 215.871 40.0901V45.4062C215.871 46.3374 215.117 47.0964 214.183 47.0964H208.137C207.206 47.0964 206.452 46.3411 206.452 45.4099V40.0901C206.452 39.1588 207.206 38.4036 208.137 38.4036H208.14Z" fill="white"/>
<path d="M208.14 55.7852H214.186C215.117 55.7852 215.871 56.5404 215.871 57.4717V62.7878C215.871 63.719 215.117 64.4743 214.186 64.4743H208.14C207.21 64.4743 206.456 63.719 206.456 62.7878V57.4717C206.456 56.5404 207.21 55.7852 208.14 55.7852Z" fill="white"/>
<path d="M208.14 73.5559H214.186C215.117 73.5559 215.871 74.3112 215.871 75.2424V80.5585C215.871 81.4898 215.117 82.245 214.186 82.245H208.14C207.21 82.245 206.456 81.4898 206.456 80.5585V75.2424C206.456 74.3112 207.21 73.5559 208.14 73.5559Z" fill="white"/>
<path d="M327.35 143.219C327.35 146.38 324.889 148.939 321.857 148.939H229.575C226.542 148.939 224.082 146.38 224.082 143.219V52.3061C224.082 49.1457 226.542 46.5867 229.575 46.5867H321.857C324.889 46.5867 327.35 49.1457 327.35 52.3061V143.219Z" fill="#0D595A"/>
<path d="M233.566 85.0061C235.262 85.0061 236.639 83.7485 236.639 82.194V79.9466C236.639 78.3957 235.262 77.1345 233.566 77.1345C231.871 77.1345 230.494 78.3921 230.494 79.9466V82.194C230.494 83.7449 231.871 85.0061 233.566 85.0061Z" fill="white"/>
<path d="M241.433 85.0061C243.128 85.0061 244.505 83.7485 244.505 82.194V79.9466C244.505 78.3957 243.128 77.1345 241.433 77.1345C239.737 77.1345 238.36 78.3921 238.36 79.9466V82.194C238.36 83.7449 239.737 85.0061 241.433 85.0061Z" fill="white"/>
<path d="M233.566 60.2475C235.262 60.2475 236.639 58.99 236.639 57.4355V55.188C236.639 53.6372 235.262 52.376 233.566 52.376C231.871 52.376 230.494 53.6335 230.494 55.188V57.4355C230.494 58.9863 231.871 60.2475 233.566 60.2475Z" fill="white"/>
<path d="M241.433 60.2475C243.128 60.2475 244.505 58.99 244.505 57.4355V55.188C244.505 53.6372 243.128 52.376 241.433 52.376C239.737 52.376 238.36 53.6335 238.36 55.188V57.4355C238.36 58.9863 239.737 60.2475 241.433 60.2475Z" fill="white"/>
<path d="M233.566 69.3581C235.262 69.3581 236.639 68.1006 236.639 66.5461V64.2986C236.639 62.7441 235.262 61.4866 233.566 61.4866C231.871 61.4866 230.494 62.7441 230.494 64.2986V66.5461C230.494 68.0969 231.871 69.3581 233.566 69.3581Z" fill="white"/>
<path d="M241.433 69.3581C243.128 69.3581 244.505 68.1006 244.505 66.5461V64.2986C244.505 62.7441 243.128 61.4866 241.433 61.4866C239.737 61.4866 238.36 62.7441 238.36 64.2986V66.5461C238.36 68.0969 239.737 69.3581 241.433 69.3581Z" fill="white"/>
<path d="M252.976 85.0061C254.671 85.0061 256.048 83.7485 256.048 82.194V79.9466C256.048 78.3957 254.671 77.1345 252.976 77.1345C251.28 77.1345 249.903 78.3921 249.903 79.9466V82.194C249.903 83.7449 251.28 85.0061 252.976 85.0061Z" fill="white"/>
<path d="M260.842 85.0061C262.538 85.0061 263.915 83.7485 263.915 82.194V79.9466C263.915 78.3957 262.538 77.1345 260.842 77.1345C259.146 77.1345 257.769 78.3921 257.769 79.9466V82.194C257.769 83.7449 259.146 85.0061 260.842 85.0061Z" fill="white"/>
<path d="M252.976 60.2475C254.671 60.2475 256.048 58.99 256.048 57.4355V55.188C256.048 53.6372 254.671 52.376 252.976 52.376C251.28 52.376 249.903 53.6335 249.903 55.188V57.4355C249.903 58.9863 251.28 60.2475 252.976 60.2475Z" fill="white"/>
<path d="M260.842 60.2475C262.538 60.2475 263.915 58.99 263.915 57.4355V55.188C263.915 53.6372 262.538 52.376 260.842 52.376C259.146 52.376 257.769 53.6335 257.769 55.188V57.4355C257.769 58.9863 259.146 60.2475 260.842 60.2475Z" fill="white"/>
<path d="M252.976 69.3581C254.671 69.3581 256.048 68.1006 256.048 66.5461V64.2986C256.048 62.7441 254.671 61.4866 252.976 61.4866C251.28 61.4866 249.903 62.7441 249.903 64.2986V66.5461C249.903 68.0969 251.28 69.3581 252.976 69.3581Z" fill="white"/>
<path d="M260.842 69.3581C262.538 69.3581 263.915 68.1006 263.915 66.5461V64.2986C263.915 62.7441 262.538 61.4866 260.842 61.4866C259.146 61.4866 257.769 62.7441 257.769 64.2986V66.5461C257.769 68.0969 259.146 69.3581 260.842 69.3581Z" fill="white"/>
<path d="M272.019 60.2475C273.714 60.2475 275.091 58.99 275.091 57.4355V55.188C275.091 53.6372 273.714 52.376 272.019 52.376C270.323 52.376 268.946 53.6335 268.946 55.188V57.4355C268.946 58.9863 270.323 60.2475 272.019 60.2475Z" fill="white"/>
<path d="M279.885 52.376C278.19 52.376 276.813 53.6335 276.813 55.188V57.4355C276.813 58.9863 278.19 60.2475 279.885 60.2475C281.581 60.2475 282.958 58.99 282.958 57.4355V55.188C282.958 53.6372 281.581 52.376 279.885 52.376Z" fill="white"/>
<path d="M272.019 69.3581C273.714 69.3581 275.091 68.1006 275.091 66.5461V64.2986C275.091 62.7441 273.714 61.4866 272.019 61.4866C270.323 61.4866 268.946 62.7441 268.946 64.2986V66.5461C268.946 68.0969 270.323 69.3581 272.019 69.3581Z" fill="white"/>
<path d="M279.885 61.4866C278.19 61.4866 276.813 62.7441 276.813 64.2986V66.5461C276.813 68.0969 278.19 69.3581 279.885 69.3581C281.581 69.3581 282.958 68.1006 282.958 66.5461V64.2986C282.958 62.7441 281.581 61.4866 279.885 61.4866Z" fill="white"/>
<path d="M272.019 85.1743C273.714 85.1743 275.091 83.9167 275.091 82.3622V80.1148C275.091 78.5639 273.714 77.3027 272.019 77.3027C270.323 77.3027 268.946 78.5603 268.946 80.1148V82.3622C268.946 83.9131 270.323 85.1743 272.019 85.1743Z" fill="white"/>
<path d="M279.885 77.3027C278.19 77.3027 276.813 78.5603 276.813 80.1148V82.3622C276.813 83.9131 278.19 85.1743 279.885 85.1743C281.581 85.1743 282.958 83.9167 282.958 82.3622V80.1148C282.958 78.5639 281.581 77.3027 279.885 77.3027Z" fill="white"/>
<path d="M310.471 84.9433C312.167 84.9433 313.544 83.6858 313.544 82.1313V79.8838C313.544 78.333 312.167 77.0718 310.471 77.0718C308.776 77.0718 307.399 78.3293 307.399 79.8838V82.1313C307.399 83.6821 308.776 84.9433 310.471 84.9433Z" fill="white"/>
<path d="M318.338 84.9433C320.033 84.9433 321.41 83.6858 321.41 82.1313V79.8838C321.41 78.333 320.033 77.0718 318.338 77.0718C316.642 77.0718 315.265 78.3293 315.265 79.8838V82.1313C315.265 83.6821 316.642 84.9433 318.338 84.9433Z" fill="white"/>
<path d="M310.471 60.1853C312.167 60.1853 313.544 58.9277 313.544 57.3732V55.1258C313.544 53.5749 312.167 52.3137 310.471 52.3137C308.776 52.3137 307.399 53.5713 307.399 55.1258V57.3732C307.399 58.9241 308.776 60.1853 310.471 60.1853Z" fill="white"/>
<path d="M318.338 60.1853C320.033 60.1853 321.41 58.9277 321.41 57.3732V55.1258C321.41 53.5749 320.033 52.3137 318.338 52.3137C316.642 52.3137 315.265 53.5713 315.265 55.1258V57.3732C315.265 58.9241 316.642 60.1853 318.338 60.1853Z" fill="white"/>
<path d="M310.471 69.2959C312.167 69.2959 313.544 68.0383 313.544 66.4838V64.2364C313.544 62.6819 312.167 61.4243 310.471 61.4243C308.776 61.4243 307.399 62.6819 307.399 64.2364V66.4838C307.399 68.0347 308.776 69.2959 310.471 69.2959Z" fill="white"/>
<path d="M318.338 69.2959C320.033 69.2959 321.41 68.0383 321.41 66.4838V64.2364C321.41 62.6819 320.033 61.4243 318.338 61.4243C316.642 61.4243 315.265 62.6819 315.265 64.2364V66.4838C315.265 68.0347 316.642 69.2959 318.338 69.2959Z" fill="white"/>
<path d="M290.696 84.9433C292.391 84.9433 293.768 83.6858 293.768 82.1313V79.8838C293.768 78.333 292.391 77.0718 290.696 77.0718C289 77.0718 287.623 78.3293 287.623 79.8838V82.1313C287.623 83.6821 289 84.9433 290.696 84.9433Z" fill="white"/>
<path d="M298.562 84.9433C300.258 84.9433 301.635 83.6858 301.635 82.1313V79.8838C301.635 78.333 300.258 77.0718 298.562 77.0718C296.866 77.0718 295.489 78.3293 295.489 79.8838V82.1313C295.489 83.6821 296.866 84.9433 298.562 84.9433Z" fill="white"/>
<path d="M290.696 60.1853C292.391 60.1853 293.768 58.9277 293.768 57.3732V55.1258C293.768 53.5749 292.391 52.3137 290.696 52.3137C289 52.3137 287.623 53.5713 287.623 55.1258V57.3732C287.623 58.9241 289 60.1853 290.696 60.1853Z" fill="white"/>
<path d="M298.562 60.1853C300.258 60.1853 301.635 58.9277 301.635 57.3732V55.1258C301.635 53.5749 300.258 52.3137 298.562 52.3137C296.866 52.3137 295.489 53.5713 295.489 55.1258V57.3732C295.489 58.9241 296.866 60.1853 298.562 60.1853Z" fill="white"/>
<path d="M290.696 69.2959C292.391 69.2959 293.768 68.0383 293.768 66.4838V64.2364C293.768 62.6819 292.391 61.4243 290.696 61.4243C289 61.4243 287.623 62.6819 287.623 64.2364V66.4838C287.623 68.0347 289 69.2959 290.696 69.2959Z" fill="white"/>
<path d="M298.562 69.2959C300.258 69.2959 301.635 68.0383 301.635 66.4838V64.2364C301.635 62.6819 300.258 61.4243 298.562 61.4243C296.866 61.4243 295.489 62.6819 295.489 64.2364V66.4838C295.489 68.0347 296.866 69.2959 298.562 69.2959Z" fill="white"/>
<path d="M363.213 143.282C363.213 146.405 360.602 148.939 357.383 148.939H335.231C332.012 148.939 329.401 146.405 329.401 143.282V33.3331C329.401 30.2094 332.012 27.676 335.231 27.676H357.383C360.602 27.676 363.213 30.2094 363.213 33.3331V143.282Z" fill="#0D595A"/>
<path d="M342.888 32.8933H338.117C337.538 32.8933 337.066 33.4469 337.066 34.1289V41.9491C337.066 42.631 337.538 43.1846 338.117 43.1846H342.888C343.471 43.1846 343.94 42.631 343.94 41.9491V34.1289C343.94 33.4469 343.467 32.8933 342.888 32.8933Z" fill="white"/>
<path d="M354.864 32.8933H350.092C349.513 32.8933 349.041 33.4469 349.041 34.1289V41.9491C349.041 42.631 349.513 43.1846 350.092 43.1846H354.864C355.442 43.1846 355.915 42.631 355.915 41.9491V34.1289C355.915 33.4469 355.442 32.8933 354.864 32.8933Z" fill="white"/>
<path d="M342.888 46.9756H338.117C337.538 46.9756 337.066 47.5292 337.066 48.2111V56.0313C337.066 56.7133 337.538 57.2669 338.117 57.2669H342.888C343.471 57.2669 343.94 56.7133 343.94 56.0313V48.2111C343.94 47.5292 343.467 46.9756 342.888 46.9756Z" fill="white"/>
<path d="M354.864 46.9756H350.092C349.513 46.9756 349.041 47.5292 349.041 48.2111V56.0313C349.041 56.7133 349.513 57.2669 350.092 57.2669H354.864C355.442 57.2669 355.915 56.7133 355.915 56.0313V48.2111C355.915 47.5292 355.442 46.9756 354.864 46.9756Z" fill="white"/>
<path d="M342.888 61.3728H338.117C337.538 61.3728 337.066 61.9264 337.066 62.6083V70.4285C337.066 71.1105 337.538 71.6641 338.117 71.6641H342.888C343.471 71.6641 343.94 71.1105 343.94 70.4285V62.6083C343.94 61.9264 343.467 61.3728 342.888 61.3728Z" fill="white"/>
<path d="M354.864 61.3728H350.092C349.513 61.3728 349.041 61.9264 349.041 62.6083V70.4285C349.041 71.1105 349.513 71.6641 350.092 71.6641H354.864C355.442 71.6641 355.915 71.1105 355.915 70.4285V62.6083C355.915 61.9264 355.442 61.3728 354.864 61.3728Z" fill="white"/>
<path d="M342.888 75.4407H338.117C337.538 75.4407 337.066 75.9943 337.066 76.6762V84.4964C337.066 85.1784 337.538 85.732 338.117 85.732H342.888C343.471 85.732 343.94 85.1784 343.94 84.4964V76.6762C343.94 75.9943 343.467 75.4407 342.888 75.4407Z" fill="white"/>
<path d="M354.864 75.4407H350.092C349.513 75.4407 349.041 75.9943 349.041 76.6762V84.4964C349.041 85.1784 349.513 85.732 350.092 85.732H354.864C355.442 85.732 355.915 85.1784 355.915 84.4964V76.6762C355.915 75.9943 355.442 75.4407 354.864 75.4407Z" fill="white"/>
</g>
</g>
<defs>
<clipPath id="clip0_70_1273">
<rect width="363" height="80" fill="white"/>
</clipPath>
</defs>
</svg>
