<svg width="393" height="600" viewBox="0 0 393 600" fill="none" xmlns="http://www.w3.org/2000/svg">
<g clip-path="url(#clip0_220_877)">
<path d="M18.7531 176.316C18.7531 176.316 9.05183 186.279 -4.45647 185.031C-4.45647 185.031 -4.12086 194.124 2.86403 196.893C2.86403 196.893 12.0828 198.969 26.147 184.842C26.147 184.842 18.9838 181.885 18.7531 176.316Z" fill="#4EC5D9"/>
<path d="M345 541.218V552.733C347.024 550.384 349.164 547.395 351.314 543.588C351.314 543.588 347.8 543.148 345 541.218Z" fill="#B793C4"/>
<path d="M183.464 205.042C183.464 205.042 184.324 209.499 181.22 212.918C181.22 212.918 183.873 214.512 186.076 213.138C186.076 213.138 188.54 211.03 187.387 204.633C187.387 204.633 185.09 206.017 183.464 205.052V205.042Z" fill="#E12969"/>
<path d="M70.1958 103.373C70.1958 103.373 67.3536 104.611 67.1963 107.201C67.1963 107.201 67.469 110.431 73.3526 113.221C73.3526 113.221 73.5624 110.547 75.2929 109.781C75.2929 109.781 71.1607 107.883 70.1958 103.373Z" fill="#E12969"/>
<path d="M325.094 587.152C325.094 587.152 322.251 588.389 322.094 590.98C322.094 590.98 322.367 594.21 328.25 597C328.25 597 328.46 594.326 330.191 593.56C330.191 593.56 326.058 591.662 325.094 587.152Z" fill="#E12969"/>
<path d="M369.528 560.908C369.528 560.908 373.818 558.328 375.821 555.181C375.821 555.181 373.818 551.93 368.417 546.99H354.657C359.082 550 364.557 554.52 369.528 560.897V560.908Z" fill="#F04944"/>
<path d="M-2.54258 101.653C-2.54258 101.653 2.70133 111.092 -3.06697 116.074C-3.06697 116.074 5.06109 116.074 9.7806 119.22C9.7806 119.22 11.8782 110.83 8.73182 106.635C8.73182 106.635 4.01231 102.702 -2.54258 101.653Z" fill="#EF9520"/>
<path d="M370.577 602.698C375.097 598.922 378.936 593.783 376.681 587.816C375.275 584.103 372.423 581.209 368.983 579.342C368.92 578.062 368.605 576.741 367.997 575.398C366.13 571.35 362.375 568.864 358.589 566.788C357.614 566.253 353.985 564.481 350.524 562.393C345.469 560.852 341.274 558.534 340.739 552C334.279 559.436 347.535 565.529 352.527 568.298C356.156 570.301 362.837 573.269 364.452 577.559C363.54 577.318 362.606 577.139 361.683 577.034C357.215 576.541 344.913 577.454 344.85 584.061C344.787 590.773 355.202 591.13 359.617 590.207C363.519 589.389 366.675 586.956 368.133 583.768C371.71 585.981 374.122 589.504 372.58 594.119C371.626 596.993 368.983 599.342 365.952 601.219C364.735 600.957 363.55 600.789 362.407 600.747C359.051 600.622 347.294 602.1 350.367 608.078C353.115 613.438 362.805 608.078 366.644 605.582C368.06 605.96 369.444 606.474 370.734 607.113C376.052 609.746 383.54 616.71 380.194 623.17C381.4 624.02 382.428 625.058 383.162 626.264C389.361 616.615 380.352 606.778 370.566 602.688L370.577 602.698ZM363.844 582.771C362.501 585.058 358.82 586.211 356.376 586.568C354.625 586.82 350.231 586.662 350.178 584.124C350.115 580.946 356.681 581.135 358.726 581.114C360.435 581.093 362.365 581.397 364.253 581.995C364.137 582.257 364.001 582.509 363.854 582.782L363.844 582.771ZM354.163 606.484C353.115 603.338 361.767 604.124 361.767 604.124C357.048 607.795 354.163 606.484 354.163 606.484Z" fill="#EF9520"/>
<path d="M75.8278 66.2356C74.6426 67.6409 72.7863 70.3048 70.7726 70.6405C70.9509 70.2629 71.1083 69.8748 71.2341 69.4763C71.8319 67.578 72.4822 62.1348 69.6085 61.5475C66.6929 60.9497 65.6441 65.449 65.6756 67.4522C65.6965 69.2246 66.4936 70.8083 67.7521 71.7102C66.4831 73.0841 64.7421 73.8288 62.8648 72.7695C61.7007 72.1087 60.8931 70.7558 60.3373 69.277C60.5575 68.7736 60.7253 68.2702 60.8407 67.7773C61.1868 66.3195 61.5434 61.0861 58.6697 61.9041C56.1002 62.6487 57.6104 67.3158 58.3656 69.2036C58.0824 69.7909 57.7363 70.3468 57.3482 70.8502C55.7436 72.9373 52.0833 75.6117 49.5453 73.598C49.0733 74.049 48.528 74.4056 47.9511 74.6258C51.6219 78.1497 56.677 75.0663 59.2885 71.1544C60.547 73.4512 62.4558 75.5592 65.2456 75.0768C66.9865 74.7831 68.4863 73.7868 69.598 72.4444C70.1644 72.5283 70.7621 72.5073 71.4019 72.35C73.3212 71.878 74.7265 70.4622 75.9536 68.9939C76.2683 68.6163 77.3485 67.19 78.5546 65.858C79.6558 63.7814 81.0192 62.1558 83.9139 62.4809C81.229 59.0304 77.4429 64.2848 75.8173 66.2251L75.8278 66.2356ZM59.4353 67.2005C58.2397 64.8302 59.0578 63.687 59.0578 63.687C60.5156 63.4983 59.4353 67.2005 59.4353 67.2005ZM69.7239 67.8402C69.5875 68.5848 69.2938 69.4029 68.8638 70.1685C68.759 70.0951 68.6646 70.0217 68.5597 69.9273C67.6787 69.1512 67.49 67.4417 67.5424 66.3509C67.5843 65.5644 68.0248 63.6661 69.1365 63.8548C70.5209 64.0961 69.8812 66.9383 69.7239 67.8297V67.8402Z" fill="#E12969"/>
<path d="M34.5058 122.733C35.9636 121.412 39.5399 121.223 40.7985 121.034C42.4975 120.783 43.9553 120.321 45.3082 119.472C43.8294 118.79 42.4345 117.804 41.2494 116.797C38.9631 117.437 36.1943 117.248 34.1072 118.255C31.6006 119.461 29.2828 121.402 29.7023 124.432C29.8911 125.827 31.1497 126.457 32.2404 126.362C34.1806 127.054 40.0433 129.267 42.2982 131.218C39.6133 131.48 36.5824 130.432 33.9289 131.669C31.6426 132.728 30.2163 134.459 29.8597 136.955C29.7443 137.794 30.0065 138.937 30.9084 139.283C33.1948 140.185 35.4077 141.171 37.5263 142.44C38.8163 143.216 43.5777 144.789 40.3475 145.324C37.3165 145.828 34.5897 144.38 31.5063 145.576C25.8009 147.789 27.3531 153.001 28.9997 157.563C29.0626 157.752 29.157 157.91 29.2514 158.056C29.587 156.714 30.3945 155.487 31.7265 154.522C31.8838 154.407 32.0411 154.354 32.188 154.333C31.4853 152.508 31.0867 150.516 33.3521 149.331C35.3448 148.292 38.2709 149.656 40.4419 149.519C42.4346 149.393 45.1299 149.058 46.0633 146.992C48.1924 142.272 39.2672 138.172 34.6945 136.305C36.9914 133.893 43.6407 135.581 46.3675 134.343C47.0387 134.039 47.3953 133.179 47.3848 132.498C47.3533 127.642 39.2672 124.412 34.5058 122.733Z" fill="#EF9520"/>
<path d="M22.4762 21.4948C21.0604 21.3585 18.9104 20.2363 17.8931 18.7785C19.9277 18.3799 21.9309 17.5724 23.8082 16.3977C25.7484 15.1707 27.9299 13.2724 27.2272 10.7553C26.5665 8.37455 23.9026 7.79772 21.7001 8.17528C18.4489 8.74162 15.334 11.5628 13.9077 14.856C12.7226 14.7511 11.5899 14.426 10.5201 13.8807C8.61134 14.5204 6.73403 14.7092 4.7728 14.3631C4.85671 14.7092 5.04548 15.0448 5.38109 15.3594C7.67792 17.4255 10.3523 18.6002 13.1211 18.9463C13.1526 19.5126 13.2365 20.079 13.4043 20.6243C15.1977 26.3926 21.784 26.1514 27.0699 24.9873C27.416 24.6621 27.7621 24.3265 28.0662 23.9594C29.0206 22.8268 28.9262 21.5577 28.9997 20.2468C28.9787 20.2258 28.9577 20.2048 28.9367 20.1943C26.9021 20.8551 24.5004 21.6941 22.4553 21.4948H22.4762ZM22.9062 11.6782C22.9062 11.6782 26.577 13.4297 17.3162 15.3489C17.3162 15.3489 20.4626 9.92675 22.9062 11.6782Z" fill="#4EC5D9"/>
<path d="M37.4416 542.325C36.5606 542.241 35.2286 541.57 34.5994 540.689C35.8579 540.448 37.1059 539.965 38.2701 539.252C39.4762 538.518 40.8186 537.375 40.3886 535.864C39.9796 534.438 38.333 534.082 36.9591 534.312C34.9455 534.658 33.0052 536.347 32.1242 538.329C31.3901 538.266 30.6874 538.067 30.0267 537.742C28.8415 538.13 27.6774 538.235 26.4608 538.035C26.5133 538.245 26.6286 538.444 26.8384 538.633C28.2647 539.881 29.9218 540.584 31.6313 540.794C31.6523 541.14 31.7047 541.475 31.8096 541.801C32.9213 545.272 37.0116 545.125 40.2838 544.423C40.504 544.223 40.7138 544.024 40.9025 543.804C41.4899 543.122 41.4374 542.356 41.4794 541.57C41.4689 541.559 41.4584 541.549 41.4374 541.538C40.1789 541.937 38.6896 542.44 37.4206 542.314L37.4416 542.325ZM37.7142 536.42C37.7142 536.42 39.9901 537.469 34.2428 538.633C34.2428 538.633 36.1935 535.372 37.7142 536.42Z" fill="#F04944"/>
<path d="M352.926 306.103C352.045 306.019 350.713 305.347 350.084 304.466C351.343 304.225 352.591 303.743 353.755 303.03C354.961 302.295 356.303 301.152 355.873 299.642C355.464 298.216 353.818 297.859 352.444 298.09C350.43 298.436 348.49 300.125 347.609 302.107C346.875 302.044 346.172 301.845 345.511 301.519C344.326 301.907 343.162 302.012 341.946 301.813C341.998 302.023 342.113 302.222 342.323 302.411C343.75 303.659 345.407 304.362 347.116 304.571C347.137 304.917 347.19 305.253 347.294 305.578C348.406 309.05 352.496 308.903 355.769 308.2C355.989 308.001 356.199 307.802 356.387 307.581C356.975 306.9 356.922 306.134 356.964 305.347C356.954 305.337 356.943 305.326 356.922 305.316C355.664 305.715 354.174 306.218 352.905 306.092L352.926 306.103ZM353.199 300.198C353.199 300.198 355.475 301.247 349.728 302.411C349.728 302.411 351.678 299.149 353.199 300.198Z" fill="#F04944"/>
<path d="M77.2646 132.771C77.2646 132.771 68.696 136.756 66.179 156.525C66.179 156.525 73.6568 154.491 77.2436 158.759C77.2436 158.759 78.8378 144.947 90.3009 137.689C90.3009 137.689 84.4802 130.694 77.2646 132.76V132.771Z" fill="#4EC5D9"/>
<path d="M285.061 242.455C285.061 242.455 277.845 248.57 280.646 268.297C280.646 268.297 287.316 264.365 291.91 267.532C291.91 267.532 289.801 253.782 298.936 243.756C298.936 243.756 291.469 238.544 285.061 242.455Z" fill="#B793C4"/>
<path d="M136.563 240.743C136.563 240.743 133.49 241.099 132.577 243.532C132.577 243.532 131.906 246.7 136.731 251.073C136.731 251.073 137.706 248.577 139.583 248.346C139.583 248.346 136.185 245.336 136.563 240.743Z" fill="#E12969"/>
<path d="M351.004 513.085C351.004 513.085 347.931 513.442 347.018 515.875C347.018 515.875 346.347 519.042 351.171 523.415C351.171 523.415 352.147 520.919 354.024 520.689C354.024 520.689 350.626 517.679 351.004 513.085Z" fill="#E12969"/>
<path d="M72.5031 242.064C72.5031 242.064 73.9714 244.308 73.059 245.976C73.059 245.976 77.4848 244.958 81.0087 247.937C81.0087 247.937 82.5085 245.231 81.0507 243.071C81.0507 243.071 78.8587 240.679 72.4926 242.064H72.5031Z" fill="#E12969"/>
<path d="M283.969 192.341C283.969 192.341 277.634 205.168 259.26 215.687L266.654 219.263C266.654 219.263 280.445 210.957 289.475 196.043C289.475 196.043 285.416 194.208 283.969 192.341Z" fill="#4EC5D9"/>
<path d="M161.751 201C161.751 201 159.758 205.027 154 208.331L156.318 209.453C156.318 209.453 160.649 206.842 163.481 202.164C163.481 202.164 162.201 201.587 161.751 201Z" fill="#4EC5D9"/>
<path d="M263.895 258.771C263.895 258.771 250.502 262.62 233.69 258.299C233.69 258.299 231.866 262.956 232.201 266.679C232.201 266.679 243.245 270.853 266.171 267.875C266.171 267.875 260.529 266.742 263.895 258.782V258.771Z" fill="#F04944"/>
<path d="M170.732 8.81488C170.732 8.81488 169.148 8.47927 168.162 7.00049H136.731C136.731 7.21024 136.741 7.40951 136.762 7.61927C136.762 7.61927 147.806 11.7934 170.732 8.81488Z" fill="#F04944"/>
<path d="M252.002 143.269C252.002 143.269 250.827 145.492 250.859 150.421C250.859 150.421 251.247 149.257 252.841 150.18C252.841 150.18 252.38 147.243 253.733 143.803C253.733 143.803 252.799 143.29 252.002 143.269Z" fill="#F04944"/>
<path d="M139.216 187.055C139.216 187.055 132.777 192.016 127.124 192.404C127.124 192.404 130.585 200.333 135.64 201.728C135.64 201.728 141.775 201.958 147.606 198.791C147.606 198.791 137.695 194.512 139.216 187.045V187.055Z" fill="#EF9520"/>
<path d="M231.939 191.303C227.849 191.932 220.738 193.663 216.836 191.25C217.707 190.883 218.546 190.453 219.354 189.971C223.192 187.632 232.379 179.399 228.394 174.134C224.346 168.775 215.882 174.858 212.945 178.287C210.355 181.318 209.338 185.167 210.135 188.586C205.95 189.016 201.891 187.695 200.287 183.101C199.29 180.238 199.951 176.767 201.21 173.432C202.332 172.897 203.381 172.299 204.304 171.638C207.041 169.687 215.442 161.339 209.369 158.476C203.926 155.906 199.521 166.069 198 170.39C196.647 170.956 195.242 171.386 193.826 171.67C188.005 172.823 177.822 171.89 176.532 164.727C175.063 164.79 173.616 164.59 172.295 164.087C173.281 175.519 186.422 177.815 196.658 175.068C195.378 180.825 195.483 187.234 200.916 190.579C204.304 192.666 208.32 193.212 212.19 192.593C213.019 193.568 214.078 194.428 215.379 195.11C219.333 197.176 223.821 196.861 228.079 196.19C229.181 196.022 233.124 195.204 237.151 194.743C242.102 192.876 246.832 192.152 251.247 197.008C251.824 187.171 237.602 190.432 231.96 191.303H231.939ZM207.324 162.042C210.072 163.898 202.741 168.555 202.741 168.555C204.241 162.765 207.324 162.042 207.324 162.042ZM214.298 187.601C214.235 187.328 214.183 187.045 214.141 186.741C213.816 184.108 216.018 180.941 217.738 179.179C218.976 177.91 222.542 175.351 224.146 177.333C226.139 179.808 220.822 183.668 219.217 184.937C217.875 185.996 216.165 186.94 214.298 187.611V187.601Z" fill="#EF9520"/>
<path d="M55.4302 577.831C55.5246 577.181 55.7344 576.572 56.07 576.037C51.0044 575.492 48.8859 581.019 49.211 585.707C46.8093 584.658 44.009 584.155 42.0897 586.242C40.8941 587.543 40.3068 589.242 40.2543 590.983C39.7614 591.266 39.2895 591.643 38.8804 592.157C37.6429 593.699 37.4017 595.681 37.3283 597.6C37.3073 598.093 37.3282 599.887 37.1814 601.67C37.5695 603.987 37.4856 606.106 35 607.616C39.2371 608.707 39.0273 602.236 39.1322 599.708C39.2056 597.873 39.0588 594.632 40.4432 593.133C40.5271 593.542 40.6424 593.951 40.7892 594.339C41.4814 596.205 44.2817 600.914 46.9141 599.624C49.5885 598.313 47.6692 594.118 46.4212 592.545C45.32 591.161 43.7363 590.385 42.1736 590.448C42.3414 588.591 43.2644 586.934 45.4039 586.63C46.7358 586.441 48.1937 587.018 49.5361 587.857C49.6724 588.392 49.8402 588.895 50.05 589.357C50.6688 590.72 53.5844 595.083 55.3463 592.682C56.93 590.532 52.8817 587.742 51.1302 586.714C50.9939 586.074 50.931 585.424 50.931 584.784C50.931 582.152 52.2 577.799 55.4302 577.841V577.831ZM42.6351 592.335C43.8097 592.419 44.9948 593.646 45.6241 594.548C46.0751 595.199 46.8826 596.971 45.8863 597.495C44.6382 598.146 43.4112 595.503 42.9917 594.695C42.6456 594.024 42.3834 593.195 42.2471 592.325C42.3729 592.325 42.4988 592.325 42.6351 592.325V592.335ZM53.9724 591.475C52.9341 592.514 51.5287 588.927 51.5287 588.927C53.92 590.07 53.9724 591.475 53.9724 591.475Z" fill="#E12969"/>
<path d="M97.0551 206.552C95.0939 207.192 89.0948 209.006 86.1268 208.849C88.0985 207.003 91.1295 205.986 92.4824 203.385C93.6465 201.141 93.72 198.917 92.4824 196.715C92.0629 195.981 91.1609 195.236 90.2275 195.509C87.8678 196.19 85.508 196.757 83.0643 197.05C81.5751 197.229 76.8346 198.886 79.0685 196.484C81.1556 194.24 84.2075 193.715 85.917 190.884C89.0844 185.65 84.6795 182.462 80.5892 179.85C80.4214 179.745 80.2536 179.672 80.0858 179.609C80.6312 180.878 80.7465 182.346 80.2746 183.92C80.2221 184.098 80.1278 184.234 80.0229 184.36C81.6904 185.377 83.2217 186.72 82.1519 189.038C81.208 191.072 78.0617 191.785 76.4256 193.212C74.9258 194.523 72.996 196.442 73.5204 198.655C74.716 203.689 84.2914 201.497 89.0424 200.176C88.6963 203.49 82.3931 206.217 80.9982 208.86C80.6521 209.51 80.8934 210.401 81.3234 210.947C84.3124 214.775 92.6922 212.405 97.4851 210.821C97.139 212.761 94.4122 215.089 93.5312 216.002C92.3356 217.239 91.4651 218.487 90.9197 219.998C92.5034 219.631 94.2129 219.568 95.7651 219.631C97.1809 217.732 99.4883 216.191 100.537 214.114C101.785 211.628 102.435 208.671 100.254 206.531C99.247 205.545 97.8731 205.808 97.0656 206.552H97.0551Z" fill="#EF9520"/>
<path d="M124.009 142.304C123.789 142.041 123.537 141.811 123.254 141.611C120.254 139.545 117.108 142.157 114.947 144.705C114.895 144.989 114.853 145.282 114.832 145.576C114.78 146.478 115.293 147.044 115.734 147.705C115.755 147.705 115.765 147.705 115.786 147.705C116.541 146.625 117.412 145.314 118.492 144.632C119.237 144.16 120.705 143.877 121.733 144.191C120.883 145.156 120.191 146.289 119.709 147.569C119.205 148.89 118.828 150.61 120.097 151.554C121.292 152.435 122.813 151.711 123.757 150.694C125.152 149.194 125.645 146.667 125.131 144.559C125.75 144.16 126.431 143.887 127.155 143.74C127.858 142.713 128.707 141.916 129.798 141.339C129.63 141.202 129.41 141.119 129.137 141.098C127.25 140.982 125.509 141.433 124.019 142.314L124.009 142.304ZM121.88 149.467C121.88 149.467 119.436 150.023 123.275 145.597C123.275 145.597 123.715 149.372 121.88 149.467Z" fill="#F04944"/>
<path d="M80.8603 584.696C80.8603 584.696 81.1435 587.36 79.5808 588.43C79.5808 588.43 83.9857 589.542 85.7581 593.8C85.7581 593.8 88.3276 592.069 88.013 589.489C88.013 589.489 87.153 586.364 80.8603 584.696Z" fill="#E12969"/>
<path d="M19.7599 240.008C19.7599 240.008 16.2989 242.945 11.7996 241.917C11.7996 241.917 11.7157 245.011 13.9916 246.259C13.9916 246.259 17.0331 247.371 22.0567 243.228C22.0567 243.228 19.7179 241.907 19.7704 240.008H19.7599Z" fill="#E12969"/>
<path d="M26.7929 376.848C26.7929 376.848 23.3319 379.784 18.8327 378.756C18.8327 378.756 18.7487 381.85 21.0246 383.098C21.0246 383.098 24.0661 384.21 29.0897 380.067C29.0897 380.067 26.7509 378.746 26.8034 376.848H26.7929Z" fill="#E12969"/>
<path d="M390.787 322.967C390.787 322.967 387.326 325.904 382.827 324.876C382.827 324.876 382.743 327.97 385.019 329.218C385.019 329.218 388.061 330.329 393.084 326.187C393.084 326.187 390.745 324.865 390.798 322.967H390.787Z" fill="#E12969"/>
<path d="M263.025 29.0248C263.025 29.0248 264.42 28.9514 265.091 29.2661C265.091 29.2661 265.007 24.7773 268.615 19.1978L266.035 19.2607C266.035 19.2607 263.381 23.5607 263.014 29.0248H263.025Z" fill="#4EC5D9"/>
<path d="M8.45887 572.196C8.45887 572.196 9.85375 572.122 10.525 572.437C10.525 572.437 10.4411 567.948 14.0489 562.369L11.4689 562.432C11.4689 562.432 8.81546 566.732 8.44839 572.196H8.45887Z" fill="#4EC5D9"/>
<path d="M45.9224 527.025C45.9224 527.025 47.3173 526.952 47.9885 527.267C47.9885 527.267 47.9046 522.778 51.5124 517.198L48.9324 517.261C48.9324 517.261 46.279 521.561 45.9119 527.025H45.9224Z" fill="#4EC5D9"/>
<path d="M393.115 542.127C392.906 541.676 392.067 540.102 391.374 538.445C389.969 536.568 389.067 534.638 390.588 532.163C386.33 533.138 389.476 538.791 390.546 541.088C391.322 542.756 392.937 545.567 392.392 547.528C392.13 547.203 391.836 546.898 391.532 546.615C390.064 545.273 385.417 542.378 383.666 544.728C381.883 547.119 385.522 549.971 387.347 550.789C388.962 551.513 390.724 551.471 392.088 550.706C392.79 552.436 392.727 554.324 390.976 555.582C389.885 556.358 388.323 556.516 386.739 556.39C386.372 555.981 385.984 555.603 385.596 555.289C384.421 554.366 379.827 551.817 379.366 554.764C378.946 557.407 383.823 558.016 385.847 558.131C386.256 558.634 386.613 559.18 386.907 559.757C388.123 562.095 388.983 566.542 386.099 567.989C386.309 568.608 386.403 569.248 386.351 569.877C391.102 568.042 390.441 562.158 388.008 558.131C390.619 557.963 393.336 557.124 394.091 554.397C394.563 552.698 394.29 550.915 393.556 549.342C393.871 548.87 394.101 548.314 394.238 547.675C394.626 545.734 393.934 543.867 393.126 542.127H393.115ZM390.808 549.227C389.728 549.699 388.102 549.143 387.137 548.629C386.445 548.262 384.914 547.056 385.554 546.133C386.361 544.979 388.669 546.762 389.403 547.287C390.022 547.727 390.63 548.346 391.154 549.048C391.049 549.111 390.934 549.164 390.808 549.227ZM381.138 555.194C381.589 553.789 384.484 556.338 384.484 556.338C381.831 556.421 381.138 555.194 381.138 555.194Z" fill="#E12969"/>
<path d="M30.9749 584.219C32.5481 585.446 34.782 586.987 36.8585 586.064C41.5886 583.956 37.6556 574.958 35.4742 570.532C38.7988 570.259 42.6373 575.944 45.5005 576.825C46.2032 577.045 47.0422 576.636 47.4932 576.122C50.7025 572.472 46.8115 564.68 44.3678 560.264C46.3395 560.243 49.1293 562.488 50.1991 563.18C51.6359 564.124 53.0308 564.743 54.6039 565.005C53.9537 563.516 53.5656 561.848 53.3454 560.306C51.2164 559.268 49.2656 557.286 47.0422 556.646C44.3678 555.881 41.3473 555.786 39.6378 558.335C38.8512 559.499 39.3651 560.81 40.2461 561.46C41.2425 563.274 44.1371 568.823 44.5251 571.78C42.3542 570.186 40.781 567.396 37.9807 566.547C35.5685 565.813 33.3556 566.159 31.4259 567.784C30.7756 568.33 30.2198 569.357 30.6602 570.228C31.772 572.42 32.7683 574.633 33.5024 576.982C33.9534 578.419 36.46 582.761 33.6912 581.009C31.1217 579.384 30.031 576.531 27 575.356V579.961C28.4998 581.041 29.601 583.138 30.9749 584.208V584.219Z" fill="#B793C4"/>
<path d="M393.196 457.327C393.196 457.327 386.473 469.503 373.122 471.863C373.122 471.863 375.849 480.547 383.317 481.365C383.317 481.365 389.074 481.103 396.269 472.734V461.218C394.927 460.295 393.752 459.037 393.196 457.327Z" fill="#B793C4"/>
<path d="M1.56765 532.156C1.56765 532.156 -4.74194 535.165 -9 541.457C-9 541.457 3.23231 540.597 5.5936 549C5.5936 549 9.50324 540.558 15 537.197C15 537.197 7.37405 530.944 1.5289 532.156H1.56765Z" fill="#EF9520"/>
<path d="M376.185 495.325C370.459 493.186 368.141 498.104 366.337 502.614C366.264 502.793 366.222 502.971 366.201 503.149C367.344 502.373 368.76 501.995 370.396 502.163C370.585 502.184 370.731 502.247 370.868 502.331C371.56 500.506 372.588 498.744 375.063 499.374C375.493 499.478 375.881 499.709 376.259 499.971V495.367C376.259 495.367 376.206 495.336 376.175 495.325H376.185Z" fill="#B793C4"/>
<path d="M24.662 335.004C24.662 335.004 15.569 334.616 12.2549 341.36C12.2549 341.36 9.45463 350.39 22.4176 365.534C22.4176 365.534 25.931 358.633 31.5 358.832C31.5 358.832 22.3337 348.376 24.662 335.004Z" fill="#4EC5D9"/>
<path d="M38.4981 68.3839C37.0927 68.4678 36.3586 69.6634 36.3691 70.7541C35.5195 72.6419 32.8452 78.3053 30.7266 80.3924C30.6847 77.697 31.9642 74.7605 30.9469 72.0127C30.0659 69.6424 28.4612 68.0902 26.0071 67.5344C25.1786 67.3456 24.0249 67.5239 23.5949 68.3944C22.5147 70.5968 21.3505 72.7363 19.9242 74.7395C19.0537 75.9666 17.1029 80.5812 16.8198 77.3195C16.5576 74.2675 18.2146 71.6561 17.2707 68.4783C15.5193 62.6156 10.202 63.7482 5.51391 65.0278C5.32513 65.0802 5.15732 65.1536 5 65.2375C6.31098 65.678 7.46463 66.58 8.32464 67.9853C8.41903 68.1426 8.46099 68.3105 8.48196 68.4678C10.3593 67.9224 12.3834 67.6707 13.3798 70.0305C14.2607 72.0966 12.6666 74.9073 12.6351 77.0783C12.6037 79.071 12.719 81.7873 14.7117 82.8885C19.2425 85.3846 24.0459 76.8161 26.2588 72.4112C28.4822 74.8968 26.2693 81.3888 27.2866 84.21C27.5383 84.9022 28.3669 85.3217 29.0486 85.3741C33.8939 85.7307 37.7639 77.9278 39.8091 73.3131C41.0152 74.8758 40.9103 78.4522 41.0047 79.7212C41.12 81.4412 41.4661 82.92 42.2108 84.3358C43.0079 82.92 44.0986 81.5985 45.1893 80.4973C44.7279 78.169 45.1369 75.4212 44.3083 73.2607C43.312 70.6597 41.55 68.1951 38.4981 68.3734V68.3839Z" fill="#B793C4"/>
<path d="M185.153 23.4664C185.279 22.7428 185.53 22.0506 185.908 21.4213C185.614 20.2152 185.604 19.0406 185.908 17.845C185.698 17.8764 185.488 17.9813 185.279 18.1806C183.926 19.502 183.097 21.0962 182.741 22.7952C182.394 22.7952 182.059 22.8162 181.713 22.8896C178.168 23.7286 177.99 27.8084 178.42 31.1225C178.598 31.3533 178.787 31.584 178.986 31.7938C179.615 32.4335 180.381 32.444 181.167 32.5489C181.178 32.5384 181.188 32.5279 181.209 32.5174C180.916 31.2274 180.528 29.7067 180.748 28.4482C180.905 27.5777 181.681 26.3086 182.604 25.7528C182.741 27.0323 183.129 28.3118 183.737 29.5179C184.377 30.7764 185.404 32.2133 186.946 31.8986C188.404 31.605 188.886 29.9899 188.761 28.6055C188.582 26.5708 187.041 24.5047 185.142 23.4664H185.153ZM186.621 29.1718C186.621 29.1718 185.394 31.3533 184.691 25.543C184.691 25.543 187.785 27.7455 186.621 29.1718Z" fill="#F04944"/>
<path d="M98.6912 56.3669C98.6912 56.3669 95.6183 56.0313 94.1919 58.2022C94.1919 58.2022 92.839 61.1493 96.5727 66.4771C96.5727 66.4771 98.0724 64.2537 99.9602 64.453C99.9602 64.453 97.3068 60.7613 98.6912 56.3669Z" fill="#E12969"/>
<path d="M121.943 27.8644C120.223 28.5041 117.286 29.899 115.377 29.1963C115.723 28.9551 116.049 28.6929 116.353 28.4098C117.81 27.0463 121.062 22.6519 118.859 20.7117C116.615 18.7505 113.49 22.1485 112.514 23.9C111.665 25.4522 111.56 27.2141 112.22 28.63C110.438 29.1963 108.56 28.9866 107.449 27.1302C106.756 25.9766 106.735 24.4139 106.977 22.8512C107.417 22.5156 107.816 22.1695 108.162 21.7919C109.179 20.7012 112.074 16.3173 109.179 15.6146C106.578 14.9853 105.582 19.7993 105.309 21.8129C104.774 22.18 104.197 22.4946 103.61 22.7463C101.187 23.7741 96.6775 24.2776 95.4714 21.2885C94.8422 21.4458 94.1919 21.4878 93.5731 21.3934C95.0309 26.2702 100.946 26.0919 105.152 23.9734C105.11 26.5849 105.729 29.3641 108.392 30.329C110.049 30.9268 111.843 30.8115 113.469 30.1927C113.92 30.5388 114.454 30.822 115.084 31.0002C116.992 31.5456 118.912 31.0002 120.705 30.329C121.167 30.1612 122.813 29.448 124.512 28.8922C126.494 27.6337 128.487 26.8995 130.836 28.609C130.207 24.288 124.323 26.9729 121.943 27.8644ZM108.623 17.3556C109.987 17.9114 107.218 20.5963 107.218 20.5963C107.344 17.9429 108.623 17.3556 108.623 17.3556ZM113.951 27.8329C113.899 27.7176 113.846 27.6022 113.804 27.4763C113.427 26.3646 114.098 24.7915 114.685 23.8685C115.105 23.2078 116.426 21.771 117.307 22.4946C118.398 23.3966 116.426 25.5466 115.849 26.2388C115.367 26.8156 114.696 27.3819 113.951 27.8434V27.8329Z" fill="#E12969"/>
<path d="M278.757 158.025C278.757 158.025 277.267 160.228 277.729 161.78C277.729 161.78 278.683 163.416 280.466 164.412C280.466 164.412 279.942 161.13 282.144 160.301C282.144 160.301 279.795 159.441 278.757 158.036V158.025Z" fill="#EF9520"/>
<path d="M270.028 285.443C270.028 285.443 268.538 287.645 269 289.198C269 289.198 269.954 290.834 271.737 291.83C271.737 291.83 271.213 288.547 273.415 287.719C273.415 287.719 271.066 286.859 270.028 285.453V285.443Z" fill="#EF9520"/>
<path d="M-3.12429 481.901C-3.12429 481.901 1.1757 485.729 -5.75674 490.899C-5.75674 490.899 7.75157 494.339 20.0748 506.568C20.0748 506.568 24.0077 503.474 25.5913 500.097C25.5913 500.097 18.1765 490.92 -3.11379 481.901H-3.12429Z" fill="#F04944"/>
<path d="M45.5494 206.175C45.5494 206.175 44.4692 208.943 41.5536 211.23C41.5536 211.23 42.1094 212.142 42.7806 212.572C42.7806 212.572 44.9202 211.24 47.3848 206.972C47.3848 206.972 46.4619 207.779 45.5494 206.175Z" fill="#F04944"/>
<path d="M3.70736 33.22C3.70736 33.22 2.62712 35.9888 -0.288498 38.2751C-0.288498 38.2751 0.267356 39.1875 0.938577 39.6175C0.938577 39.6175 3.07809 38.2856 5.54273 34.017C5.54273 34.017 4.6198 34.8246 3.70736 33.22Z" fill="#F04944"/>
<path d="M4.0427 286.716C4.0427 286.716 2.96246 289.485 0.0468445 291.771C0.0468445 291.771 0.602699 292.683 1.27392 293.113C1.27392 293.113 3.41343 291.781 5.87807 287.513C5.87807 287.513 4.95514 288.32 4.0427 286.716Z" fill="#F04944"/>
<path d="M29.8496 173.839C29.8496 173.839 37.9148 172.811 42.9909 175.328C42.9909 175.328 43.5048 170.891 42.4455 167H31.6955C32.0206 169.308 31.6955 171.772 29.8391 173.839H29.8496Z" fill="#EF9520"/>
<path d="M288.72 267.424C288.72 267.424 290.692 270.098 289.118 271.849C289.118 271.849 291.604 271.535 293.167 272.311C293.167 272.311 293.481 269.668 292.359 268.504C292.359 268.504 290.765 267.487 288.72 267.424Z" fill="#EF9520"/>
<path d="M29.5616 482.001C29.5616 482.001 31.5334 484.675 29.9602 486.427C29.9602 486.427 32.4458 486.112 34.0085 486.888C34.0085 486.888 34.3231 484.245 33.2009 483.081C33.2009 483.081 31.6068 482.064 29.5616 482.001Z" fill="#EF9520"/>
<path d="M387.903 259.684C387.127 257.009 385.575 254.408 382.523 254.335C381.118 254.303 380.289 255.436 380.205 256.527C379.209 258.331 376.062 263.753 373.776 265.662C373.954 262.977 375.475 260.156 374.689 257.334C374.017 254.901 372.539 253.223 370.137 252.458C369.329 252.206 368.165 252.279 367.662 253.108C366.403 255.216 365.061 257.24 363.477 259.128C362.502 260.271 360.173 264.718 360.173 261.446C360.173 258.373 362.04 255.919 361.359 252.678C360.1 246.689 354.709 247.371 349.937 248.252C349.749 248.283 349.57 248.346 349.413 248.42C350.682 248.976 351.762 249.972 352.496 251.44C352.58 251.608 352.612 251.776 352.612 251.933C354.521 251.545 356.566 251.472 357.363 253.894C358.065 256.023 356.251 258.698 356.031 260.858C355.831 262.84 355.727 265.567 357.614 266.815C361.925 269.679 367.421 261.54 370.001 257.334C372.014 259.988 369.266 266.28 370.042 269.175C370.231 269.888 371.018 270.371 371.7 270.486C376.492 271.241 381.002 263.795 383.425 259.369C384.495 261.026 384.096 264.581 384.075 265.85C384.054 267.57 384.264 269.081 384.893 270.549C385.806 269.196 387.012 267.98 388.186 266.973C387.924 264.613 388.553 261.918 387.903 259.684Z" fill="#B793C4"/>
<path d="M386.603 216.075C386.603 216.075 373.262 219.998 362.114 212.268C362.114 212.268 357.94 220.354 362.659 226.196C362.659 226.196 369.675 232.531 388.858 227.14C388.858 227.14 384.075 221.046 386.603 216.086V216.075Z" fill="#4EC5D9"/>
<path d="M379.049 531.563C379.049 531.563 373.421 533.174 368.719 530C368.719 530 366.958 533.321 368.949 535.72C368.949 535.72 371.908 538.321 380 536.107C380 536.107 377.983 533.605 379.049 531.568V531.563Z" fill="#4EC5D9"/>
<path d="M359.062 62.2818C359.062 62.2818 350.221 58.9257 334.31 70.9342C334.31 70.9342 340.981 74.8672 340.435 80.4152C340.435 80.4152 351.437 71.9201 364.641 75.0559C364.641 75.0559 365.585 66.005 359.072 62.2818H359.062Z" fill="#E12969"/>
<path d="M319.607 180.616C319.607 180.616 321.211 194.428 311.709 204.109C311.709 204.109 318.977 209.594 325.522 205.923C325.522 205.923 332.958 200.081 330.881 180.259C330.881 180.259 324.064 183.951 319.596 180.616H319.607Z" fill="#B793C4"/>
<path d="M31.6845 281.603C31.6845 281.603 41.3124 291.64 39.6028 305.096C39.6028 305.096 48.7063 305.064 51.7058 298.184C51.7058 298.184 54.097 289.039 40.4524 274.503C40.4524 274.503 37.2536 281.561 31.6845 281.603Z" fill="#B793C4"/>
<path d="M390.641 56.1674C390.641 56.1674 393.934 59.3032 393.388 63.8759C393.388 63.8759 396.472 63.6347 397.468 61.233C397.468 61.233 398.255 58.0866 393.598 53.5454C393.598 53.5454 392.539 56.01 390.641 56.1674Z" fill="#E12969"/>
<path d="M14.1059 440.775C14.1059 440.775 9.64857 441.635 6.24002 438.52C6.24002 438.52 4.64588 441.173 6.01978 443.376C6.01978 443.376 8.11734 445.841 14.5254 444.697C14.5254 444.697 13.141 442.401 14.1059 440.775Z" fill="#E12969"/>
<path d="M299.01 95.36C299.01 95.36 303.006 97.3422 304.37 99.2615C304.37 99.2615 311.166 86.6761 329.918 76.8385L322.661 73C322.661 73 308.575 80.8029 299 95.36H299.01Z" fill="#4EC5D9"/>
<path d="M361.17 182.566C361.17 182.566 362.418 183.185 362.858 183.793C362.858 183.793 364.998 179.84 370.881 176.756L368.606 175.55C368.606 175.55 364.19 177.994 361.18 182.566H361.17Z" fill="#4EC5D9"/>
<path d="M183.233 270.968C183.233 270.968 184.482 271.587 184.922 272.195C184.922 272.195 187.062 268.241 192.945 265.158L190.669 263.952C190.669 263.952 186.243 266.396 183.244 270.968H183.233Z" fill="#4EC5D9"/>
<path d="M279.071 45.1342C279.071 45.1342 284.672 46.4766 281.011 54.311C281.011 54.311 294.541 50.9549 311.174 55.8947C311.174 55.8947 313.167 51.301 312.968 47.5779C312.968 47.5779 302.092 43.0052 279.071 45.1342Z" fill="#F04944"/>
<path d="M360.415 352.851C360.415 352.851 360.772 355.798 359.293 359.196C359.293 359.196 360.216 359.741 361.003 359.794C361.003 359.794 362.261 357.612 362.408 352.683C362.408 352.683 361.978 353.837 360.415 352.851Z" fill="#F04944"/>
<path d="M320.12 225.545C320.12 225.545 320.477 228.493 318.998 231.891C318.998 231.891 319.921 232.436 320.708 232.488C320.708 232.488 321.966 230.307 322.113 225.378C322.113 225.378 321.683 226.531 320.12 225.545Z" fill="#F04944"/>
<path d="M392.885 102.891C392.885 102.891 386.76 102.429 380.813 105.387C380.813 105.387 390.567 110.022 388.763 117.427C388.763 117.427 395.381 112.707 401.044 112.518C401.044 112.518 397.877 104.474 392.874 102.88L392.885 102.891Z" fill="#EF9520"/>
<path d="M313.754 17.0268C313.754 17.0268 311.867 16.8905 310.042 17.7925C310.042 17.7925 313.041 19.2188 312.485 21.4947C312.485 21.4947 314.52 20.0368 316.271 19.9844C316.271 19.9844 315.296 17.5093 313.754 17.0164V17.0268Z" fill="#EF9520"/>
<path d="M330.933 127.306C332.423 121.601 332.559 115.193 327.252 111.648C323.949 109.445 319.942 108.743 316.062 109.215C315.265 108.208 314.247 107.316 312.968 106.582C309.098 104.369 304.599 104.527 300.309 105.041C299.208 105.166 295.222 105.838 291.195 106.152C286.182 107.841 281.42 108.386 277.194 103.373C276.26 113.179 290.587 110.442 296.25 109.792C300.361 109.32 307.525 107.841 311.342 110.4C310.461 110.735 309.601 111.134 308.783 111.585C304.861 113.777 295.38 121.664 299.166 127.086C303.015 132.592 311.699 126.824 314.761 123.51C317.457 120.584 318.621 116.766 317.95 113.326C322.145 113.043 326.161 114.522 327.588 119.168C328.479 122.062 327.693 125.513 326.319 128.796C325.176 129.288 324.116 129.844 323.162 130.474C320.351 132.319 311.646 140.353 317.624 143.437C322.973 146.205 327.745 136.21 329.423 131.952C330.797 131.438 332.223 131.05 333.65 130.83C339.502 129.886 349.644 131.197 350.682 138.402C352.15 138.402 353.598 138.644 354.888 139.199C354.321 127.747 341.274 124.967 330.944 127.327L330.933 127.306ZM310 122.429C308.72 123.656 305.049 126.079 303.529 124.045C301.63 121.496 307.084 117.836 308.731 116.63C310.105 115.623 311.856 114.742 313.744 114.144C313.796 114.417 313.838 114.71 313.87 115.015C314.1 117.657 311.783 120.741 310 122.44V122.429ZM319.774 139.923C317.089 137.972 324.588 133.588 324.588 133.588C322.879 139.315 319.774 139.923 319.774 139.923Z" fill="#EF9520"/>
<path d="M392.162 355.228C392.015 357.064 392.046 360.304 390.61 361.752C390.536 361.343 390.442 360.934 390.305 360.535C389.687 358.637 387.054 353.833 384.38 355.029C381.653 356.235 383.425 360.504 384.611 362.119C385.659 363.545 387.222 364.374 388.774 364.374C388.544 366.23 387.558 367.845 385.408 368.076C384.076 368.212 382.639 367.583 381.328 366.702C381.213 366.167 381.055 365.653 380.866 365.181C380.3 363.797 377.542 359.329 375.696 361.668C374.039 363.765 377.982 366.691 379.692 367.782C379.797 368.422 379.849 369.072 379.818 369.712C379.723 372.344 378.297 376.644 375.067 376.487C374.941 377.127 374.71 377.735 374.364 378.249C379.398 378.983 381.726 373.54 381.569 368.831C383.929 369.964 386.708 370.572 388.701 368.558C389.938 367.31 390.589 365.622 390.714 363.891C391.218 363.629 391.7 363.262 392.13 362.769C393.42 361.269 393.735 359.298 393.882 357.389C393.924 356.896 393.966 355.102 394.175 353.33C393.871 351.002 394.039 348.883 396.577 347.467C392.382 346.219 392.361 352.701 392.162 355.218V355.228ZM377.028 362.905C378.108 361.909 379.377 365.548 379.377 365.548C377.028 364.311 377.028 362.905 377.028 362.905ZM388.386 362.465C387.212 362.339 386.068 361.07 385.481 360.147C385.062 359.486 384.317 357.682 385.334 357.189C386.603 356.581 387.736 359.266 388.124 360.095C388.449 360.776 388.68 361.615 388.785 362.486C388.659 362.486 388.533 362.486 388.397 362.465H388.386Z" fill="#E12969"/>
<path d="M379.388 416.152C379.849 412.849 386.247 410.363 387.747 407.773C388.114 407.133 387.904 406.231 387.506 405.675C384.663 401.742 376.2 403.808 371.354 405.203C371.774 403.273 374.574 401.05 375.486 400.169C376.724 398.973 377.636 397.757 378.245 396.278C376.651 396.582 374.931 396.593 373.389 396.467C371.9 398.313 369.54 399.771 368.418 401.805C367.075 404.238 366.32 407.175 368.418 409.398C369.383 410.416 370.767 410.206 371.606 409.493C373.588 408.926 379.65 407.332 382.618 407.605C380.584 409.377 377.511 410.29 376.063 412.828C374.815 415.02 374.658 417.254 375.822 419.488C376.21 420.243 377.091 421.008 378.024 420.778C380.405 420.18 382.786 419.697 385.24 419.498C386.74 419.372 391.533 417.893 389.215 420.211C387.044 422.382 383.982 422.791 382.167 425.55C378.811 430.657 383.101 434.003 387.086 436.772C387.243 436.887 387.411 436.96 387.579 437.023C387.075 435.733 387.023 434.265 387.547 432.713C387.61 432.534 387.705 432.398 387.82 432.283C386.195 431.203 384.705 429.808 385.859 427.532C386.876 425.529 390.044 424.941 391.732 423.567C393.274 422.309 395.277 420.463 394.836 418.24C393.83 413.163 384.181 415.009 379.377 416.152H379.388Z" fill="#EF9520"/>
<path d="M367.263 14.9819C365.994 16.7019 364.515 18.7785 362.743 19.8063C361.505 20.5194 359.114 20.855 357.436 20.2572C358.862 18.747 360.027 16.9326 360.866 14.877C361.736 12.748 362.407 9.94771 360.373 8.30112C358.453 6.74892 355.947 7.81868 354.374 9.41283C352.056 11.7621 351.154 15.8733 351.909 19.3763C350.881 19.9845 349.77 20.3726 348.584 20.5509C347.41 22.1765 345.983 23.4246 344.19 24.2846C344.463 24.5153 344.809 24.6831 345.26 24.7355C348.333 25.0816 351.185 24.4838 353.64 23.1624C353.996 23.6028 354.395 24.0224 354.856 24.3685C359.67 28.0182 364.893 23.9909 368.511 19.9845C368.606 19.5126 368.69 19.0406 368.721 18.5687C368.836 17.1004 368.029 16.1041 367.326 15.0028C367.295 15.0028 367.274 15.0028 367.242 14.9923L367.263 14.9819ZM357.394 11.5628C357.394 11.5628 361.401 10.8497 354.972 17.8031C354.972 17.8031 354.384 11.5628 357.394 11.5628Z" fill="#4EC5D9"/>
<path d="M223.685 21.8093C223.685 21.8093 222.678 22.1659 222.122 22.7323C222.122 22.7323 222.982 25.092 226.653 28.3852C226.653 28.3852 226.055 27.3154 227.807 26.7491C227.807 26.7491 225.321 25.1235 223.675 21.8093H223.685Z" fill="#F04944"/>
<path d="M380.735 157.616C379.938 158.675 379.015 159.944 377.914 160.584C377.148 161.025 375.68 161.255 374.652 160.909C375.544 159.986 376.267 158.864 376.802 157.616C377.358 156.316 377.788 154.606 376.561 153.62C375.397 152.697 373.845 153.369 372.869 154.344C371.422 155.791 370.835 158.298 371.275 160.427C370.635 160.804 369.954 161.056 369.22 161.171C368.485 162.168 367.594 162.944 366.493 163.479C366.65 163.615 366.87 163.72 367.143 163.741C369.02 163.93 370.782 163.531 372.303 162.713C372.523 162.975 372.754 163.227 373.037 163.437C375.963 165.618 379.194 163.122 381.459 160.647C381.522 160.364 381.574 160.07 381.606 159.787C381.69 158.896 381.197 158.298 380.777 157.627C380.756 157.627 380.746 157.627 380.725 157.627L380.735 157.616ZM374.705 155.623C374.705 155.623 377.169 155.162 373.163 159.43C373.163 159.43 372.859 155.644 374.705 155.623Z" fill="#F04944"/>
<path d="M281.153 -7C281.153 -7 280.503 1.10708 277 5.55391C277 5.55391 285.201 8.31221 289.627 5.51196C289.627 5.51196 293.927 1.11757 295.49 -5.33244C295.49 -5.33244 285.663 -0.854139 281.153 -7Z" fill="#EF9520"/>
<path d="M-0.475609 400.025C-0.475609 400.025 2.67074 407.104 -1 411.3C-1 411.3 12.8964 410.775 21.811 421.001C21.811 421.001 27.8415 414.184 24.6952 407.367C24.6952 407.367 19.4512 399.501 -0.475609 400.025Z" fill="#E12969"/>
<path d="M203.579 67.9V130H193.139V79.15L184.229 85.27V74.74L193.769 67.9H203.579Z" fill="url(#paint0_linear_220_877)"/>
<path d="M216.446 22.4001C215.438 22.4001 214.612 23.2261 214.612 24.2341C214.612 24.8221 214.906 25.3261 215.34 25.6621C203.132 41.2021 200.15 40.3481 197.28 20.7761C198.162 20.6501 198.862 19.9221 198.862 18.9981C198.862 17.9901 198.036 17.1641 197.028 17.1641C196.02 17.1641 195.194 17.9901 195.194 18.9981C195.194 19.9221 195.88 20.6501 196.776 20.7761C193.892 40.3621 190.924 41.2021 178.716 25.6621C179.15 25.3261 179.444 24.8221 179.444 24.2341C179.444 23.2261 178.618 22.4001 177.61 22.4001C176.602 22.4001 175.776 23.2261 175.776 24.2341C175.776 25.2421 176.602 26.0681 177.61 26.0681C177.848 26.0681 178.072 26.0121 178.268 25.9281C181.684 35.2941 182.762 48.9021 182.762 48.9021H211.308C211.308 48.9021 212.386 35.2941 215.802 25.9281C216.012 26.0121 216.236 26.0681 216.46 26.0681C217.468 26.0681 218.294 25.2421 218.294 24.2341C218.294 23.2261 217.468 22.4001 216.46 22.4001H216.446ZM197.014 45.9621L193.962 41.0761L197.014 36.1901L200.066 41.0761L197.014 45.9621Z" fill="url(#paint1_linear_220_877)"/>
<path d="M285.83 116.48C284.486 117.25 283.184 117.726 281.924 118.048C280.65 118.37 279.404 118.552 278.214 118.72C275.82 119.056 273.664 119.392 271.578 120.554C270.192 121.338 269.156 122.08 268.344 122.766C268.12 122.962 267.924 123.144 267.742 123.34C268.834 120.036 269.716 116.662 270.332 113.246C270.5 112.168 270.654 111.076 270.808 109.998C270.962 110.432 271.2 110.81 271.508 111.118C272.194 111.79 273.37 112.308 274.952 112.182C275.75 112.126 276.646 111.902 277.654 111.454C278.648 110.992 279.782 110.306 280.93 109.284C281.77 108.528 282.624 107.576 283.352 106.512C284.08 105.448 284.738 104.272 285.312 103.11C285.844 101.948 286.292 100.786 286.628 99.75C286.978 98.714 287.146 97.818 287.244 97.174C287.314 96.684 286.726 96.39 286.362 96.726C285.298 97.678 284.206 98.364 283.128 98.924C282.05 99.47 280.944 99.89 279.908 100.296C277.794 101.094 275.904 101.836 274.266 103.334C273.16 104.328 272.376 105.224 271.802 106.022C271.536 106.386 271.326 106.722 271.158 107.058C271.34 105.378 271.466 103.698 271.48 102.018L271.592 99.19L271.494 96.362C271.494 95.214 271.396 94.066 271.284 92.918C271.522 93.31 271.83 93.618 272.194 93.842C272.95 94.304 274.112 94.514 275.526 94.08C276.226 93.856 276.996 93.478 277.808 92.848C278.214 92.54 278.634 92.176 279.054 91.728C279.46 91.294 279.88 90.79 280.3 90.216C280.902 89.362 281.49 88.34 281.924 87.234C282.358 86.128 282.722 84.938 283.002 83.776C283.24 82.628 283.408 81.494 283.506 80.5C283.618 79.506 283.59 78.666 283.548 78.064C283.506 77.616 282.932 77.462 282.666 77.84C281.896 78.918 281.056 79.744 280.188 80.458C279.32 81.172 278.41 81.76 277.542 82.334C275.792 83.482 274.238 84.532 273.062 86.212C272.264 87.346 271.732 88.298 271.396 89.138C271.228 89.544 271.102 89.908 271.018 90.258C270.85 88.522 270.486 86.828 270.234 85.106C269.898 83.244 269.408 81.424 268.988 79.59C268.708 78.596 268.4 77.616 268.092 76.622C268.372 76.888 268.694 77.084 269.016 77.196C269.786 77.448 270.864 77.392 272.054 76.706C272.642 76.356 273.258 75.852 273.86 75.124C274.462 74.396 275.022 73.472 275.54 72.268C276.338 70.49 276.632 68.166 276.66 65.982C276.66 64.904 276.59 63.868 276.478 62.972C276.38 62.062 276.198 61.32 276.044 60.802C275.932 60.41 275.372 60.396 275.204 60.774C274.238 62.986 272.81 64.428 271.48 65.8C270.136 67.172 268.932 68.432 268.232 70.168C267.742 71.344 267.448 72.324 267.322 73.136C267.266 73.458 267.252 73.752 267.238 74.032C266.636 72.296 265.964 70.574 265.208 68.908C264.102 66.402 262.87 63.952 261.512 61.572C261.722 61.642 261.932 61.698 262.142 61.712C262.898 61.768 263.836 61.502 264.746 60.648C265.642 59.794 266.482 58.366 266.944 56C267.126 55.118 267.14 54.18 267.098 53.186C267.042 52.206 266.93 51.17 266.706 50.232C266.496 49.28 266.244 48.37 265.978 47.6C265.698 46.83 265.418 46.2 265.18 45.766C264.998 45.444 264.508 45.542 264.424 45.906C263.962 48.062 262.996 49.616 262.058 51.1C261.134 52.584 260.28 53.956 260.014 55.636C259.818 56.77 259.734 57.708 259.79 58.478C259.79 58.59 259.818 58.66 259.832 58.758C257.872 55.622 255.674 52.626 253.252 49.826C252.79 49.294 252.314 48.762 251.838 48.23C251.88 48.23 251.922 48.23 251.964 48.23C252.636 48.132 253.42 47.698 254.036 46.76C254.652 45.822 255.142 44.366 255.058 42.21C254.988 39.046 252.762 34.874 251.572 33.558C251.362 33.306 250.942 33.488 250.942 33.838C250.942 35.826 250.354 37.394 249.836 38.864C249.29 40.348 248.814 41.734 248.884 43.274C248.912 43.792 248.954 44.254 249.024 44.674C249.066 44.954 249.122 45.178 249.164 45.416C247.722 43.974 246.224 42.602 244.684 41.286C244.796 40.866 244.824 40.39 244.684 39.844C244.558 39.382 244.32 38.892 243.928 38.36C243.536 37.842 242.99 37.282 242.248 36.764C241.702 36.372 241.044 36.036 240.344 35.742C239.644 35.462 238.888 35.252 238.16 35.084C236.718 34.72 235.346 34.678 234.618 34.72C234.338 34.734 234.212 35.14 234.436 35.322C235.052 35.854 235.528 36.428 235.92 37.002C236.312 37.59 236.62 38.206 236.928 38.78C237.53 39.942 238.09 40.978 239.112 41.734C239.798 42.238 240.428 42.56 240.974 42.77C241.52 42.994 242.01 43.064 242.458 43.05C242.976 43.036 243.396 42.868 243.746 42.63C246.686 45.192 249.43 47.964 251.936 50.946C252.636 51.772 253.308 52.612 253.966 53.452C253.826 53.41 253.714 53.354 253.56 53.312C250.718 52.598 248.072 54.404 244.628 54.502C244.334 54.502 244.096 54.894 244.264 55.076C245.202 56.028 248.03 58.156 250.676 58.87C254.162 59.85 256.29 58.898 257.004 57.708C258.908 60.592 260.602 63.63 262.1 66.752C262.086 66.752 262.072 66.738 262.044 66.724C261.694 66.542 261.33 66.402 260.966 66.29C260.588 66.192 260.21 66.122 259.818 66.08C259.048 65.996 258.236 66.01 257.424 66.038C256.598 66.066 255.758 66.122 254.89 66.122C254.008 66.122 253.098 66.094 252.188 65.926C251.866 65.87 251.516 66.22 251.656 66.458C252.44 67.662 254.932 70.588 257.592 71.974C258.488 72.45 259.328 72.772 260.084 72.968C260.854 73.164 261.512 73.262 262.114 73.234C263.192 73.206 264.018 72.842 264.55 72.366C265.712 75.376 266.65 78.47 267.378 81.606C266.062 80.472 264.382 80.108 262.618 79.786C261.736 79.632 260.826 79.492 259.888 79.296C258.95 79.1 257.984 78.862 257.046 78.484C256.724 78.358 256.262 78.652 256.346 78.932C256.892 80.374 258.866 84.014 261.33 86.114C263.038 87.528 264.536 88.298 265.838 88.55C266.986 88.788 267.938 88.606 268.638 88.242C269.072 91.35 269.282 94.5 269.324 97.636C269.324 97.636 269.324 97.636 269.31 97.622C268.736 96.866 268.05 96.278 267.266 95.802C266.468 95.326 265.6 94.934 264.704 94.556C263.808 94.178 262.87 93.814 261.932 93.394C260.98 92.974 260.028 92.484 259.118 91.882C258.81 91.672 258.25 91.882 258.278 92.176C258.306 92.582 258.446 93.156 258.628 93.828C258.796 94.5 259.034 95.27 259.356 96.082C259.93 97.706 260.77 99.484 261.806 100.87C262.17 101.346 262.534 101.78 262.898 102.158C263.248 102.55 263.598 102.886 263.934 103.194C264.634 103.796 265.32 104.244 265.964 104.538C267.168 105.084 268.246 105.14 269.072 104.888C268.862 107.548 268.512 110.194 268.05 112.812C267.952 113.288 267.854 113.764 267.742 114.24C267.686 114.1 267.644 113.974 267.574 113.848C267.154 112.91 266.552 112.14 265.866 111.454C265.152 110.754 264.326 110.152 263.458 109.55C262.59 108.948 261.694 108.346 260.812 107.688C259.902 107.03 259.02 106.302 258.194 105.462C257.914 105.168 257.284 105.252 257.242 105.574C257.186 106.008 257.186 106.638 257.228 107.366C257.242 108.094 257.326 108.948 257.466 109.858C257.564 110.754 257.732 111.72 257.998 112.672C258.208 113.61 258.502 114.548 258.908 115.402C259.44 116.564 259.972 117.53 260.574 118.342C261.176 119.154 261.778 119.784 262.38 120.26C263.584 121.212 264.816 121.534 265.796 121.422C265.81 121.422 265.824 121.422 265.838 121.422C264.816 124.614 263.57 127.722 262.128 130.746C262.086 130.438 262.044 130.116 261.988 129.78C261.806 128.716 261.344 127.736 260.784 126.84C260.21 125.944 259.538 125.118 258.782 124.264C258.026 123.424 257.228 122.57 256.458 121.66C256.08 121.212 255.702 120.736 255.338 120.26C254.96 119.77 254.61 119.252 254.274 118.72C254.05 118.356 253.364 118.272 253.252 118.608C253.168 118.832 253.098 119.098 253.028 119.406C252.944 119.714 252.86 120.064 252.79 120.442C252.65 121.212 252.538 122.108 252.426 123.06C252.384 123.536 252.342 124.04 252.328 124.558C252.3 125.062 252.272 125.58 252.286 126.098C252.286 126.616 252.328 127.134 252.37 127.652C252.398 128.156 252.468 128.66 252.566 129.15C252.692 129.822 252.846 130.438 253.014 131.026C253.168 131.6 253.35 132.132 253.546 132.622C253.938 133.602 254.414 134.428 254.932 135.086C255.954 136.402 257.144 137.06 258.194 137.186C258.348 137.2 258.502 137.186 258.656 137.186C256.836 140.21 254.806 143.094 252.58 145.824C252.706 145.236 252.79 144.592 252.832 143.878C252.888 142.702 252.678 141.61 252.328 140.546C251.95 139.468 251.418 138.418 250.858 137.368C249.738 135.268 248.366 133.056 247.54 130.55C247.386 130.102 246.714 129.878 246.504 130.172C246.224 130.564 245.902 131.18 245.594 131.936C245.272 132.692 244.894 133.56 244.6 134.54C244.25 135.492 243.97 136.556 243.718 137.606C243.452 138.656 243.312 139.776 243.242 140.812C243.116 143.696 243.466 145.908 244.194 147.532C244.922 149.156 245.986 150.15 247.036 150.556C247.386 150.696 247.792 150.78 248.198 150.794C248.086 150.906 247.988 151.018 247.89 151.13C245.23 153.79 242.374 156.24 239.364 158.452C239.532 158.172 239.714 157.864 239.868 157.528C240.176 156.912 240.428 156.184 240.68 155.386C240.862 154.798 240.96 154.21 241.002 153.608C241.044 153.006 241.016 152.404 240.96 151.802C240.834 150.598 240.554 149.408 240.232 148.176C239.882 146.93 239.49 145.67 239.168 144.368C238.846 143.08 238.552 141.722 238.398 140.322C238.342 139.832 237.698 139.412 237.418 139.678C237.054 140.028 236.606 140.588 236.074 141.26C235.822 141.596 235.556 141.988 235.29 142.394C235.01 142.8 234.716 143.22 234.436 143.682C233.89 144.606 233.302 145.572 232.812 146.622C232.308 147.658 231.846 148.708 231.552 149.8C231.118 151.242 230.866 152.572 230.768 153.776C230.656 154.952 230.698 156.016 230.866 156.94C231.202 158.788 232.042 160.104 233.022 160.79C233.554 161.168 234.212 161.42 234.94 161.462C227.282 166.292 218.77 169.736 209.908 171.542H209.894C209.026 171.724 208.48 172.578 208.662 173.432C208.844 174.3 209.698 174.846 210.552 174.664C217.258 173.236 223.754 170.898 229.844 167.776C229.83 168.882 230.208 170.212 231.272 171.542C232.56 173.138 234.884 174.79 238.874 175.686C240.358 176.036 241.996 176.106 243.746 176.078C244.628 176.078 245.482 175.952 246.364 175.854C247.232 175.728 248.128 175.602 248.968 175.42C252.37 174.692 255.394 173.46 256.934 172.578C257.522 172.228 257.368 171.388 256.724 171.29C254.876 171.024 253.266 170.436 251.824 169.764C250.382 169.092 249.094 168.322 247.862 167.566C246.63 166.81 245.426 166.054 244.194 165.452C242.948 164.836 241.702 164.388 240.288 164.094C239.028 163.842 237.95 163.702 236.984 163.632C239.91 161.728 242.696 159.614 245.342 157.332C245.468 158.48 246.098 159.852 247.596 161C248.366 161.588 249.374 162.106 250.676 162.498C251.32 162.694 252.048 162.848 252.846 162.96C253.644 163.058 254.512 163.1 255.478 163.086C256.178 163.086 256.934 163.002 257.69 162.89C258.446 162.764 259.216 162.582 260 162.372C260.784 162.148 261.582 161.91 262.352 161.616C263.122 161.322 263.878 160.986 264.62 160.65C267.56 159.264 270.052 157.514 271.256 156.38C271.718 155.946 271.41 155.218 270.794 155.26C267.252 155.484 264.48 154.588 261.862 153.72C259.258 152.852 256.878 152.068 254.162 152.18C252.65 152.264 251.39 152.39 250.326 152.614C253.042 149.758 255.548 146.692 257.802 143.458C257.83 143.64 257.858 143.808 257.914 143.976C258.278 145.026 259.16 146.16 260.84 146.902C261.68 147.266 262.702 147.518 263.976 147.574C265.222 147.63 266.762 147.518 268.484 147.056C271.046 146.398 273.888 144.76 276.254 142.87C278.634 140.994 280.496 138.866 281.364 137.592C281.686 137.102 281.224 136.5 280.678 136.668C279.11 137.158 277.612 137.326 276.198 137.354C274.798 137.382 273.468 137.27 272.194 137.158C269.646 136.934 267.238 136.696 264.844 137.424C263.192 137.886 261.904 138.376 260.924 138.908C260.84 138.95 260.77 138.992 260.686 139.048C262.968 135.268 264.928 131.306 266.524 127.204C266.608 127.54 266.748 127.848 266.916 128.114C267.462 128.982 268.526 129.808 270.22 130.102C271.928 130.382 274.21 130.102 277.192 128.548C278.284 127.974 279.348 127.148 280.412 126.21C281.476 125.272 282.414 124.18 283.296 123.074C285.018 120.862 286.292 118.566 286.768 117.222C286.964 116.718 286.418 116.27 285.956 116.536L285.83 116.48Z" fill="url(#paint2_linear_220_877)"/>
<path d="M184.26 171.514H184.246C175.384 169.694 166.872 166.25 159.214 161.434C159.942 161.406 160.6 161.14 161.132 160.762C162.112 160.076 162.952 158.774 163.288 156.912C163.456 155.988 163.498 154.924 163.386 153.748C163.288 152.544 163.036 151.214 162.602 149.772C162.308 148.666 161.846 147.63 161.342 146.594C160.852 145.544 160.264 144.592 159.718 143.654C159.438 143.192 159.144 142.772 158.864 142.366C158.598 141.946 158.332 141.568 158.08 141.232C157.548 140.56 157.1 140 156.736 139.65C156.456 139.384 155.812 139.804 155.756 140.294C155.602 141.694 155.308 143.052 154.986 144.34C154.65 145.642 154.272 146.902 153.922 148.148C153.586 149.38 153.306 150.57 153.194 151.774C153.138 152.376 153.11 152.978 153.152 153.58C153.194 154.168 153.306 154.756 153.474 155.358C153.712 156.156 153.978 156.884 154.286 157.5C154.454 157.836 154.622 158.13 154.79 158.424C151.766 156.198 148.91 153.762 146.264 151.102C146.152 150.99 146.054 150.878 145.956 150.766C146.362 150.766 146.754 150.668 147.118 150.528C148.168 150.122 149.232 149.128 149.96 147.504C150.688 145.88 151.052 143.668 150.912 140.784C150.842 139.748 150.702 138.614 150.436 137.578C150.184 136.514 149.904 135.45 149.554 134.512C149.246 133.532 148.882 132.65 148.56 131.908C148.252 131.152 147.93 130.536 147.65 130.144C147.44 129.85 146.768 130.074 146.614 130.522C145.788 133.028 144.416 135.24 143.296 137.34C142.722 138.39 142.204 139.44 141.826 140.518C141.476 141.582 141.266 142.674 141.322 143.85C141.35 144.564 141.448 145.208 141.574 145.796C139.348 143.066 137.318 140.168 135.498 137.158C135.652 137.158 135.806 137.172 135.96 137.158C137.01 137.018 138.2 136.36 139.222 135.058C139.74 134.4 140.216 133.588 140.608 132.594C140.804 132.104 140.986 131.572 141.14 130.998C141.308 130.424 141.462 129.794 141.588 129.122C141.686 128.632 141.742 128.128 141.77 127.624C141.812 127.106 141.854 126.588 141.854 126.07C141.854 125.552 141.84 125.034 141.812 124.53C141.798 124.012 141.77 123.522 141.714 123.032C141.602 122.08 141.49 121.17 141.35 120.414C141.28 120.036 141.196 119.686 141.112 119.378C141.042 119.07 140.972 118.804 140.888 118.58C140.776 118.258 140.09 118.328 139.866 118.692C139.53 119.224 139.18 119.742 138.802 120.232C138.452 120.722 138.074 121.184 137.682 121.632C136.912 122.542 136.114 123.382 135.358 124.236C134.602 125.076 133.916 125.916 133.356 126.812C132.796 127.708 132.334 128.674 132.152 129.752C132.096 130.088 132.04 130.41 132.012 130.718C130.57 127.694 129.324 124.586 128.302 121.394C128.316 121.394 128.33 121.394 128.344 121.394C129.324 121.506 130.556 121.184 131.76 120.232C132.362 119.756 132.964 119.126 133.566 118.314C134.168 117.502 134.7 116.536 135.232 115.374C135.638 114.52 135.932 113.582 136.142 112.644C136.394 111.692 136.562 110.74 136.674 109.83C136.814 108.92 136.898 108.066 136.912 107.338C136.954 106.596 136.954 105.98 136.898 105.546C136.856 105.224 136.226 105.14 135.946 105.434C135.134 106.274 134.238 107.002 133.328 107.66C132.446 108.318 131.55 108.92 130.682 109.522C129.828 110.124 129.002 110.74 128.274 111.426C127.574 112.112 126.986 112.882 126.566 113.82C126.496 113.96 126.454 114.086 126.398 114.212C126.3 113.736 126.188 113.26 126.09 112.784C125.614 110.166 125.278 107.52 125.068 104.86C125.894 105.098 126.972 105.056 128.176 104.51C128.834 104.216 129.52 103.768 130.206 103.166C130.556 102.858 130.906 102.522 131.242 102.13C131.592 101.738 131.97 101.318 132.334 100.842C133.37 99.4419 134.21 97.6639 134.784 96.0539C135.106 95.2419 135.344 94.4719 135.512 93.7999C135.694 93.1279 135.834 92.5539 135.862 92.1479C135.89 91.8399 135.33 91.6439 135.022 91.8539C134.112 92.4699 133.16 92.9459 132.208 93.3659C131.284 93.7859 130.346 94.1499 129.436 94.5279C128.54 94.9059 127.672 95.2839 126.874 95.7739C126.09 96.2499 125.404 96.8379 124.83 97.5939C124.83 97.5939 124.83 97.5939 124.816 97.6079C124.858 94.4579 125.082 91.3219 125.502 88.2139C126.188 88.5779 127.14 88.7459 128.302 88.5219C129.604 88.2559 131.088 87.4999 132.81 86.0859C135.274 83.9859 137.234 80.3459 137.794 78.9039C137.878 78.6239 137.43 78.3299 137.094 78.4559C136.156 78.8339 135.19 79.0859 134.252 79.2679C133.328 79.4639 132.418 79.6039 131.522 79.7579C129.758 80.0659 128.064 80.4439 126.762 81.5779C127.49 78.4419 128.428 75.3479 129.59 72.3379C130.136 72.8139 130.948 73.1779 132.026 73.2059C132.628 73.2199 133.3 73.1359 134.056 72.9399C134.826 72.7439 135.652 72.4219 136.548 71.9459C139.208 70.5599 141.7 67.6339 142.484 66.4299C142.624 66.1919 142.274 65.8419 141.952 65.8979C141.028 66.0659 140.132 66.1079 139.25 66.0939C138.368 66.0939 137.542 66.0379 136.716 66.0099C135.89 65.9819 135.092 65.9679 134.322 66.0519C133.93 66.0939 133.552 66.1639 133.174 66.2619C132.81 66.3739 132.446 66.5139 132.096 66.6959C132.082 66.6959 132.068 66.7099 132.04 66.7239C133.538 63.6019 135.232 60.5779 137.136 57.6799C137.85 58.8699 139.978 59.8219 143.464 58.8419C146.11 58.1279 148.938 55.9999 149.876 55.0479C150.044 54.8659 149.806 54.4879 149.512 54.4739C146.068 54.3759 143.422 52.5839 140.58 53.2839C140.426 53.3259 140.314 53.3819 140.174 53.4239C140.832 52.5699 141.504 51.7299 142.204 50.9179C144.71 47.9499 147.468 45.1639 150.394 42.6019C150.744 42.8399 151.164 43.0079 151.682 43.0219C152.116 43.0359 152.606 42.9519 153.166 42.7419C153.726 42.5319 154.342 42.2099 155.028 41.7059C156.036 40.9359 156.61 39.9139 157.212 38.7519C157.52 38.1779 157.828 37.5619 158.22 36.9739C158.612 36.3999 159.088 35.8259 159.704 35.2939C159.914 35.1119 159.802 34.7199 159.522 34.6919C158.78 34.6499 157.422 34.6919 155.98 35.0559C155.252 35.2239 154.496 35.4339 153.796 35.7139C153.096 36.0079 152.438 36.3439 151.892 36.7359C151.136 37.2539 150.604 37.7999 150.212 38.3319C149.82 38.8499 149.582 39.3539 149.456 39.8159C149.316 40.3619 149.344 40.8379 149.456 41.2579C147.916 42.5739 146.404 43.9599 144.976 45.3879C145.032 45.1499 145.088 44.9259 145.116 44.6459C145.172 44.2259 145.228 43.7639 145.256 43.2459C145.34 41.7059 144.85 40.3199 144.304 38.8359C143.786 37.3659 143.198 35.7839 143.198 33.8099C143.198 33.4599 142.778 33.2779 142.568 33.5299C141.378 34.8319 139.152 39.0179 139.082 42.1819C139.012 44.3239 139.488 45.7939 140.104 46.7319C140.734 47.6699 141.518 48.1039 142.176 48.2019C142.218 48.2019 142.26 48.2019 142.302 48.2019C141.826 48.7339 141.35 49.2519 140.888 49.7979C138.466 52.5979 136.268 55.5939 134.308 58.7299C134.308 58.6319 134.336 58.5479 134.35 58.4499C134.392 57.6939 134.308 56.7419 134.126 55.6079C133.86 53.9279 133.006 52.5559 132.082 51.0719C131.144 49.5879 130.178 48.0339 129.716 45.8779C129.632 45.4999 129.142 45.4019 128.96 45.7379C128.722 46.1719 128.442 46.8019 128.162 47.5719C127.896 48.3559 127.644 49.2519 127.434 50.2039C127.21 51.1419 127.098 52.1779 127.042 53.1579C127 54.1519 127.014 55.0899 127.196 55.9719C127.658 58.3239 128.498 59.7659 129.394 60.6199C130.304 61.4739 131.242 61.7399 131.998 61.6839C132.208 61.6699 132.418 61.6139 132.628 61.5439C131.27 63.9239 130.038 66.3739 128.932 68.8799C128.176 70.5599 127.518 72.2679 126.902 74.0039C126.888 73.7239 126.86 73.4299 126.818 73.1079C126.692 72.2819 126.398 71.3019 125.908 70.1399C125.208 68.4039 123.99 67.1439 122.66 65.7719C121.316 64.3999 119.902 62.9439 118.936 60.7459C118.768 60.3679 118.208 60.3679 118.096 60.7739C117.942 61.3059 117.76 62.0479 117.662 62.9439C117.564 63.8399 117.494 64.8899 117.48 65.9539C117.522 68.1379 117.816 70.4479 118.6 72.2399C119.118 73.4439 119.678 74.3679 120.28 75.0959C120.882 75.8239 121.498 76.3279 122.086 76.6779C123.262 77.3639 124.34 77.4199 125.124 77.1679C125.46 77.0559 125.768 76.8599 126.048 76.5939C125.74 77.5739 125.432 78.5679 125.152 79.5619C124.732 81.3959 124.242 83.2299 123.906 85.0779C123.654 86.7999 123.276 88.4939 123.108 90.2299C123.024 89.8799 122.898 89.5159 122.73 89.1099C122.394 88.2699 121.862 87.3039 121.064 86.1839C119.888 84.5039 118.334 83.4539 116.584 82.3059C115.716 81.7319 114.82 81.1439 113.938 80.4299C113.07 79.7159 112.23 78.8759 111.46 77.8119C111.194 77.4339 110.606 77.5879 110.578 78.0359C110.536 78.6379 110.508 79.4779 110.62 80.4719C110.718 81.4659 110.886 82.5999 111.124 83.7479C111.404 84.9099 111.768 86.0999 112.202 87.2059C112.636 88.3119 113.21 89.3479 113.826 90.1879C114.246 90.7619 114.666 91.2659 115.072 91.6999C115.492 92.1339 115.912 92.4979 116.318 92.8199C117.13 93.4359 117.9 93.8279 118.6 94.0519C120.014 94.4859 121.162 94.2759 121.932 93.8139C122.296 93.5899 122.604 93.2819 122.842 92.8899C122.73 94.0379 122.646 95.1859 122.632 96.3339L122.534 99.1619L122.646 101.99C122.646 103.684 122.786 105.364 122.968 107.03C122.8 106.694 122.59 106.358 122.324 105.994C121.75 105.196 120.966 104.3 119.86 103.306C118.222 101.822 116.332 101.066 114.218 100.268C113.168 99.8619 112.076 99.4559 110.998 98.8959C109.92 98.3499 108.828 97.6639 107.764 96.6979C107.4 96.3619 106.812 96.6559 106.882 97.1459C106.98 97.7899 107.148 98.6999 107.498 99.7219C107.834 100.758 108.282 101.906 108.814 103.082C109.388 104.244 110.046 105.42 110.774 106.484C111.516 107.548 112.356 108.514 113.196 109.256C114.33 110.278 115.464 110.978 116.472 111.426C117.48 111.888 118.376 112.098 119.174 112.154C120.756 112.266 121.932 111.748 122.618 111.09C122.926 110.782 123.164 110.404 123.318 109.97C123.472 111.048 123.626 112.14 123.794 113.218C124.424 116.648 125.292 120.008 126.384 123.312C126.202 123.13 126.006 122.934 125.782 122.738C124.97 122.052 123.934 121.31 122.548 120.526C120.462 119.364 118.306 119.028 115.912 118.692C114.722 118.524 113.49 118.342 112.202 118.02C110.942 117.698 109.64 117.222 108.296 116.452C107.834 116.186 107.288 116.634 107.484 117.138C107.96 118.482 109.248 120.778 110.956 122.99C111.852 124.082 112.79 125.188 113.84 126.126C114.904 127.064 115.968 127.89 117.06 128.464C120.056 130.032 122.324 130.312 124.032 130.018C125.726 129.738 126.804 128.898 127.336 128.03C127.504 127.75 127.644 127.442 127.728 127.12C129.338 131.222 131.298 135.184 133.566 138.964C133.482 138.922 133.412 138.88 133.328 138.824C132.348 138.292 131.046 137.802 129.408 137.34C127.014 136.612 124.592 136.85 122.058 137.074C120.784 137.186 119.454 137.298 118.054 137.27C116.654 137.242 115.142 137.074 113.574 136.584C113.028 136.416 112.58 137.018 112.888 137.508C113.756 138.782 115.618 140.91 117.998 142.786C120.35 144.69 123.206 146.314 125.768 146.972C127.49 147.434 129.016 147.546 130.276 147.49C131.536 147.434 132.572 147.182 133.412 146.818C135.106 146.076 135.988 144.956 136.338 143.892C136.394 143.724 136.422 143.542 136.45 143.374C138.704 146.608 141.21 149.674 143.926 152.53C142.862 152.32 141.602 152.18 140.09 152.096C137.374 151.984 134.994 152.768 132.39 153.636C129.772 154.504 127 155.414 123.458 155.176C122.842 155.134 122.534 155.876 122.996 156.296C124.2 157.43 126.692 159.18 129.632 160.566C130.374 160.902 131.13 161.238 131.9 161.532C132.67 161.84 133.468 162.064 134.252 162.288C135.036 162.498 135.806 162.68 136.562 162.806C137.332 162.918 138.074 162.988 138.774 163.002C139.74 163.016 140.608 162.974 141.406 162.876C142.204 162.764 142.932 162.61 143.576 162.414C144.878 162.036 145.872 161.504 146.656 160.916C148.154 159.768 148.798 158.41 148.91 157.248C151.542 159.53 154.342 161.644 157.268 163.548C156.302 163.618 155.224 163.758 153.964 164.01C152.55 164.29 151.29 164.738 150.058 165.368C148.826 165.97 147.622 166.726 146.39 167.482C145.158 168.238 143.87 169.008 142.428 169.68C140.986 170.352 139.376 170.926 137.528 171.206C136.884 171.304 136.73 172.144 137.318 172.494C138.858 173.39 141.896 174.608 145.284 175.336C146.124 175.532 147.02 175.658 147.888 175.77C148.77 175.882 149.624 175.98 150.506 175.994C152.256 176.022 153.894 175.952 155.378 175.602C159.368 174.706 161.692 173.054 162.98 171.458C164.044 170.128 164.422 168.798 164.408 167.692C170.498 170.814 176.994 173.152 183.7 174.58C184.568 174.762 185.408 174.202 185.59 173.334C185.772 172.466 185.212 171.626 184.344 171.444L184.26 171.514Z" fill="url(#paint3_linear_220_877)"/>
<path d="M226.372 54.11C229.018 54.054 231.65 53.9 234.296 53.438C231.65 52.976 229.018 52.822 226.372 52.766C227.534 51.506 228.612 50.176 229.536 48.678C228.024 49.588 226.708 50.68 225.448 51.842C225.392 49.196 225.238 46.564 224.776 43.918C224.314 46.564 224.16 49.196 224.104 51.842C222.844 50.68 221.514 49.602 220.016 48.692C220.926 50.204 222.004 51.52 223.166 52.78C220.534 52.836 217.888 52.99 215.256 53.452C217.888 53.914 220.534 54.068 223.166 54.124C222.004 55.384 220.926 56.714 220.016 58.212C221.528 57.302 222.844 56.224 224.104 55.062C224.16 57.694 224.314 60.34 224.776 62.972C225.238 60.326 225.392 57.694 225.448 55.048C226.708 56.21 228.038 57.288 229.536 58.198C228.626 56.686 227.534 55.37 226.372 54.11Z" fill="url(#paint4_linear_220_877)"/>
<path d="M167.838 48.9161C170.484 48.8601 173.116 48.7061 175.762 48.2441C173.116 47.7821 170.484 47.6281 167.838 47.5721C169 46.3121 170.078 44.9821 171.002 43.4841C169.49 44.3941 168.174 45.4861 166.914 46.6481C166.858 44.0021 166.704 41.3701 166.242 38.7241C165.78 41.3701 165.626 44.0021 165.57 46.6481C164.31 45.4861 162.98 44.4081 161.482 43.4981C162.392 45.0101 163.47 46.3261 164.632 47.5861C162 47.6421 159.354 47.7961 156.722 48.2581C159.354 48.7201 162 48.8741 164.632 48.9301C163.47 50.1901 162.392 51.5201 161.482 53.0181C162.994 52.1081 164.31 51.0301 165.57 49.8681C165.626 52.5001 165.78 55.1461 166.242 57.7781C166.704 55.1321 166.858 52.5001 166.914 49.8541C168.174 51.0161 169.504 52.0941 171.002 53.0041C170.092 51.4921 169 50.1761 167.838 48.9161Z" fill="url(#paint5_linear_220_877)"/>
<path d="M191.75 8.162C193.864 8.12 195.978 7.994 198.092 7.63C195.978 7.266 193.864 7.14 191.75 7.098C192.674 6.09 193.542 5.026 194.27 3.822C193.066 4.55 192.002 5.418 190.994 6.342C190.952 4.228 190.826 2.114 190.462 0C190.098 2.114 189.972 4.228 189.93 6.328C188.922 5.404 187.858 4.536 186.654 3.808C187.382 5.012 188.25 6.076 189.174 7.084C187.06 7.126 184.946 7.252 182.846 7.616C184.96 7.98 187.074 8.106 189.174 8.148C188.25 9.156 187.382 10.22 186.654 11.424C187.858 10.696 188.922 9.828 189.93 8.904C189.972 11.018 190.098 13.132 190.462 15.232C190.826 13.118 190.952 11.004 190.994 8.904C192.002 9.828 193.066 10.696 194.27 11.424C193.542 10.22 192.674 9.156 191.75 8.148V8.162Z" fill="url(#paint6_linear_220_877)"/>
<path d="M284.948 182.812C288.322 188.636 291.682 194.488 295.042 200.396C280.272 196.882 265.362 194.166 250.382 192.262C250.382 188.524 250.382 184.772 250.382 181.034C257.2 181.902 263.99 182.938 270.766 184.128V164.724C278.9 166.166 286.992 167.846 295.042 169.764C291.682 174.076 288.322 178.416 284.948 182.798V182.812Z" fill="url(#paint7_linear_220_877)"/>
<path d="M250.368 192.262V181.034C257.186 181.902 263.976 182.938 270.752 184.128C263.976 186.676 257.186 189.378 250.368 192.262Z" fill="#992600"/>
<path d="M143.66 181.034V192.262C128.68 194.166 113.77 196.882 99 200.396C102.36 194.488 105.72 188.636 109.094 182.812C105.72 178.43 102.36 174.076 99 169.778C107.05 167.86 115.156 166.18 123.276 164.738V180.054V184.142C130.052 182.938 136.842 181.916 143.66 181.048V181.034Z" fill="url(#paint8_linear_220_877)"/>
<path d="M143.66 192.262C143.66 188.524 143.66 184.772 143.66 181.034C136.842 181.902 130.052 182.938 123.276 184.128C130.052 186.676 136.842 189.378 143.66 192.262Z" fill="#992600"/>
<path d="M270.752 153.496V184.128C221.976 175.49 172.066 175.49 123.29 184.128V153.496C172.066 144.858 221.976 144.858 270.752 153.496Z" fill="url(#paint9_linear_220_877)"/>
<g filter="url(#filter0_d_220_877)">
<path d="M264.451 164.91C263.861 165.21 263.271 165.51 262.681 165.81C262.281 165.13 261.801 164.78 260.581 164.62C259.661 164.5 258.951 164.71 258.851 165.42C258.741 166.25 259.461 166.61 260.621 166.91C262.841 167.47 264.201 168.46 263.901 170.55C263.641 172.37 262.211 173.38 259.621 173.03C257.571 172.76 256.481 172.06 255.791 170.86C256.381 170.54 256.981 170.23 257.571 169.92C257.961 170.6 258.521 170.99 259.851 171.17C260.961 171.32 261.661 171.01 261.751 170.32C261.861 169.51 261.371 169.2 259.821 168.79C257.931 168.3 256.411 167.3 256.661 165.22C256.881 163.45 258.361 162.43 260.871 162.76C262.551 162.99 263.831 163.59 264.451 164.93V164.91Z" fill="white"/>
<path d="M245.521 171.17C245.861 167.85 246.211 164.54 246.551 161.22C247.271 161.29 247.991 161.37 248.711 161.45C248.681 161.75 248.651 162.05 248.611 162.34C249.121 161.79 249.921 161.39 251.281 161.55C253.401 161.79 254.901 163.02 254.551 165.88C254.301 167.95 254.051 170.02 253.801 172.09C253.091 172 252.381 171.92 251.671 171.84C251.901 169.85 252.141 167.85 252.371 165.86C252.571 164.11 251.811 163.52 250.691 163.39C249.341 163.24 248.481 164.05 248.341 165.38C248.121 167.38 247.911 169.38 247.691 171.39C246.971 171.31 246.251 171.24 245.541 171.16L245.521 171.17Z" fill="white"/>
<path d="M244.201 165.36C244.161 165.78 244.121 166.2 244.081 166.61C243.811 169.26 242.321 171.01 239.361 170.74C236.541 170.49 235.221 168.58 235.441 165.83C235.471 165.41 235.511 164.99 235.541 164.57C235.771 161.64 237.511 160.17 240.291 160.42C243.071 160.67 244.501 162.43 244.201 165.35V165.36ZM239.521 168.91C241.061 169.05 241.781 167.89 241.931 166.34C241.971 165.96 242.001 165.57 242.041 165.19C242.211 163.46 241.581 162.41 240.121 162.28C238.641 162.15 237.841 163.08 237.691 164.8C237.661 165.19 237.621 165.57 237.591 165.96C237.461 167.52 237.881 168.77 239.521 168.92V168.91Z" fill="white"/>
<path d="M230.741 169.87C230.981 166.55 231.221 163.22 231.461 159.9C232.191 159.95 232.931 160.01 233.661 160.06C233.411 163.38 233.151 166.71 232.901 170.03C232.181 169.98 231.461 169.92 230.741 169.87ZM231.471 158.27C231.521 157.55 231.571 156.82 231.631 156.1C232.441 156.16 233.251 156.22 234.061 156.28C234.001 157 233.951 157.73 233.891 158.45C233.081 158.39 232.281 158.33 231.471 158.27Z" fill="white"/>
<path d="M223.541 161.24C223.571 160.63 223.611 160.02 223.641 159.4C224.081 159.42 224.521 159.45 224.961 159.48C225.001 158.75 225.051 158.02 225.091 157.28C225.821 157.32 226.551 157.37 227.291 157.41C227.241 158.14 227.201 158.87 227.151 159.61C227.881 159.66 228.611 159.7 229.331 159.75C229.291 160.36 229.251 160.97 229.211 161.59C228.481 161.54 227.761 161.49 227.031 161.45C226.931 162.97 226.841 164.5 226.741 166.02C226.671 167.18 226.821 167.69 227.951 167.76C228.231 167.78 228.501 167.8 228.781 167.82C228.741 168.46 228.691 169.1 228.651 169.74C228.321 169.72 227.991 169.7 227.661 169.67C225.241 169.51 224.421 168.65 224.551 166.29C224.651 164.63 224.741 162.98 224.841 161.32C224.401 161.29 223.961 161.27 223.531 161.25L223.541 161.24Z" fill="white"/>
<path d="M213.631 166.01C213.701 163.87 215.351 163.11 217.541 163.2C218.281 163.23 219.011 163.27 219.751 163.3C219.761 163.02 219.781 162.74 219.791 162.46C219.851 161.2 219.371 160.84 217.831 160.77C216.721 160.72 216.161 160.82 215.641 161.58C215.131 161.2 214.611 160.82 214.101 160.44C214.881 159.29 216.021 158.85 218.061 158.94C220.701 159.06 222.091 159.94 221.941 162.59C221.821 164.83 221.711 167.06 221.591 169.3C220.881 169.26 220.181 169.23 219.471 169.19C219.481 168.88 219.501 168.58 219.511 168.27C218.991 169.03 218.351 169.32 217.111 169.26C214.891 169.17 213.561 168 213.621 166L213.631 166.01ZM219.651 165.42C219.651 165.26 219.671 165.1 219.671 164.94C218.991 164.91 218.311 164.88 217.631 164.85C216.351 164.79 215.801 165.21 215.761 166.09C215.721 167.01 216.401 167.42 217.431 167.46C218.751 167.52 219.561 167.16 219.641 165.42H219.651Z" fill="white"/>
<path d="M208.401 165.66C208.491 162.11 208.571 158.56 208.661 155C209.401 155.02 210.141 155.04 210.891 155.06C210.791 158.45 210.691 161.83 210.601 165.22C210.571 166.3 210.751 166.98 212.091 167.03C212.071 167.66 212.051 168.28 212.031 168.91C209.401 168.83 208.351 167.97 208.411 165.67L208.401 165.66Z" fill="white"/>
<path d="M206.181 158.75C206.121 162.08 206.051 165.42 205.991 168.75C205.281 168.74 204.571 168.72 203.871 168.71C203.871 168.41 203.871 168.11 203.881 167.81C203.401 168.52 202.791 168.87 201.381 168.86C199.301 168.84 197.691 167.78 197.691 164.9C197.691 162.82 197.691 160.74 197.701 158.66C198.441 158.66 199.171 158.66 199.911 158.66C199.901 160.67 199.881 162.67 199.871 164.68C199.861 166.46 200.671 166.96 201.801 166.98C203.141 166.99 203.881 166.13 203.901 164.75C203.931 162.74 203.961 160.72 203.991 158.71C204.721 158.72 205.451 158.73 206.181 158.75Z" fill="white"/>
<path d="M190.211 160.54C190.211 159.93 190.191 159.31 190.181 158.7C190.621 158.7 191.061 158.69 191.501 158.68C191.501 157.95 191.481 157.21 191.481 156.48C192.211 156.48 192.951 156.47 193.681 156.46C193.681 157.19 193.681 157.93 193.691 158.66C194.421 158.66 195.151 158.66 195.881 158.66C195.881 159.27 195.881 159.89 195.881 160.5C195.151 160.5 194.431 160.5 193.701 160.5C193.711 162.03 193.721 163.55 193.731 165.08C193.731 166.24 193.921 166.74 195.061 166.73C195.341 166.73 195.611 166.73 195.891 166.73C195.891 167.37 195.891 168.01 195.891 168.65C195.561 168.65 195.231 168.65 194.901 168.65C192.481 168.66 191.601 167.86 191.571 165.5C191.551 163.84 191.531 162.18 191.511 160.52C191.071 160.52 190.631 160.53 190.191 160.54H190.211Z" fill="white"/>
<path d="M180.651 165.99C180.581 163.85 182.161 162.97 184.361 162.92C185.101 162.9 185.831 162.88 186.571 162.87C186.571 162.59 186.561 162.31 186.551 162.03C186.521 160.77 186.021 160.44 184.481 160.48C183.371 160.51 182.821 160.65 182.351 161.44C181.811 161.1 181.271 160.75 180.731 160.41C181.431 159.21 182.531 158.69 184.581 158.64C187.221 158.57 188.661 159.35 188.711 162.01L188.821 168.73C188.111 168.74 187.401 168.76 186.701 168.77C186.701 168.46 186.691 168.16 186.681 167.85C186.211 168.64 185.591 168.97 184.361 169.01C182.141 169.07 180.731 168 180.661 166L180.651 165.99ZM186.611 164.98C186.611 164.82 186.611 164.66 186.601 164.5C185.921 164.51 185.241 164.53 184.561 164.55C183.281 164.58 182.761 165.04 182.781 165.92C182.811 166.84 183.511 167.2 184.541 167.17C185.861 167.14 186.641 166.72 186.601 164.98H186.611Z" fill="white"/>
<path d="M180.181 160.25C179.611 160.67 179.041 161.09 178.481 161.51C178.131 161.06 177.671 160.76 176.971 160.79C175.861 160.84 175.111 161.67 175.181 163.11C175.271 165.12 175.361 167.13 175.451 169.14C174.731 169.17 174.011 169.21 173.291 169.24C173.121 165.91 172.961 162.58 172.791 159.25C173.511 159.21 174.231 159.18 174.961 159.15C174.971 159.45 174.991 159.75 175.001 160.05C175.361 159.45 176.041 158.92 177.261 158.87C178.581 158.82 179.511 159.28 180.181 160.24V160.25Z" fill="white"/>
<path d="M168.281 160.2C168.271 159.97 168.251 159.73 168.241 159.5C168.971 159.46 169.701 159.42 170.431 159.38C170.611 162.64 170.791 165.9 170.971 169.17C171.141 172.25 169.431 173.38 166.831 173.54C165.031 173.66 163.881 173.28 162.981 172.06C163.461 171.66 163.931 171.27 164.411 170.88C164.901 171.51 165.541 171.8 166.651 171.73C168.261 171.63 168.921 170.91 168.831 169.29C168.831 169.14 168.811 168.98 168.801 168.83C168.291 169.42 167.501 169.75 166.431 169.82C163.751 169.99 162.281 168.2 162.091 165.59C162.061 165.14 162.021 164.69 161.991 164.23C161.781 161.36 163.271 159.64 165.771 159.48C166.881 159.41 167.711 159.68 168.301 160.21L168.281 160.2ZM166.591 167.96C168.211 167.86 168.661 166.61 168.571 165.05C168.551 164.66 168.521 164.28 168.501 163.89C168.401 162.17 167.621 161.22 166.161 161.31C164.681 161.41 164.031 162.43 164.151 164.17C164.181 164.56 164.201 164.94 164.231 165.33C164.341 166.89 165.031 168.06 166.591 167.96Z" fill="white"/>
<path d="M152.201 170.77C151.891 167.45 151.571 164.13 151.261 160.81C151.981 160.74 152.701 160.68 153.421 160.61C153.451 160.91 153.471 161.21 153.501 161.51C153.901 160.87 154.601 160.33 155.961 160.21C158.081 160.03 159.791 160.94 160.011 163.81C160.171 165.89 160.331 167.97 160.491 170.05C159.781 170.1 159.061 170.16 158.351 170.22C158.191 168.22 158.021 166.22 157.861 164.22C157.721 162.47 156.861 162.03 155.731 162.13C154.371 162.25 153.701 163.21 153.821 164.55C154.001 166.56 154.181 168.56 154.361 170.57C153.641 170.63 152.921 170.7 152.201 170.77Z" fill="white"/>
<path d="M149.771 165.34C149.811 165.76 149.851 166.18 149.891 166.59C150.151 169.24 149.031 171.25 146.071 171.57C143.261 171.88 141.581 170.27 141.251 167.52C141.201 167.1 141.151 166.69 141.101 166.27C140.751 163.35 142.171 161.57 144.951 161.27C147.731 160.97 149.471 162.41 149.761 165.34H149.771ZM145.881 169.74C147.411 169.58 147.901 168.3 147.741 166.75C147.701 166.37 147.661 165.98 147.621 165.6C147.441 163.87 146.621 162.97 145.171 163.12C143.691 163.28 143.091 164.36 143.281 166.06C143.321 166.44 143.371 166.83 143.411 167.21C143.591 168.76 144.251 169.91 145.881 169.73V169.74Z" fill="white"/>
<path d="M139.311 162.58C138.541 162.67 137.781 162.77 137.011 162.86C136.431 161.24 135.411 160.6 133.841 160.81C131.941 161.06 131.081 162.39 131.481 165.34C131.561 165.92 131.641 166.5 131.721 167.08C132.121 169.99 133.301 171.08 135.151 170.84C136.741 170.63 137.491 169.77 137.651 168.06C138.401 167.97 139.151 167.87 139.901 167.78C139.801 170.91 138.161 172.48 135.411 172.84C132.321 173.24 129.981 171.71 129.361 167.41C129.281 166.83 129.191 166.25 129.111 165.67C128.511 161.38 130.401 159.22 133.591 158.81C136.431 158.44 138.491 159.66 139.321 162.59L139.311 162.58Z" fill="white"/>
</g>
</g>
<defs>
<filter id="filter0_d_220_877" x="123" y="152" width="147.451" height="30.561" filterUnits="userSpaceOnUse" color-interpolation-filters="sRGB">
<feFlood flood-opacity="0" result="BackgroundImageFix"/>
<feColorMatrix in="SourceAlpha" type="matrix" values="0 0 0 0 0 0 0 0 0 0 0 0 0 0 0 0 0 0 127 0" result="hardAlpha"/>
<feOffset dy="3"/>
<feGaussianBlur stdDeviation="3"/>
<feComposite in2="hardAlpha" operator="out"/>
<feColorMatrix type="matrix" values="0 0 0 0 0 0 0 0 0 0 0 0 0 0 0 0 0 0 0.25 0"/>
<feBlend mode="normal" in2="BackgroundImageFix" result="effect1_dropShadow_220_877"/>
<feBlend mode="normal" in="SourceGraphic" in2="effect1_dropShadow_220_877" result="shape"/>
</filter>
<linearGradient id="paint0_linear_220_877" x1="150.975" y1="67.2515" x2="227.821" y2="151.934" gradientUnits="userSpaceOnUse">
<stop stop-color="#EBB04E"/>
<stop offset="0.34" stop-color="#F3DE34"/>
<stop offset="0.48" stop-color="#FFE563"/>
<stop offset="0.65" stop-color="#EBC542"/>
<stop offset="1" stop-color="#EBAD50"/>
</linearGradient>
<linearGradient id="paint1_linear_220_877" x1="181.782" y1="17.4581" x2="212.26" y2="47.9361" gradientUnits="userSpaceOnUse">
<stop stop-color="#EBB04E"/>
<stop offset="0.34" stop-color="#F3DE34"/>
<stop offset="0.48" stop-color="#FFE563"/>
<stop offset="0.65" stop-color="#EBC542"/>
<stop offset="1" stop-color="#EBAD50"/>
</linearGradient>
<linearGradient id="paint2_linear_220_877" x1="198.162" y1="71.064" x2="278.242" y2="151.144" gradientUnits="userSpaceOnUse">
<stop stop-color="#EBB04E"/>
<stop offset="0.34" stop-color="#F3DE34"/>
<stop offset="0.48" stop-color="#FFE563"/>
<stop offset="0.65" stop-color="#EBC542"/>
<stop offset="1" stop-color="#EBAD50"/>
</linearGradient>
<linearGradient id="paint3_linear_220_877" x1="109.654" y1="64.9179" x2="201.998" y2="157.276" gradientUnits="userSpaceOnUse">
<stop stop-color="#EBB04E"/>
<stop offset="0.34" stop-color="#F3DE34"/>
<stop offset="0.48" stop-color="#FFE563"/>
<stop offset="0.65" stop-color="#EBC542"/>
<stop offset="1" stop-color="#EBAD50"/>
</linearGradient>
<linearGradient id="paint4_linear_220_877" x1="220.002" y1="48.678" x2="229.536" y2="58.198" gradientUnits="userSpaceOnUse">
<stop stop-color="#EBB04E"/>
<stop offset="0.34" stop-color="#F3DE34"/>
<stop offset="0.48" stop-color="#FFE563"/>
<stop offset="0.65" stop-color="#EBC542"/>
<stop offset="1" stop-color="#EBAD50"/>
</linearGradient>
<linearGradient id="paint5_linear_220_877" x1="161.468" y1="43.4701" x2="171.002" y2="53.0041" gradientUnits="userSpaceOnUse">
<stop stop-color="#EBB04E"/>
<stop offset="0.34" stop-color="#F3DE34"/>
<stop offset="0.48" stop-color="#FFE563"/>
<stop offset="0.65" stop-color="#EBC542"/>
<stop offset="1" stop-color="#EBAD50"/>
</linearGradient>
<linearGradient id="paint6_linear_220_877" x1="186.654" y1="3.808" x2="194.27" y2="11.424" gradientUnits="userSpaceOnUse">
<stop stop-color="#EBB04E"/>
<stop offset="0.34" stop-color="#F3DE34"/>
<stop offset="0.48" stop-color="#FFE563"/>
<stop offset="0.65" stop-color="#EBC542"/>
<stop offset="1" stop-color="#EBAD50"/>
</linearGradient>
<linearGradient id="paint7_linear_220_877" x1="250.368" y1="182.56" x2="295.028" y2="182.56" gradientUnits="userSpaceOnUse">
<stop stop-color="#BE2600"/>
<stop offset="1" stop-color="#FF5A5A"/>
</linearGradient>
<linearGradient id="paint8_linear_220_877" x1="99" y1="-0.000203906" x2="143.66" y2="-0.000203906" gradientUnits="userSpaceOnUse">
<stop stop-color="#BE2600"/>
<stop offset="1" stop-color="#FF5A5A"/>
</linearGradient>
<linearGradient id="paint9_linear_220_877" x1="123.29" y1="165.578" x2="270.752" y2="165.578" gradientUnits="userSpaceOnUse">
<stop stop-color="#DB2802"/>
<stop offset="1" stop-color="#FF5050"/>
</linearGradient>
<clipPath id="clip0_220_877">
<rect width="393" height="600" fill="white"/>
</clipPath>
</defs>
</svg>
