<svg width="100" height="100" viewBox="0 0 100 100" fill="none" xmlns="http://www.w3.org/2000/svg">
<path d="M99.7885 49.9923C99.7641 62.4493 95.0806 74.4466 86.6589 83.6256C78.2373 92.8046 66.6866 98.5012 54.2777 99.5956C41.8688 100.69 29.4994 97.1029 19.6011 89.5396C9.70291 81.9763 2.99193 70.984 0.787555 58.7235C-1.41682 46.463 1.04487 33.8214 7.68866 23.2839C14.3324 12.7465 24.6777 5.07541 36.6907 1.77885C48.7036 -1.51771 61.5152 -0.201296 72.6068 5.46929C83.6983 11.1399 92.2675 20.7544 96.6296 32.4228C96.7384 32.7158 96.8445 33.0088 96.9477 33.3046V33.3074C97.4082 34.6078 97.8137 35.9324 98.1644 37.2812C99.2462 41.4315 99.792 45.7033 99.7885 49.9923Z" fill="#416BFF"/>
<path d="M44.0624 16.1026C41.8051 14.8819 39.2988 14.1928 36.7347 14.0879C34.1706 13.983 31.6163 14.4651 29.2668 15.4973C27.1981 16.3976 25.0199 18.0126 24.3298 20.9291C27.1209 19.2819 30.7339 21.8844 31.4521 26.0595L31.2844 26.1057C30.9051 28.9976 31.7519 32.146 33.3914 33.9391C33.5133 33.13 33.8139 32.3582 34.2713 31.6798C34.7287 31.0014 35.3315 30.4334 36.0359 30.017C37.2405 29.2252 38.5731 28.65 39.4925 27.2889C40.5825 25.6753 40.8593 23.317 41.2922 21.1657C41.7252 19.0144 42.5467 16.7021 44.0624 16.1026Z" fill="#1BA843"/>
<path d="M28.4389 40.7109C27.6659 41.8717 26.6334 42.6001 25.7069 43.507C24.6374 44.4799 23.9357 45.7916 23.7201 47.2213C23.6028 48.2315 23.7842 49.2584 23.7591 50.2798C23.734 51.3011 23.3935 52.4508 22.6987 52.7048C21.602 53.101 20.7648 51.0639 19.6374 50.9216C18.7416 50.81 17.9352 52.2192 18.1947 53.4415C18.4542 54.6638 19.6737 55.2051 20.3741 54.407C21.0076 55.4702 20.5611 57.3986 19.6095 57.725C19.509 58.3948 19.4086 59.0617 19.3109 59.7314C16.9054 58.0487 14.4748 56.3381 12.4294 53.874C10.1544 51.1567 8.74338 47.8216 8.3774 44.2968C8.11229 41.4643 8.50577 38.2244 7.20542 36.045C6.16449 34.3009 4.37851 33.9158 2.77114 34.0246C2.47813 34.0441 2.18237 34.0776 1.88931 34.1139C2.83724 31.2668 4.04117 28.5115 5.48634 25.8817C5.81338 25.7413 6.11728 25.5522 6.38767 25.3207C7.88344 24.0511 8.54763 21.4809 9.76148 19.7033C9.83964 19.5889 9.92057 19.4773 10.0043 19.3684C11.2461 17.7471 12.9093 16.9127 14.5166 16.1369C18.0746 14.4096 21.7358 12.6599 25.492 12.8999L24.4232 13.0031C23.1758 16.4969 21.9275 19.9907 20.6782 23.4846C20.4885 24.0203 20.2968 24.557 20.1034 25.0947C19.3946 27.0816 18.6634 29.1969 18.7723 31.421C18.8365 32.7381 19.2941 34.1446 20.1648 34.5967C20.9768 35.0153 21.8642 34.5018 22.6484 33.9939C22.9805 33.7818 23.3098 33.5697 23.6418 33.3548C24.8334 32.5874 26.1533 31.8005 27.4119 32.3139C28.5644 32.7827 29.4155 34.3483 29.5774 36.0366C29.7258 37.6777 29.3254 39.3218 28.4389 40.7109Z" fill="#1BA843"/>
<path d="M35.5258 64.5639C32.0457 62.4212 28.5656 60.2784 25.0854 58.1357L25.1445 57.9835C22.9807 58.8077 22.0823 62.6539 22.4399 65.7993C22.7975 68.9447 24.0101 71.7565 24.6226 74.8213C25.4486 79.0154 25.1368 83.3541 23.7198 87.3871C28.2959 82.2523 32.3458 76.6718 35.8086 70.7291C36.2923 69.9801 36.661 69.1628 36.9021 68.3044C37.1576 67.3896 37.0665 66.4127 36.6465 65.5609C36.3616 65.1406 35.9764 64.798 35.5258 64.5639Z" fill="#1BA843"/>
<path d="M21.7909 25.5809C21.3823 26.4583 21.3193 27.4576 21.6146 28.3794C21.958 29.1221 22.5809 29.699 23.3477 29.9845L25.2706 30.9377C25.9103 31.2548 26.5999 31.575 27.252 31.3141C28.0386 30.9995 28.5839 29.7663 28.4429 28.6215C28.2927 27.4033 27.5248 26.5654 26.8146 25.8518C25.8208 24.8532 24.8269 23.8546 23.8331 22.856L23.273 23.542C22.6672 24.1329 22.1661 24.8223 21.7909 25.5809Z" fill="#1BA843"/>
<path d="M89.4801 38.6039C90.3452 38.8076 91.2103 39.0113 92.0754 39.215C91.9247 42.1368 90.4764 44.8409 88.5341 45.8203C87.7249 46.2278 86.8235 46.3784 86.1538 47.1403C85.5482 47.8324 85.2412 48.9095 84.9594 49.9392C84.4655 51.7364 83.9715 53.5335 83.4776 55.3306C82.9474 57.2673 82.2665 59.4188 80.8879 60.1165C79.7047 60.7164 78.3513 59.9825 77.4416 58.7519C76.5318 57.5213 75.9765 55.8664 75.4379 54.2535C75.4714 56.0116 74.6538 57.7362 73.4957 58.3473C72.3348 58.9584 70.9227 58.4059 70.147 57.0413C69.5889 56.0618 69.3573 54.7697 68.8103 53.7763C68.2633 52.7828 67.1164 52.2136 66.5192 53.1456C66.1257 53.7652 66.176 54.7139 65.9806 55.5009C65.8823 56.0233 65.6236 56.5022 65.2405 56.8708C64.8574 57.2394 64.3689 57.4794 63.8431 57.5575C63.3595 57.5465 62.8833 57.4371 62.4434 57.2361C62.0034 57.035 61.609 56.7466 61.2841 56.3883C59.5752 54.6402 58.4627 52.3967 58.1056 49.9783C57.8635 48.8188 57.8941 47.619 58.1949 46.4733C58.5382 45.3879 59.3669 44.5507 60.1902 44.7572C60.7315 43.613 59.6628 42.0949 58.7 42.2289C57.7345 42.3628 56.9782 43.3981 56.1857 44.1934C55.396 44.9888 54.2909 45.5664 53.4956 44.7767C53.5133 45.0655 53.4157 45.3496 53.224 45.5665C53.0323 45.7833 52.7623 45.9151 52.4735 45.9329C52.4449 45.9346 52.4163 45.9353 52.3877 45.9348C51.8589 45.783 51.3675 45.5226 50.945 45.1702C49.1227 44.0344 46.8093 44.7878 45.5145 46.9366C46.3238 43.493 47.5097 39.5415 49.9961 38.7322C51.012 38.4001 52.1198 38.6736 53.0798 38.0987C54.7793 37.0802 55.1225 33.232 53.6546 31.6442C53.8416 33.1455 53.8053 34.898 53.0128 35.9249C52.2203 36.9519 50.5571 36.2821 50.6576 34.7641C50.635 34.9776 50.5455 35.1784 50.4017 35.338C50.258 35.4975 50.0675 35.6074 49.8575 35.652C49.6475 35.6966 49.4287 35.6736 49.2326 35.5863C49.0364 35.4989 48.873 35.3518 48.7656 35.1659C48.2382 34.3622 48.2828 33.0479 48.6567 32.0879C49.0422 31.2184 49.595 30.4333 50.2836 29.7773C51.6092 28.3569 52.9542 26.9198 54.4891 26.0267C56.0267 25.1338 57.8015 24.8324 59.3419 25.7198C60.154 26.1886 60.8683 26.97 61.6971 27.383C61.8919 27.5038 62.1085 27.5851 62.3347 27.6222C62.5609 27.6594 62.7922 27.6516 63.0153 27.5993C63.2385 27.547 63.4492 27.4513 63.6354 27.3176C63.8216 27.184 63.9796 27.0149 64.1004 26.8202C64.1097 26.8051 64.1189 26.7899 64.1278 26.7746C64.7445 25.6918 64.4542 24.0845 64.6831 22.7311C65.0933 20.3396 67.4848 19.2205 68.8103 20.8C67.8197 20.546 66.7955 21.7181 66.6728 23.1385C66.5472 24.5589 67.2644 25.9933 68.2243 26.423C69.8373 27.1374 71.4167 25.3402 72.6363 23.6771C73.9087 21.9357 75.1831 20.1954 76.4593 18.4559C76.6631 18.1597 76.8918 17.8815 77.143 17.6243C77.5427 17.2347 78.0756 17.0116 78.6336 17.0002C79.1917 16.9888 79.7332 17.19 80.1485 17.5629C81.4377 18.615 82.0433 20.7721 83.1009 22.2567C84.6357 24.4138 86.9324 24.9384 89.0699 25.357C90.6633 25.6668 92.2577 25.9784 93.853 26.2918C94.9164 28.2702 95.8441 30.3186 96.6297 32.4228C93.7042 33.7568 91.2229 35.902 89.4801 38.6039Z" fill="#1BA843"/>
<path d="M94.6316 72.1803C93.436 74.6079 92.0454 76.9345 90.4736 79.1372C89.469 78.7075 88.389 79.4749 87.4486 80.1949C86.4663 80.9483 85.2859 81.6823 84.2785 80.9958C83.2488 80.2926 82.9167 78.3252 83.2432 76.7652C83.6184 75.3262 84.2747 73.9757 85.1743 72.7914C86.0114 71.5413 86.9072 70.2436 88.0709 69.7581C89.2374 69.2725 90.7359 69.959 91.0764 71.6166L91.9024 71.5887C91.4391 70.9525 91.6819 69.6353 92.3042 69.4037C93.0214 69.133 93.6437 70.118 94.0679 70.9887C94.2576 71.3822 94.4501 71.7785 94.6316 72.1803Z" fill="#1BA843"/>
<path d="M62.9959 60.3931C61.2205 60.5047 59.8141 58.3191 58.8796 56.1688C57.945 54.0186 57.0923 51.5597 55.4903 50.4652C54.5749 49.8398 53.5313 49.754 52.5385 49.4509C51.9753 49.3087 51.4542 49.0343 51.0183 48.6505C50.5823 48.2667 50.2441 47.7845 50.0317 47.2439L48.9055 46.7889C47.3301 47.5764 45.8873 48.6051 44.6294 49.8379C43.1919 51.3648 42.2966 53.3222 42.0814 55.4083C41.8663 57.6626 42.6607 60.1763 44.1452 61.0231C45.3181 61.6923 46.6838 61.2705 47.8719 61.8831C49.3563 62.6484 50.2376 64.8717 50.5712 67.0669C50.9048 69.2621 50.8203 71.5434 51.059 73.7636C51.2976 75.9837 51.9554 78.2938 53.3168 79.4315C55.0203 80.8552 57.5201 79.6722 58.2844 77.0805C58.6592 75.8093 58.6463 74.3748 58.9268 73.0551C59.4206 70.7312 60.7531 69.0071 61.8099 67.1008C62.8667 65.1945 63.6988 62.6054 62.9959 60.3931Z" fill="#1BA843"/>
<path d="M45.4517 37.5574C45.6173 37.7098 45.7718 37.8738 45.9141 38.0482C46.0613 38.302 46.1365 38.5913 46.1315 38.8847C46.1265 39.1782 46.0415 39.4647 45.8857 39.7134C46.0995 39.7012 46.3086 39.6448 46.4995 39.5477C46.6905 39.4507 46.8592 39.3151 46.9951 39.1495C47.3192 38.7804 47.6042 38.3789 47.8458 37.9513C47.9593 37.8048 48.0404 37.6359 48.0837 37.4556C48.1269 37.2754 48.1313 37.0881 48.0966 36.906C48.0127 36.6666 47.8143 36.5646 47.6753 36.3845C47.4826 36.0326 47.351 35.6504 47.2862 35.2544C47.2091 34.8832 47.03 34.5409 46.7691 34.2659C46.5081 33.9909 46.1757 33.7941 45.809 33.6976L45.898 33.7146C45.7465 33.8045 45.627 33.9395 45.5561 34.1007C45.4852 34.262 45.4665 34.4413 45.5027 34.6137C45.5566 34.9619 45.7803 35.251 45.7581 35.6062C45.7261 36.1169 45.2157 36.3565 45.1841 36.8673C45.1792 37.1236 45.2753 37.3715 45.4517 37.5574Z" fill="#1BA843"/>
<path d="M42.4098 28.8792L42.4177 28.8777C42.4726 28.8277 42.5234 28.7735 42.5699 28.7156L42.4098 28.8792Z" fill="#6C63FF"/>
<path d="M42.9422 31.2758C43.1555 31.0886 43.3132 30.8465 43.3982 30.5758C43.4832 30.3052 43.4922 30.0163 43.4242 29.7409C43.2953 29.1602 42.8388 28.7697 42.4177 28.877C42.2955 29.0008 42.1439 29.0916 41.977 29.1407C41.8102 29.1898 41.6336 29.1957 41.4638 29.1578C41.2035 29.0908 40.9177 28.9182 40.6919 29.1144C40.5627 29.2608 40.4724 29.4373 40.429 29.6277C40.3454 29.8843 40.2619 30.1408 40.1783 30.3973C40.1386 30.4891 40.1282 30.591 40.1486 30.6889C40.1646 30.7282 40.1905 30.7626 40.2236 30.789C40.2568 30.8154 40.2962 30.8328 40.3381 30.8395L41.8423 31.283C42.0149 31.3625 42.203 31.4031 42.3931 31.4019C42.5831 31.4006 42.7706 31.3576 42.9422 31.2758Z" fill="#1BA843"/>
<path d="M80.7942 64.3719C80.5624 63.9924 80.3306 63.613 80.0989 63.2335C79.8712 62.7941 79.56 62.4033 79.1826 62.0831C79.0176 61.9448 78.8044 61.8778 78.5899 61.8967C78.3754 61.9156 78.1772 62.019 78.039 62.1841L78.0268 62.1988L78.055 62.4156C78.6757 63.0809 79.0986 63.9061 79.2763 64.7984C79.3291 65.1862 79.3107 65.5875 79.3571 65.977C79.362 66.1576 79.4024 66.3355 79.4761 66.5005C79.5498 66.6654 79.6552 66.8142 79.7865 66.9384C80.1514 67.1822 80.58 66.8227 80.8397 66.3841C81.0719 66.0238 81.176 65.5958 81.1354 65.1691C81.0775 64.8828 80.9614 64.6114 80.7942 64.3719Z" fill="#1BA843"/>
<path d="M84.43 64.8657C84.4742 64.5105 84.4453 64.15 84.3452 63.8063C84.3286 63.3413 84.4519 62.882 84.6991 62.4878C84.9446 62.1159 85.1307 61.708 85.2505 61.2788C85.301 61.0832 85.2918 60.877 85.2241 60.6867C85.1474 60.5144 84.9616 60.4358 84.855 60.5723L85.0831 60.7192C84.7751 60.6642 84.4586 60.6795 84.1574 60.764C83.9855 60.8298 83.8321 60.936 83.7099 61.0737C83.5878 61.2113 83.5007 61.3764 83.4559 61.5549C83.4182 61.8331 83.3566 62.1077 83.2718 62.3754C83.1357 62.6551 82.8724 62.7481 82.7069 62.9936C82.594 63.2112 82.5371 63.4535 82.5411 63.6986C82.5452 63.9437 82.6101 64.1839 82.7301 64.3977C82.938 64.7473 83.2684 65.0071 83.6572 65.1267C83.9358 65.2267 84.3026 65.232 84.43 64.8657Z" fill="#1BA843"/>
<path d="M90.9048 66.8193C91.0055 67.0813 91.1404 67.3289 91.306 67.5556C91.616 67.8679 92.0372 67.676 92.4133 67.6001C92.7546 67.5462 93.104 67.5857 93.4247 67.7143C93.7453 67.8429 94.0252 68.0558 94.2346 68.3306C94.0887 67.6033 93.7705 66.9216 93.3065 66.3428C92.8426 65.7639 92.2465 65.3049 91.5684 65.0042C90.6872 64.6992 89.7586 64.554 88.8263 64.5754L88.6671 64.6162C89.0729 65.7974 90.3471 65.771 90.9048 66.8193Z" fill="#1BA843"/>
<path d="M63.4816 69.2367L63.484 69.242L63.5313 69.1509L63.4816 69.2367Z" fill="#6C63FF"/>
<path d="M62.4993 71.1364C62.2851 71.5253 62.1009 71.93 61.9483 72.347C61.7462 73.0223 61.6124 73.7162 61.5489 74.4183C61.499 74.8175 61.4836 75.3273 61.7337 75.5218C61.8055 75.5695 61.8923 75.5894 61.9777 75.5778C62.0631 75.5662 62.1413 75.5239 62.1978 75.4588C62.3367 75.3118 62.4504 75.1428 62.5342 74.9587C63.0258 74.1121 63.4075 73.2064 63.67 72.2633C63.9439 71.2628 63.8785 70.1997 63.4839 69.2404C63.1558 69.8724 62.8276 70.5044 62.4993 71.1364Z" fill="#1BA843"/>
<path d="M53.0235 20.4829C53.1795 20.6354 53.3768 20.739 53.5909 20.7808C53.8051 20.8225 54.0267 20.8008 54.2287 20.7181C54.6468 20.5353 55.0304 20.282 55.3626 19.9691C55.6378 19.7655 55.8712 19.511 56.0501 19.2192C56.1486 19.0449 56.2118 18.8528 56.236 18.654C56.2601 18.4551 56.2447 18.2535 56.1907 18.0606C56.1139 17.8759 55.9912 17.7137 55.8342 17.5896C55.6773 17.4654 55.4912 17.3833 55.2937 17.3511C54.7372 17.186 54.1807 17.021 53.6241 16.856L54.0267 16.4932C53.6125 16.2709 53.1543 16.6834 52.8954 17.1942C52.7294 17.5277 52.6136 17.884 52.552 18.2514C52.4639 18.6353 52.4605 19.0338 52.5419 19.4191C52.6233 19.8045 52.7877 20.1675 53.0235 20.4829Z" fill="#1BA843"/>
<path d="M62.849 17.1843C63.0059 17.3573 63.2227 17.464 63.4554 17.4829C63.6881 17.5019 63.9193 17.4316 64.102 17.2863C64.2593 17.1681 64.39 17.0182 64.4855 16.8462C64.581 16.6742 64.6392 16.484 64.6563 16.288C64.6956 15.8503 64.4792 15.3637 64.1701 15.3259L64.2408 14.916C63.6453 14.8085 62.9125 14.787 62.5934 15.5102C62.4857 15.7872 62.4527 16.0876 62.4975 16.3814C62.5424 16.6752 62.6636 16.9521 62.849 17.1843Z" fill="#1BA843"/>
</svg>
