<svg width="239" height="180" viewBox="0 0 239 180" fill="none" xmlns="http://www.w3.org/2000/svg">
<g clip-path="url(#clip0_12_3251)">
<path d="M227.985 180H11.0154C8.09492 179.997 5.29504 178.837 3.22997 176.775C1.1649 174.712 0.00329893 171.916 0 169V11C0.00330069 8.08363 1.1649 5.28765 3.22997 3.22546C5.29503 1.16328 8.09492 0.00329609 11.0154 0H227.985C230.905 0.00329433 233.705 1.16328 235.77 3.22546C237.835 5.28765 238.997 8.08363 239 11V169C238.997 171.916 237.835 174.712 235.77 176.775C233.705 178.837 230.905 179.997 227.985 180Z" fill="#E6E6E6"/>
<path d="M212.717 179.667H211.228L188.236 133.413L187.568 132.08L170.565 97.8666L141.751 39.9L141.09 38.5666L122.084 0.333313H123.579L142.579 38.5666L143.246 39.9L171.326 96.3933L171.987 97.7266L188.984 131.913L212.717 179.667Z" fill="white"/>
<path d="M238.666 38.5697H0.333862V39.903H238.666V38.5697Z" fill="white"/>
<path d="M238.666 96.3965H170.851V97.7298H238.666V96.3965Z" fill="white"/>
<path d="M65.1013 0.333374H63.7661V180.333H65.1013V0.333374Z" fill="white"/>
<path d="M188.648 132.078H64.4337V133.411H188.648V132.078Z" fill="white"/>
<path d="M142.198 70.6667C142.198 82.0305 125.463 114.076 119.178 125.711C118.949 126.134 118.61 126.488 118.197 126.735C117.784 126.981 117.311 127.111 116.83 127.111C116.348 127.111 115.876 126.981 115.462 126.735C115.049 126.488 114.71 126.134 114.482 125.711C108.196 114.076 91.4609 82.0305 91.4609 70.6667C91.4609 63.9479 94.1337 57.5043 98.8913 52.7533C103.649 48.0024 110.101 45.3334 116.83 45.3334C123.558 45.3334 130.01 48.0024 134.768 52.7533C139.526 57.5043 142.198 63.9479 142.198 70.6667Z" fill="#189193"/>
<path d="M116.83 82C123.098 82 128.179 76.9259 128.179 70.6667C128.179 64.4075 123.098 59.3334 116.83 59.3334C110.562 59.3334 105.48 64.4075 105.48 70.6667C105.48 76.9259 110.562 82 116.83 82Z" fill="#E6E6E6"/>
<path d="M116.83 138C119.411 138 121.503 135.911 121.503 133.333C121.503 130.756 119.411 128.667 116.83 128.667C114.249 128.667 112.156 130.756 112.156 133.333C112.156 135.911 114.249 138 116.83 138Z" fill="#189193"/>
<path d="M70.1974 147.92C70.1974 147.152 70.3254 146.469 70.5814 145.872C70.8587 145.275 71.2214 144.763 71.6694 144.336C72.1174 143.909 72.6294 143.589 73.2054 143.376C73.8027 143.141 74.4214 143.024 75.0614 143.024C75.7014 143.024 76.3094 143.141 76.8854 143.376C77.4827 143.589 78.0054 143.909 78.4534 144.336C78.9014 144.763 79.2534 145.275 79.5094 145.872C79.7867 146.469 79.9254 147.152 79.9254 147.92V161.296C79.9254 162.064 79.7867 162.747 79.5094 163.344C79.2534 163.941 78.9014 164.453 78.4534 164.88C78.0054 165.307 77.4827 165.637 76.8854 165.872C76.3094 166.085 75.7014 166.192 75.0614 166.192C74.4214 166.192 73.8027 166.085 73.2054 165.872C72.6294 165.637 72.1174 165.307 71.6694 164.88C71.2214 164.453 70.8587 163.941 70.5814 163.344C70.3254 162.747 70.1974 162.064 70.1974 161.296V147.92ZM73.4614 161.296C73.4614 161.765 73.6107 162.16 73.9094 162.48C74.208 162.779 74.592 162.928 75.0614 162.928C75.5307 162.928 75.9147 162.779 76.2134 162.48C76.512 162.16 76.6614 161.765 76.6614 161.296V147.92C76.6614 147.451 76.512 147.067 76.2134 146.768C75.9147 146.448 75.5307 146.288 75.0614 146.288C74.592 146.288 74.208 146.448 73.9094 146.768C73.6107 147.067 73.4614 147.451 73.4614 147.92V161.296ZM82.1036 147.92C82.1036 147.152 82.2316 146.469 82.4876 145.872C82.765 145.275 83.1276 144.763 83.5756 144.336C84.0236 143.909 84.5356 143.589 85.1116 143.376C85.709 143.141 86.3276 143.024 86.9676 143.024C87.6076 143.024 88.2156 143.141 88.7916 143.376C89.389 143.589 89.9116 143.909 90.3596 144.336C90.8076 144.763 91.1596 145.275 91.4156 145.872C91.693 146.469 91.8316 147.152 91.8316 147.92V161.296C91.8316 162.064 91.693 162.747 91.4156 163.344C91.1596 163.941 90.8076 164.453 90.3596 164.88C89.9116 165.307 89.389 165.637 88.7916 165.872C88.2156 166.085 87.6076 166.192 86.9676 166.192C86.3276 166.192 85.709 166.085 85.1116 165.872C84.5356 165.637 84.0236 165.307 83.5756 164.88C83.1276 164.453 82.765 163.941 82.4876 163.344C82.2316 162.747 82.1036 162.064 82.1036 161.296V147.92ZM85.3676 161.296C85.3676 161.765 85.517 162.16 85.8156 162.48C86.1143 162.779 86.4983 162.928 86.9676 162.928C87.437 162.928 87.821 162.779 88.1196 162.48C88.4183 162.16 88.5676 161.765 88.5676 161.296V147.92C88.5676 147.451 88.4183 147.067 88.1196 146.768C87.821 146.448 87.437 146.288 86.9676 146.288C86.4983 146.288 86.1143 146.448 85.8156 146.768C85.517 147.067 85.3676 147.451 85.3676 147.92V161.296ZM94.0099 147.92C94.0099 147.152 94.1379 146.469 94.3939 145.872C94.6712 145.275 95.0339 144.763 95.4819 144.336C95.9299 143.909 96.4419 143.589 97.0179 143.376C97.6152 143.141 98.2339 143.024 98.8739 143.024C99.5139 143.024 100.122 143.141 100.698 143.376C101.295 143.589 101.818 143.909 102.266 144.336C102.714 144.763 103.066 145.275 103.322 145.872C103.599 146.469 103.738 147.152 103.738 147.92V161.296C103.738 162.064 103.599 162.747 103.322 163.344C103.066 163.941 102.714 164.453 102.266 164.88C101.818 165.307 101.295 165.637 100.698 165.872C100.122 166.085 99.5139 166.192 98.8739 166.192C98.2339 166.192 97.6152 166.085 97.0179 165.872C96.4419 165.637 95.9299 165.307 95.4819 164.88C95.0339 164.453 94.6712 163.941 94.3939 163.344C94.1379 162.747 94.0099 162.064 94.0099 161.296V147.92ZM97.2739 161.296C97.2739 161.765 97.4232 162.16 97.7219 162.48C98.0205 162.779 98.4045 162.928 98.8739 162.928C99.3432 162.928 99.7272 162.779 100.026 162.48C100.325 162.16 100.474 161.765 100.474 161.296V147.92C100.474 147.451 100.325 147.067 100.026 146.768C99.7272 146.448 99.3432 146.288 98.8739 146.288C98.4045 146.288 98.0205 146.448 97.7219 146.768C97.4232 147.067 97.2739 147.451 97.2739 147.92V161.296ZM106.236 158.768V155.504H115.868V158.768H106.236ZM119.538 166L123.25 156.432L123.186 156.368C123.079 156.453 122.908 156.528 122.674 156.592C122.46 156.635 122.172 156.656 121.81 156.656C121.234 156.656 120.7 156.517 120.21 156.24C119.719 155.963 119.335 155.611 119.058 155.184C118.908 154.971 118.791 154.747 118.706 154.512C118.62 154.256 118.556 153.936 118.514 153.552C118.45 153.168 118.407 152.688 118.386 152.112C118.364 151.515 118.354 150.768 118.354 149.872C118.354 149.125 118.364 148.517 118.386 148.048C118.407 147.557 118.45 147.141 118.514 146.8C118.556 146.48 118.62 146.203 118.706 145.968C118.812 145.733 118.94 145.488 119.09 145.232C119.516 144.528 120.082 143.984 120.786 143.6C121.511 143.216 122.322 143.024 123.218 143.024C124.114 143.024 124.914 143.227 125.618 143.632C126.322 144.016 126.887 144.549 127.314 145.232C127.463 145.488 127.591 145.733 127.698 145.968C127.804 146.203 127.89 146.48 127.954 146.8C127.996 147.141 128.028 147.557 128.05 148.048C128.071 148.517 128.082 149.125 128.082 149.872C128.082 150.576 128.071 151.163 128.05 151.632C128.028 152.08 127.996 152.464 127.954 152.784C127.89 153.125 127.815 153.435 127.73 153.712C127.666 153.968 127.58 154.245 127.474 154.544L123.186 166H119.538ZM121.618 152.144C121.618 152.635 121.778 153.029 122.098 153.328C122.418 153.627 122.791 153.776 123.218 153.776C123.644 153.776 124.018 153.627 124.338 153.328C124.658 153.029 124.818 152.635 124.818 152.144V147.92C124.818 147.429 124.658 147.035 124.338 146.736C124.018 146.437 123.644 146.288 123.218 146.288C122.791 146.288 122.418 146.437 122.098 146.736C121.778 147.035 121.618 147.429 121.618 147.92V152.144ZM131.444 166L135.156 156.432L135.092 156.368C134.985 156.453 134.815 156.528 134.58 156.592C134.367 156.635 134.079 156.656 133.716 156.656C133.14 156.656 132.607 156.517 132.116 156.24C131.625 155.963 131.241 155.611 130.964 155.184C130.815 154.971 130.697 154.747 130.612 154.512C130.527 154.256 130.463 153.936 130.42 153.552C130.356 153.168 130.313 152.688 130.292 152.112C130.271 151.515 130.26 150.768 130.26 149.872C130.26 149.125 130.271 148.517 130.292 148.048C130.313 147.557 130.356 147.141 130.42 146.8C130.463 146.48 130.527 146.203 130.612 145.968C130.719 145.733 130.847 145.488 130.996 145.232C131.423 144.528 131.988 143.984 132.692 143.6C133.417 143.216 134.228 143.024 135.124 143.024C136.02 143.024 136.82 143.227 137.524 143.632C138.228 144.016 138.793 144.549 139.22 145.232C139.369 145.488 139.497 145.733 139.604 145.968C139.711 146.203 139.796 146.48 139.86 146.8C139.903 147.141 139.935 147.557 139.956 148.048C139.977 148.517 139.988 149.125 139.988 149.872C139.988 150.576 139.977 151.163 139.956 151.632C139.935 152.08 139.903 152.464 139.86 152.784C139.796 153.125 139.721 153.435 139.636 153.712C139.572 153.968 139.487 154.245 139.38 154.544L135.092 166H131.444ZM133.524 152.144C133.524 152.635 133.684 153.029 134.004 153.328C134.324 153.627 134.697 153.776 135.124 153.776C135.551 153.776 135.924 153.627 136.244 153.328C136.564 153.029 136.724 152.635 136.724 152.144V147.92C136.724 147.429 136.564 147.035 136.244 146.736C135.924 146.437 135.551 146.288 135.124 146.288C134.697 146.288 134.324 146.437 134.004 146.736C133.684 147.035 133.524 147.429 133.524 147.92V152.144ZM143.35 166L147.062 156.432L146.998 156.368C146.891 156.453 146.721 156.528 146.486 156.592C146.273 156.635 145.985 156.656 145.622 156.656C145.046 156.656 144.513 156.517 144.022 156.24C143.531 155.963 143.147 155.611 142.87 155.184C142.721 154.971 142.603 154.747 142.518 154.512C142.433 154.256 142.369 153.936 142.326 153.552C142.262 153.168 142.219 152.688 142.198 152.112C142.177 151.515 142.166 150.768 142.166 149.872C142.166 149.125 142.177 148.517 142.198 148.048C142.219 147.557 142.262 147.141 142.326 146.8C142.369 146.48 142.433 146.203 142.518 145.968C142.625 145.733 142.753 145.488 142.902 145.232C143.329 144.528 143.894 143.984 144.598 143.6C145.323 143.216 146.134 143.024 147.03 143.024C147.926 143.024 148.726 143.227 149.43 143.632C150.134 144.016 150.699 144.549 151.126 145.232C151.275 145.488 151.403 145.733 151.51 145.968C151.617 146.203 151.702 146.48 151.766 146.8C151.809 147.141 151.841 147.557 151.862 148.048C151.883 148.517 151.894 149.125 151.894 149.872C151.894 150.576 151.883 151.163 151.862 151.632C151.841 152.08 151.809 152.464 151.766 152.784C151.702 153.125 151.627 153.435 151.542 153.712C151.478 153.968 151.393 154.245 151.286 154.544L146.998 166H143.35ZM145.43 152.144C145.43 152.635 145.59 153.029 145.91 153.328C146.23 153.627 146.603 153.776 147.03 153.776C147.457 153.776 147.83 153.627 148.15 153.328C148.47 153.029 148.63 152.635 148.63 152.144V147.92C148.63 147.429 148.47 147.035 148.15 146.736C147.83 146.437 147.457 146.288 147.03 146.288C146.603 146.288 146.23 146.437 145.91 146.736C145.59 147.035 145.43 147.429 145.43 147.92V152.144ZM155.256 166L158.968 156.432L158.904 156.368C158.798 156.453 158.627 156.528 158.392 156.592C158.179 156.635 157.891 156.656 157.528 156.656C156.952 156.656 156.419 156.517 155.928 156.24C155.438 155.963 155.054 155.611 154.776 155.184C154.627 154.971 154.51 154.747 154.424 154.512C154.339 154.256 154.275 153.936 154.232 153.552C154.168 153.168 154.126 152.688 154.104 152.112C154.083 151.515 154.072 150.768 154.072 149.872C154.072 149.125 154.083 148.517 154.104 148.048C154.126 147.557 154.168 147.141 154.232 146.8C154.275 146.48 154.339 146.203 154.424 145.968C154.531 145.733 154.659 145.488 154.808 145.232C155.235 144.528 155.8 143.984 156.504 143.6C157.23 143.216 158.04 143.024 158.936 143.024C159.832 143.024 160.632 143.227 161.336 143.632C162.04 144.016 162.606 144.549 163.032 145.232C163.182 145.488 163.31 145.733 163.416 145.968C163.523 146.203 163.608 146.48 163.672 146.8C163.715 147.141 163.747 147.557 163.768 148.048C163.79 148.517 163.8 149.125 163.8 149.872C163.8 150.576 163.79 151.163 163.768 151.632C163.747 152.08 163.715 152.464 163.672 152.784C163.608 153.125 163.534 153.435 163.448 153.712C163.384 153.968 163.299 154.245 163.192 154.544L158.904 166H155.256ZM157.336 152.144C157.336 152.635 157.496 153.029 157.816 153.328C158.136 153.627 158.51 153.776 158.936 153.776C159.363 153.776 159.736 153.627 160.056 153.328C160.376 153.029 160.536 152.635 160.536 152.144V147.92C160.536 147.429 160.376 147.035 160.056 146.736C159.736 146.437 159.363 146.288 158.936 146.288C158.51 146.288 158.136 146.437 157.816 146.736C157.496 147.035 157.336 147.429 157.336 147.92V152.144Z" fill="#189193"/>
</g>
<defs>
<clipPath id="clip0_12_3251">
<rect width="239" height="180" fill="white"/>
</clipPath>
</defs>
</svg>
