<svg width="276" height="196" viewBox="0 0 276 196" fill="none" xmlns="http://www.w3.org/2000/svg">
<g clip-path="url(#clip0_12_2470)">
<path d="M274.48 182.14C274.449 182.22 274.389 182.285 274.31 182.321C274.232 182.357 274.143 182.36 274.062 182.33L15.9986 86.5217C15.918 86.4916 15.8528 86.4309 15.8171 86.3529C15.7814 86.2748 15.7782 86.1858 15.8082 86.1054C15.8382 86.025 15.8989 85.9597 15.977 85.9239C16.0552 85.8882 16.1444 85.8848 16.225 85.9145L274.289 181.723C274.369 181.753 274.434 181.814 274.47 181.892C274.506 181.97 274.509 182.059 274.48 182.14Z" fill="#F2F2F2"/>
<path d="M137.011 0H75.5185C70.6947 0.00544572 66.0701 1.91973 62.6592 5.32289C59.2482 8.72604 57.3296 13.3401 57.3241 18.1529V23.6985C57.1979 23.6638 57.0654 23.6589 56.9369 23.6842C56.8085 23.7094 56.6877 23.7641 56.5841 23.8438C56.4804 23.9236 56.3968 24.0264 56.3398 24.1439C56.2828 24.2615 56.2539 24.3907 56.2556 24.5213V28.7858C56.2539 28.9164 56.2828 29.0456 56.3398 29.1632C56.3968 29.2807 56.4804 29.3835 56.5841 29.4633C56.6877 29.5431 56.8085 29.5977 56.9369 29.623C57.0654 29.6482 57.1979 29.6433 57.3241 29.6086V36.0658C57.1979 36.0311 57.0654 36.0262 56.9369 36.0514C56.8085 36.0766 56.6877 36.1313 56.584 36.2111C56.4804 36.2909 56.3968 36.3936 56.3398 36.5112C56.2828 36.6287 56.2539 36.7579 56.2556 36.8885V47.5499C56.2539 47.6805 56.2828 47.8097 56.3398 47.9273C56.3968 48.0449 56.4804 48.1476 56.584 48.2274C56.6877 48.3072 56.8085 48.3619 56.9369 48.3871C57.0654 48.4123 57.1979 48.4074 57.3241 48.3727V52.2711C57.1979 52.2365 57.0654 52.2315 56.9369 52.2567C56.8085 52.282 56.6877 52.3366 56.584 52.4164C56.4804 52.4962 56.3968 52.599 56.3398 52.7165C56.2828 52.8341 56.2539 52.9633 56.2556 53.0939V63.7553C56.2539 63.8859 56.2828 64.0151 56.3398 64.1327C56.3968 64.2502 56.4804 64.353 56.584 64.4328C56.6877 64.5126 56.8085 64.5672 56.9369 64.5924C57.0654 64.6177 57.1979 64.6127 57.3241 64.578V177.164C57.3296 181.977 59.2482 186.591 62.6592 189.994C66.0701 193.397 70.6947 195.312 75.5185 195.317H137.011C141.835 195.312 146.46 193.397 149.87 189.994C153.281 186.591 155.2 181.977 155.205 177.164V18.1529C155.2 13.3401 153.281 8.72604 149.87 5.32289C146.46 1.91973 141.835 0.00544572 137.011 0ZM151.359 177.164C151.354 180.959 149.841 184.598 147.152 187.282C144.462 189.965 140.815 191.475 137.011 191.479H75.5185C71.7146 191.475 68.0678 189.965 65.3781 187.282C62.6883 184.598 61.1753 180.959 61.171 177.164V18.1529C61.1753 14.3577 62.6883 10.7192 65.3781 8.03558C68.0678 5.35196 71.7146 3.84242 75.5185 3.83811H137.011C140.815 3.84241 144.462 5.35196 147.152 8.03558C149.841 10.7192 151.354 14.3577 151.359 18.1529V177.164Z" fill="#3F3D56"/>
<path d="M137.011 193.611H75.5185C71.148 193.606 66.958 191.872 63.8676 188.789C60.7772 185.705 59.0388 181.525 59.0339 177.164V18.1529C59.0388 13.7924 60.7772 9.61189 63.8676 6.52853C66.958 3.44517 71.148 1.71076 75.5185 1.70581H137.011C141.382 1.71076 145.572 3.44516 148.662 6.52852C151.752 9.61188 153.491 13.7924 153.496 18.1529V177.164C153.491 181.525 151.752 185.705 148.662 188.789C145.572 191.872 141.382 193.606 137.011 193.611Z" fill="#E6E6E6"/>
<path d="M138.531 191.053H73.999C71.0513 191.049 68.2253 189.88 66.1409 187.8C64.0566 185.72 62.8841 182.901 62.8807 179.96V15.3575C62.8841 12.4165 64.0565 9.5969 66.1409 7.51731C68.2252 5.43771 71.0512 4.26793 73.9989 4.2646H82.4146C82.9018 4.26515 83.3689 4.4585 83.7134 4.80223C84.0579 5.14595 84.2517 5.61198 84.2522 6.09807C84.2538 7.53407 84.8263 8.91079 85.844 9.9262C86.8617 10.9416 88.2416 11.5128 89.6809 11.5144H121.994C123.433 11.5128 124.813 10.9416 125.831 9.9262C126.848 8.91079 127.421 7.53406 127.423 6.09806C127.423 5.61197 127.617 5.14594 127.961 4.80222C128.306 4.4585 128.773 4.26515 129.26 4.26459H138.531C141.478 4.26792 144.304 5.4377 146.389 7.51729C148.473 9.59689 149.646 12.4165 149.649 15.3575V179.96C149.646 182.901 148.473 185.72 146.389 187.8C144.304 189.88 141.478 191.049 138.531 191.053Z" fill="white"/>
<path d="M109.043 7.99605H101.349C101.123 7.99605 100.905 7.90619 100.745 7.74624C100.585 7.58629 100.495 7.36934 100.495 7.14314C100.495 6.91693 100.585 6.69999 100.745 6.54003C100.905 6.38008 101.123 6.29022 101.349 6.29022H109.043C109.27 6.29022 109.487 6.38008 109.648 6.54003C109.808 6.69999 109.898 6.91693 109.898 7.14314C109.898 7.36934 109.808 7.58629 109.648 7.74624C109.487 7.90619 109.27 7.99605 109.043 7.99605Z" fill="white"/>
<path d="M114.386 7.78285C114.622 7.78285 114.813 7.59191 114.813 7.35639C114.813 7.12086 114.622 6.92993 114.386 6.92993C114.15 6.92993 113.958 7.12086 113.958 7.35639C113.958 7.59191 114.15 7.78285 114.386 7.78285Z" fill="white"/>
<path d="M151.728 37.5801H60.7168V38.552H151.728V37.5801Z" fill="#E6E6E6"/>
<path d="M151.728 57.0182H60.7168V57.9901H151.728V57.0182Z" fill="#E6E6E6"/>
<path d="M151.728 97.1901H60.7168V98.162H151.728V97.1901Z" fill="#E6E6E6"/>
<path d="M151.728 137.362H60.7168V138.334H151.728V137.362Z" fill="#E6E6E6"/>
<path d="M151.728 168.787H60.7168V169.759H151.728V168.787Z" fill="#E6E6E6"/>
<path d="M126.811 38.0661H125.837V97.676H126.811V38.0661Z" fill="#E6E6E6"/>
<path d="M81.2501 97.6587H80.2759V169.273H81.2501V97.6587Z" fill="#E6E6E6"/>
<path d="M149.649 117.303H80.763V118.275H149.649V117.303Z" fill="#E6E6E6"/>
<path d="M126.916 169.273H125.942V191.053H126.916V169.273Z" fill="#E6E6E6"/>
<path d="M126.162 77.5022H62.7183V78.4741H126.162V77.5022Z" fill="#E6E6E6"/>
<path d="M75.9678 3.65048L75.0692 4.0257L89.4259 38.2537L90.3245 37.8785L75.9678 3.65048Z" fill="#E6E6E6"/>
<path d="M120.184 11.5143H119.21V38.0661H120.184V11.5143Z" fill="#E6E6E6"/>
<path d="M145.303 52.8066C145.303 61.515 131.808 81.8069 127.865 87.551C127.746 87.7247 127.586 87.8667 127.399 87.9649C127.213 88.0631 127.005 88.1144 126.794 88.1144C126.584 88.1144 126.376 88.0631 126.19 87.9649C126.003 87.8667 125.843 87.7247 125.724 87.551C121.781 81.8069 108.286 61.515 108.286 52.8066C108.286 47.9091 110.236 43.2122 113.707 39.7491C117.178 36.286 121.886 34.3405 126.794 34.3405C131.703 34.3405 136.411 36.286 139.882 39.7491C143.353 43.2122 145.303 47.9091 145.303 52.8066Z" fill="#189193"/>
<path d="M126.795 60.9058C131.995 60.9058 136.211 56.6995 136.211 51.5108C136.211 46.322 131.995 42.1157 126.795 42.1157C121.594 42.1157 117.378 46.322 117.378 51.5108C117.378 56.6995 121.594 60.9058 126.795 60.9058Z" fill="white"/>
<path d="M126.178 97.9555L90.5165 169.044L91.3875 169.479L127.049 98.3904L126.178 97.9555Z" fill="#E6E6E6"/>
<path d="M177.536 113.593C177.956 113.818 178.421 113.949 178.898 113.976C179.374 114.003 179.851 113.925 180.294 113.748C180.738 113.571 181.136 113.299 181.463 112.952C181.79 112.605 182.036 112.19 182.185 111.738L193.786 111.538L190.38 106.573L179.885 107.524C179.107 107.326 178.282 107.419 177.568 107.786C176.853 108.153 176.299 108.769 176.009 109.517C175.72 110.265 175.715 111.093 175.996 111.844C176.278 112.595 176.826 113.217 177.536 113.593Z" fill="#FFB8B8"/>
<path d="M184.5 113.448C184.321 113.448 184.143 113.412 183.977 113.341C183.812 113.271 183.663 113.168 183.538 113.038C183.414 112.908 183.317 112.755 183.254 112.587C183.191 112.419 183.162 112.24 183.17 112.061L183.404 106.753C183.417 106.437 183.543 106.136 183.759 105.905C183.975 105.673 184.268 105.527 184.583 105.492L198.023 103.954L197.572 112.799L184.566 113.446C184.544 113.447 184.522 113.448 184.5 113.448Z" fill="#6CCAD0"/>
<path d="M200.869 186.202L197.085 187.435L190.517 173.459L196.102 171.639L200.869 186.202Z" fill="#FFB8B8"/>
<path d="M203.032 189.547L190.831 193.523L190.78 193.369C190.576 192.747 190.498 192.09 190.548 191.438C190.598 190.785 190.777 190.149 191.074 189.565C191.371 188.981 191.78 188.462 192.279 188.036C192.777 187.61 193.354 187.286 193.978 187.083L201.431 184.654L203.032 189.547Z" fill="#2F2E41"/>
<path d="M212.015 192.046L208.034 192.046L206.14 176.726L212.015 176.727L212.015 192.046Z" fill="#FFB8B8"/>
<path d="M213.03 195.896L200.194 195.896V195.734C200.194 195.079 200.323 194.431 200.574 193.826C200.825 193.222 201.193 192.672 201.657 192.209C202.121 191.746 202.672 191.379 203.278 191.129C203.884 190.878 204.534 190.749 205.19 190.749H205.191L213.03 190.75L213.03 195.896Z" fill="#2F2E41"/>
<path d="M205.969 188.318C205.643 188.317 205.329 188.198 205.086 187.982C204.842 187.767 204.687 187.47 204.648 187.147L199.515 144.337L192.002 156.37L200.817 178.845C200.937 179.156 200.936 179.5 200.815 179.811C200.694 180.121 200.462 180.375 200.163 180.523L192.685 184.174C192.514 184.257 192.328 184.303 192.138 184.308C191.948 184.314 191.759 184.279 191.584 184.205C191.408 184.132 191.251 184.022 191.122 183.882C190.993 183.743 190.896 183.578 190.836 183.398L182.549 158.417C181.924 156.537 181.843 154.52 182.313 152.596L187.672 130.657L187.735 130.622L199.813 124.021L199.882 124.047L214.107 129.227L212.618 157.353L213.7 186.545C213.715 186.891 213.592 187.23 213.359 187.487C213.125 187.745 212.799 187.9 212.452 187.92L206.052 188.315C206.024 188.317 205.996 188.318 205.969 188.318Z" fill="#2F2E41"/>
<path d="M198.133 138.993C196.008 138.993 194.217 138.389 193.097 136.854L193.061 136.805L193.786 129.215L187.339 132.786C187.205 132.86 187.052 132.891 186.9 132.876C186.748 132.86 186.604 132.798 186.488 132.699C186.373 132.599 186.29 132.466 186.252 132.318C186.215 132.171 186.223 132.015 186.277 131.872L194.318 110.568L199.626 93.2143C199.89 91.8254 200.57 90.549 201.576 89.5541C202.583 88.5593 203.868 87.8929 205.263 87.6433C209.992 86.7766 212.809 88.3687 216.061 91.9018C216.848 92.7615 217.427 93.7891 217.755 94.9062C218.083 96.0234 218.151 97.2004 217.953 98.3476L214.876 115.894L215.78 131.626C215.849 131.897 215.831 132.183 215.727 132.443C215.623 132.703 215.44 132.924 215.203 133.074C212.688 134.671 204.977 138.993 198.133 138.993Z" fill="#6CCAD0"/>
<path d="M208.892 85.0157C213.297 85.0157 216.867 81.4533 216.867 77.0588C216.867 72.6643 213.297 69.1018 208.892 69.1018C204.488 69.1018 200.917 72.6643 200.917 77.0588C200.917 81.4533 204.488 85.0157 208.892 85.0157Z" fill="#FFB8B8"/>
<path d="M210.97 133.778C211.404 133.58 211.789 133.289 212.098 132.926C212.407 132.563 212.632 132.136 212.758 131.677C212.884 131.218 212.908 130.736 212.827 130.267C212.747 129.798 212.564 129.351 212.292 128.96L219.131 119.608L213.109 119.323L207.537 128.248C206.908 128.747 206.485 129.459 206.348 130.249C206.21 131.039 206.368 131.852 206.791 132.534C207.214 133.216 207.873 133.719 208.643 133.948C209.414 134.178 210.241 134.117 210.97 133.778Z" fill="#FFB8B8"/>
<path d="M214.674 128.501C214.34 128.548 214.001 128.468 213.724 128.275L209.196 125.125C208.924 124.937 208.732 124.654 208.658 124.332C208.584 124.01 208.634 123.672 208.797 123.385L216.858 109.075L208.751 99.338C208.325 98.8267 208.01 98.2325 207.827 97.5934C207.644 96.9542 207.597 96.284 207.687 95.6254C207.778 94.9668 208.005 94.3343 208.354 93.7681C208.704 93.2019 209.167 92.7145 209.715 92.3367C210.264 91.959 210.885 91.6993 211.539 91.5741C212.193 91.4489 212.867 91.461 213.516 91.6096C214.165 91.7582 214.777 92.0401 215.311 92.4373C215.845 92.8345 216.291 93.3383 216.619 93.9167L225.571 109.681C225.635 109.794 225.668 109.92 225.668 110.049C225.668 110.178 225.635 110.305 225.571 110.417L215.643 127.842C215.551 128.003 215.427 128.143 215.278 128.253C215.13 128.363 214.96 128.441 214.779 128.481C214.744 128.49 214.709 128.496 214.674 128.501Z" fill="#6CCAD0"/>
<path d="M205.705 76.0429C204.916 75.4551 203.823 75.5468 202.888 75.2387C202.331 75.0553 201.832 74.729 201.442 74.2925C201.051 73.8561 200.782 73.3249 200.663 72.7522C200.543 72.1795 200.576 71.5854 200.759 71.0295C200.942 70.4736 201.268 69.9754 201.704 69.5849C202.714 68.6818 204.152 68.4769 205.498 68.3117C207.342 68.0853 209.204 67.8586 211.053 68.0386C212.903 68.2186 214.764 68.8418 216.116 70.1138C217.606 71.5163 218.34 73.604 218.345 75.6481C218.293 77.7016 217.728 79.7098 216.701 81.4903C216.384 82.1669 215.906 82.7557 215.308 83.2055C214.686 83.6151 213.809 83.7223 213.21 83.2799C212.692 82.8975 212.503 82.2277 212.269 81.6288C212.035 81.0299 211.636 80.392 210.998 80.2996C210.177 80.1806 209.551 81.0136 208.767 81.2861C207.672 81.6673 206.454 80.8242 206.008 79.7558C205.561 78.6873 205.678 77.4785 205.804 76.3275" fill="#2F2E41"/>
<path d="M276 195.676C276 195.762 275.965 195.844 275.905 195.905C275.844 195.966 275.761 196 275.675 196H0.324706C0.238589 196 0.155998 195.966 0.0951039 195.905C0.0342097 195.844 0 195.762 0 195.676C0 195.59 0.0342097 195.508 0.0951039 195.447C0.155998 195.386 0.238589 195.352 0.324706 195.352H275.675C275.761 195.352 275.844 195.386 275.905 195.447C275.965 195.508 276 195.59 276 195.676Z" fill="#CCCCCC"/>
<path d="M126.794 101.726C129.126 101.726 131.016 99.84 131.016 97.5141C131.016 95.1881 129.126 93.3025 126.794 93.3025C124.463 93.3025 122.573 95.1881 122.573 97.5141C122.573 99.84 124.463 101.726 126.794 101.726Z" fill="#189193"/>
<path d="M186.222 51.4658C184.459 53.8099 176.719 56.5528 174.494 57.3043C174.427 57.3271 174.355 57.3331 174.285 57.322C174.215 57.3108 174.149 57.2828 174.092 57.2403C174.035 57.1978 173.99 57.1422 173.959 57.0782C173.929 57.0142 173.915 56.9438 173.918 56.8731C174.019 54.5321 174.495 46.3503 176.258 44.0061C177.249 42.6878 178.725 41.8164 180.36 41.5837C181.996 41.3509 183.657 41.7759 184.978 42.7651C186.299 43.7543 187.173 45.2267 187.406 46.8584C187.639 48.4901 187.213 50.1474 186.222 51.4658Z" fill="#F2F2F2"/>
<path d="M181.502 50.5489C183.252 50.5489 184.671 49.1333 184.671 47.3871C184.671 45.6409 183.252 44.2253 181.502 44.2253C179.752 44.2253 178.333 45.6409 178.333 47.3871C178.333 49.1333 179.752 50.5489 181.502 50.5489Z" fill="white"/>
<path d="M172.189 61.188C172.974 61.188 173.61 60.5534 173.61 59.7706C173.61 58.9878 172.974 58.3533 172.189 58.3533C171.405 58.3533 170.769 58.9878 170.769 59.7706C170.769 60.5534 171.405 61.188 172.189 61.188Z" fill="#F2F2F2"/>
<path d="M31.7163 115.766C34.3104 119.721 34.2275 132.937 34.1479 136.715C34.1456 136.829 34.1154 136.941 34.06 137.04C34.0046 137.14 33.9256 137.225 33.8298 137.288C33.7341 137.35 33.6245 137.389 33.5106 137.399C33.3967 137.41 33.2819 137.393 33.1761 137.349C29.6742 135.91 17.5017 130.698 14.9075 126.743C14.1841 125.642 13.6853 124.41 13.4395 123.116C13.1938 121.822 13.2059 120.493 13.4752 119.204C13.7445 117.915 14.2657 116.692 15.0091 115.604C15.7524 114.516 16.7033 113.585 17.8074 112.864C18.9116 112.143 20.1473 111.646 21.444 111.402C22.7407 111.158 24.0729 111.17 25.3646 111.44C26.6562 111.71 27.882 112.23 28.9719 112.973C30.0617 113.715 30.9943 114.664 31.7163 115.766Z" fill="#F2F2F2"/>
<path d="M22.9259 125.765C25.7483 125.765 28.0363 123.482 28.0363 120.666C28.0363 117.85 25.7483 115.568 22.9259 115.568C20.1035 115.568 17.8155 117.85 17.8155 120.666C17.8155 123.482 20.1035 125.765 22.9259 125.765Z" fill="white"/>
<path d="M36.63 143.842C37.8952 143.842 38.9208 142.818 38.9208 141.556C38.9208 140.294 37.8952 139.27 36.63 139.27C35.3648 139.27 34.3391 140.294 34.3391 141.556C34.3391 142.818 35.3648 143.842 36.63 143.842Z" fill="#F2F2F2"/>
</g>
<defs>
<clipPath id="clip0_12_2470">
<rect width="276" height="196" fill="white"/>
</clipPath>
</defs>
</svg>
