<svg width="230" height="233" viewBox="0 0 230 233" fill="none" xmlns="http://www.w3.org/2000/svg">
<g clip-path="url(#clip0_12_3305)">
<path d="M58.0185 223.589C57.7647 223.601 57.5135 223.534 57.2989 223.397C57.0842 223.261 56.9165 223.061 56.8185 222.825C56.7205 222.59 56.6969 222.329 56.7509 222.08C56.805 221.83 56.934 221.603 57.1205 221.43C57.1518 221.305 57.1742 221.215 57.2054 221.09C56.9626 220.47 56.541 219.937 55.9947 219.559C55.4484 219.181 54.8024 218.975 54.1393 218.969C53.4763 218.963 52.8265 219.156 52.2732 219.523C51.72 219.891 51.2884 220.416 51.034 221.032C49.5655 224.488 47.665 228.066 48.6101 231.873C42.367 218.568 44.4901 202.017 53.7167 190.639C56.267 189.226 58.3341 186.716 58.8723 183.802C57.6101 184.232 56.0364 183.2 56.9854 181.863C57.3967 181.352 57.8121 180.845 58.2234 180.334C53.4288 175.199 47.7161 183.269 52.9936 190.199C51.2672 192.376 49.7718 194.728 48.5318 197.217C48.8181 194.574 48.4764 191.9 47.5346 189.415C46.5801 187.1 44.791 185.15 43.2155 183.148C41.2999 180.709 37.3574 181.834 37.0996 184.93C38.8675 185.514 39.0972 188.082 37.075 188.433C37.6046 194.191 41.3455 199.483 46.4978 202.008C44.5951 207.376 43.8521 213.09 44.3184 218.77C43.409 212.132 36.323 210.521 31.3703 207.883C31.055 207.68 30.6878 207.573 30.3133 207.576C29.9389 207.579 29.5734 207.692 29.2614 207.9C28.9495 208.109 28.7046 208.404 28.5566 208.75C28.4086 209.095 28.3639 209.477 28.428 209.848C29.1116 210.128 29.7659 210.475 30.3812 210.884C30.6695 211.079 30.8908 211.359 31.0148 211.686C31.1388 212.012 31.1593 212.369 31.0736 212.707C30.988 213.046 30.8002 213.35 30.5362 213.577C30.2721 213.804 29.9447 213.943 29.5988 213.976C32.0953 220.189 38.5497 224.361 45.1789 224.338C45.8159 227.121 46.7389 229.831 47.9331 232.423H57.772C57.8073 232.313 57.839 232.199 57.8707 232.089C56.96 232.147 56.0457 232.092 55.1483 231.926C57.5577 229.058 59.4211 227.594 58.0188 223.589L58.0185 223.589Z" fill="#F2F2F2"/>
<path d="M145.735 223.589C145.988 223.601 146.24 223.534 146.454 223.397C146.669 223.261 146.837 223.061 146.935 222.825C147.033 222.59 147.056 222.329 147.002 222.08C146.948 221.83 146.819 221.603 146.633 221.43C146.601 221.305 146.579 221.215 146.548 221.09C146.791 220.47 147.212 219.937 147.758 219.559C148.305 219.181 148.951 218.975 149.614 218.969C150.277 218.963 150.927 219.156 151.48 219.523C152.033 219.891 152.465 220.416 152.719 221.032C154.188 224.488 156.088 228.066 155.143 231.873C161.386 218.568 159.263 202.017 150.036 190.639C147.486 189.226 145.419 186.716 144.881 183.802C146.143 184.232 147.717 183.2 146.768 181.863C146.356 181.352 145.941 180.845 145.53 180.334C150.324 175.199 156.037 183.269 150.76 190.199C152.486 192.376 153.981 194.728 155.221 197.217C154.935 194.574 155.277 191.9 156.219 189.415C157.173 187.1 158.962 185.15 160.538 183.148C162.453 180.709 166.396 181.834 166.653 184.93C164.886 185.514 164.656 188.082 166.678 188.433C166.149 194.191 162.408 199.483 157.255 202.008C159.158 207.376 159.901 213.09 159.435 218.77C160.344 212.132 167.43 210.521 172.383 207.883C172.698 207.68 173.065 207.573 173.44 207.576C173.814 207.579 174.18 207.692 174.492 207.9C174.804 208.109 175.049 208.404 175.197 208.75C175.345 209.095 175.389 209.477 175.325 209.848C174.642 210.128 173.987 210.475 173.372 210.884C173.084 211.079 172.862 211.359 172.738 211.686C172.614 212.012 172.594 212.369 172.679 212.707C172.765 213.046 172.953 213.35 173.217 213.577C173.481 213.804 173.808 213.943 174.154 213.976C171.658 220.189 165.203 224.361 158.574 224.338C157.937 227.121 157.014 229.831 155.82 232.423H145.981C145.946 232.313 145.914 232.199 145.882 232.089C146.793 232.147 147.707 232.092 148.605 231.926C146.195 229.058 144.332 227.594 145.735 223.589Z" fill="#F2F2F2"/>
<path d="M149.383 225.058L145.146 226.027L139.411 210.054L145.664 208.624L149.383 225.058Z" fill="#FFB6B6"/>
<path d="M150.538 229.469L137.508 232.45L137.47 232.284C137.164 230.932 137.405 229.512 138.14 228.338C138.875 227.164 140.043 226.332 141.388 226.024L143.357 223.664L148.209 224.463L149.346 224.203L150.538 229.469Z" fill="#2F2E41"/>
<path d="M217.735 147.2L220.064 150.888L207.024 161.679L203.586 156.235L217.735 147.2Z" fill="#FFB6B6"/>
<path d="M221.48 144.626L228.643 155.969L228.501 156.06C227.336 156.804 225.926 157.052 224.579 156.75C223.233 156.447 222.061 155.62 221.322 154.449L218.45 153.375L217.572 148.511L216.946 147.521L221.48 144.626Z" fill="#2F2E41"/>
<path d="M82.6691 107.763L81.6226 101.663L97.5331 94.4385L100.969 88.3212C100.858 87.7844 100.897 87.2272 101.081 86.7111C101.265 86.1951 101.588 85.7403 102.013 85.3969C102.438 85.0536 102.949 84.8351 103.49 84.7656C104.031 84.6961 104.58 84.7782 105.078 85.003C105.575 85.2277 106.001 85.5863 106.308 86.0392C106.615 86.492 106.792 87.0215 106.819 87.5691C106.846 88.1167 106.722 88.6611 106.461 89.1422C106.199 89.6234 105.81 90.0224 105.338 90.2954L99.6853 99.0827L82.6691 107.763Z" fill="#A0616A"/>
<path d="M77.8326 102.776L84.9976 99.0959L86.8943 106.257L81.9175 109.967L77.8326 102.776Z" fill="#189193"/>
<path d="M61.7548 224.504L66.0869 224.503L68.1479 207.7L61.7538 207.701L61.7548 224.504Z" fill="#A0616A"/>
<path d="M67.5286 224.896V221.942L66.3897 222.012L61.7535 222.289L60.6805 222.355L59.8602 232.246L59.8163 232.776H62.8924L62.9913 232.25L63.438 229.856L64.5916 232.25L64.8443 232.776H72.9997C73.485 232.773 73.9495 232.578 74.2923 232.232C74.6352 231.887 74.8286 231.419 74.8307 230.931C75.175 229.315 68.3928 225.82 67.5286 224.896Z" fill="#2F2E41"/>
<path d="M10.3297 157.819L9.31982 162.056L25.0889 167.989L26.5793 161.736L10.3297 157.819Z" fill="#A0616A"/>
<path d="M8.94713 163.374L11.8032 164.062L12.001 162.932L12.8149 158.334L13.001 157.27L3.62709 154.161L3.12452 153.995L2.40729 157.003L2.89347 157.222L5.10404 158.217L2.52034 158.787L1.95219 158.911L0.0506753 166.886C-0.0594903 167.361 0.0212392 167.861 0.275349 168.277C0.52946 168.693 0.936424 168.991 1.40787 169.107C2.89094 169.82 7.85178 164.003 8.94713 163.374Z" fill="#2F2E41"/>
<path d="M68.4534 115.755L62.8771 113.134L51.7569 126.666L44.9834 128.389C44.4976 128.14 43.9529 128.03 43.4093 128.073C42.8657 128.116 42.3445 128.309 41.9032 128.631C41.4619 128.953 41.1176 129.391 40.9085 129.898C40.6994 130.404 40.6336 130.959 40.7183 131.5C40.8029 132.042 41.0349 132.55 41.3884 132.967C41.7419 133.384 42.2033 133.695 42.7216 133.866C43.2398 134.036 43.7948 134.059 44.3253 133.932C44.8557 133.805 45.3409 133.533 45.7272 133.146L55.6458 129.977L68.4534 115.755Z" fill="#A0616A"/>
<path d="M100.024 160.763C86.166 160.763 70.2394 145.298 56.1482 152.646C13.484 174.892 19.3569 137.667 7.09985 123.822L7.50226 123.011C21.0265 135.205 37.9121 145.126 56.3335 151.702C72.9807 157.645 89.7527 160.398 104.83 159.672L104.856 160.647C103.264 160.725 101.653 160.763 100.024 160.763Z" fill="#F2F2F2"/>
<path d="M81.0142 56.2078C82.614 56.2078 83.911 54.4591 83.911 52.3018C83.911 50.1446 82.614 48.3958 81.0142 48.3958C79.4144 48.3958 78.1174 50.1446 78.1174 52.3018C78.1174 54.4591 79.4144 56.2078 81.0142 56.2078Z" fill="#118899"/>
<path d="M114.472 117.142C113.147 118.03 111.792 115.918 113.142 115.07C114.466 114.183 115.821 116.294 114.472 117.142Z" fill="#6CCAD0"/>
<path d="M106.849 46.0447C108.932 46.0447 110.621 44.3465 110.621 42.2516C110.621 40.1567 108.932 38.4585 106.849 38.4585C104.765 38.4585 103.077 40.1567 103.077 42.2516C103.077 44.3465 104.765 46.0447 106.849 46.0447Z" fill="#6CCAD0"/>
<path opacity="0.3" d="M120.042 63.0375L141.507 0L117.937 62.2828C117.821 62.4307 117.741 62.6043 117.705 62.7894C117.668 62.9745 117.676 63.1656 117.728 63.347C117.779 63.5283 117.873 63.6947 118.002 63.8323C118.13 63.9699 118.289 64.0747 118.466 64.138C118.643 64.2014 118.832 64.2215 119.018 64.1966C119.204 64.1717 119.381 64.1026 119.535 63.995C119.689 63.8874 119.816 63.7444 119.904 63.5779C119.992 63.4114 120.04 63.2261 120.042 63.0375Z" fill="#F0F0F0"/>
<path d="M98.3766 139.835C100.403 139.835 102.047 138.183 102.047 136.145C102.047 134.107 100.403 132.455 98.3766 132.455C96.3497 132.455 94.7065 134.107 94.7065 136.145C94.7065 138.183 96.3497 139.835 98.3766 139.835Z" fill="#189193"/>
<path d="M62.8314 137.553C62.8314 137.553 53.6821 143.543 56.1014 147.524C56.1849 147.662 45.1727 162.287 45.1727 162.287L24.3843 160.96L23.6519 167.956L42.1591 173.346C42.1591 173.346 46.6868 176.691 50.1845 173.006C53.6822 169.32 65.3326 158.035 65.3326 158.035L65.8946 180.82L60.0461 212.393L68.7785 211.837L77.2779 180.161L80.4152 144.28L62.8314 137.553Z" fill="#2F2E41"/>
<path d="M69.3486 101.598L65.5011 104.53L61.1158 113.942L65.3327 119.7C65.3327 119.7 68.8798 125.882 63.2021 131.868C57.5245 137.855 53.1646 144.249 57.709 144.02C62.2535 143.792 80.6589 153.206 80.78 145.493C80.9011 137.781 81.1462 131.868 81.1462 131.868L85.9717 119.561C85.9717 119.561 88.8466 112.219 86.8281 110.022C84.8097 107.824 82.1071 105.016 82.1071 105.016L77.1924 100.073H72.7547L69.3486 101.598Z" fill="#189193"/>
<path d="M76.5307 83.5148C85.1621 88.4538 78.0761 101.485 69.2838 96.8448C60.6526 91.906 67.7386 78.8746 76.5307 83.5148Z" fill="#A0616A"/>
<path d="M81.1461 86.2533C80.5413 87.0443 79.2778 86.6734 76.8033 87.2378C76.8087 86.3944 76.7118 85.5535 76.5148 84.7337C76.3307 85.7487 75.9272 86.7108 75.3328 87.5519C73.1842 87.7915 75.8181 94.3552 74.718 99.1811C73.3006 89 70.3192 91.6674 71.8254 93.6868C72.7896 94.9795 72.1468 98.8579 69.2541 96.9187C64.4814 99.1996 57.6835 87.8693 65.2176 82.5555C65.083 79.6833 68.2612 79.2296 70.2183 80.1126C74.968 76.5548 80.3944 81.1136 81.1461 86.2533Z" fill="#2F2E41"/>
<path d="M58.9998 78.8244C57.0782 90.7052 46.7781 76.6394 41.9351 88.3313C40.4124 92.5654 43.025 95.5944 44.6776 99.1089C45.0547 101.997 41.3181 103.463 40.9267 106.121C40.8177 112.216 50.597 111.844 53.3308 107.998C56.1399 103.972 52.7855 98.5712 54.4739 94.2502C56.847 88.2511 66.4979 88.2066 67.3387 81.2271C65.7104 78.8955 61.332 76.225 58.9998 78.8244Z" fill="#2F2E41"/>
<path d="M66.7845 79.9854C66.7216 80.012 66.6588 80.0386 66.6025 80.0685H66.5992C66.5463 80.0952 66.4933 80.1218 66.4404 80.1517C66.4338 80.155 66.4305 80.1584 66.4239 80.1617C66.3544 80.0952 66.2849 80.0286 66.2121 79.9621C66.1933 80.0704 66.1978 80.1816 66.2253 80.2881L66.2353 80.3281C66.3014 80.3979 66.3709 80.4645 66.4437 80.5343C66.5099 80.4844 66.5728 80.4312 66.6389 80.3813C66.6786 80.348 66.7183 80.3147 66.7614 80.2815C66.768 80.195 66.7779 80.0951 66.7878 79.9853L66.7845 79.9854ZM68.7764 76.2855C67.3007 75.9462 66.8242 77.8859 66.6819 78.8208C66.1459 75.4271 63.9158 76.4951 64.6868 78.8108C64.9325 79.4964 65.3192 80.1223 65.8217 80.6474C65.8911 80.7273 65.9672 80.8071 66.0467 80.887C65.9573 81.3528 66.4073 81.233 67.0161 80.8038C67.4657 80.4823 67.8814 80.1156 68.2569 79.7092C69.4712 78.4282 70.4175 76.7147 68.7764 76.2855ZM68.8227 78.1953C68.3674 78.7857 67.8566 79.3305 67.2974 79.8223C67.122 79.982 66.9433 80.1351 66.7614 80.2815C66.7581 80.3114 66.758 80.338 66.7547 80.3613C66.742 80.3936 66.7265 80.4248 66.7084 80.4545C66.5231 80.7905 66.3147 80.6075 66.2353 80.3281C66.2286 80.3181 66.2187 80.3081 66.2121 80.2981C65.9477 80.0234 65.7177 79.7173 65.5272 79.3865C64.1606 77.0042 66.361 75.3839 66.2518 79.8323C66.2317 79.8731 66.2183 79.9169 66.2121 79.9621C66.1933 80.0704 66.1978 80.1816 66.2253 80.2881L66.2353 80.3281C66.3014 80.3979 66.3709 80.4645 66.4437 80.5343C66.5099 80.4844 66.5728 80.4312 66.6389 80.3813C66.6786 80.348 66.7183 80.3147 66.7614 80.2815C66.768 80.195 66.7779 80.0951 66.7878 79.9853V79.982C66.8739 79.0903 67.1088 77.4866 67.5422 77.0508C68.4951 76.3155 69.7293 77.1107 68.8227 78.1953ZM66.7845 79.9854C66.7216 80.012 66.6588 80.0386 66.6025 80.0685H66.5992C66.5463 80.0952 66.4933 80.1218 66.4404 80.1517C66.4338 80.155 66.4305 80.1584 66.4239 80.1617C66.3544 80.0952 66.2849 80.0286 66.2121 79.9621C66.1933 80.0704 66.1978 80.1816 66.2253 80.2881L66.2353 80.3281C66.3014 80.3979 66.3709 80.4645 66.4437 80.5343C66.5099 80.4844 66.5728 80.4312 66.6389 80.3813C66.6786 80.348 66.7183 80.3147 66.7614 80.2815C66.768 80.195 66.7779 80.0951 66.7878 79.9853L66.7845 79.9854Z" fill="#2F2E41"/>
<path d="M146.562 145.488L143.374 153.848L128.42 183.51L141.56 218.016L148.342 216.216L142.752 183.51L158.789 163.917L177.833 176.906C177.833 176.906 186.279 183.536 189.492 177.251C192.705 170.965 213.497 157.595 213.497 157.595L208.353 152.078L184.411 163.345L167.886 139.956L146.562 145.488Z" fill="#2F2E41"/>
<path d="M162.647 106.056L157.4 100.387L148.398 99.1415L137.369 106.906L137.48 115.5L142.932 135.751C142.932 135.751 140.855 150.301 146.656 150.155C152.457 150.009 155.619 147.101 157.981 147.693C160.344 148.285 170.387 150.805 171.024 148.166C171.66 145.526 175.044 147.416 174.895 144.92C174.747 142.423 165.736 124.428 165.736 124.428L167.976 106.43L162.647 106.056Z" fill="#6CCAD0"/>
<path d="M195.873 79.9594C195.92 80.4295 195.864 80.9043 195.709 81.3503C195.553 81.7963 195.303 82.2026 194.974 82.5407C194.646 82.8787 194.248 83.1403 193.808 83.3069C193.369 83.4735 192.898 83.5412 192.429 83.5051L180.362 106.583L177.122 101.582L189.457 79.8013C189.569 79.0138 189.965 78.2952 190.569 77.7815C191.173 77.2679 191.944 76.995 192.735 77.0145C193.526 77.034 194.282 77.3445 194.86 77.8873C195.439 78.43 195.799 79.1673 195.873 79.9594Z" fill="#FFB6B6"/>
<path d="M157.883 110.347C157.883 110.347 157.405 114.452 162 115.468C166.596 116.485 179.329 109.169 181.416 108.051C182.07 107.701 182.957 105.986 183.867 103.795C184.276 102.812 184.689 101.732 185.088 100.637C185.318 100.004 186.424 99.8307 186.641 99.2023C186.857 98.5773 186.186 97.4968 186.382 96.9078C187.312 94.112 187.97 91.894 187.97 91.894L184.924 86.1404C180.664 88.4051 178.479 93.3936 176.872 99.1408L157.883 110.347Z" fill="#6CCAD0"/>
<path d="M104.21 85.259C104.281 85.726 104.454 86.1716 104.715 86.5643C104.976 86.957 105.32 87.2874 105.722 87.532C106.124 87.7767 106.574 87.9298 107.042 87.9805C107.509 88.0311 107.981 87.9782 108.426 87.8253L125.853 107.132L127.745 101.475L110.382 83.4912C110.078 82.7571 109.516 82.161 108.803 81.8157C108.09 81.4705 107.276 81.4002 106.515 81.6181C105.754 81.836 105.099 82.327 104.674 82.998C104.249 83.6691 104.084 84.4736 104.21 85.259Z" fill="#FFB6B6"/>
<path d="M148.553 105.12C148.553 105.12 150.038 108.974 145.842 111.114C141.645 113.255 127.497 109.376 125.198 108.819C124.478 108.645 123.192 107.208 121.766 105.315C121.126 104.466 120.457 103.525 119.798 102.565C119.417 102.009 118.304 102.12 117.937 101.566C117.572 101.016 117.953 99.8007 117.617 99.2797C116.021 96.8069 114.831 94.8252 114.831 94.8252L116.348 88.4882C121.036 89.6088 124.393 93.8887 127.38 99.0486L148.553 105.12Z" fill="#6CCAD0"/>
<path d="M153.079 97.6993C157.809 97.6993 161.643 93.8434 161.643 89.0869C161.643 84.3304 157.809 80.4745 153.079 80.4745C148.348 80.4745 144.514 84.3304 144.514 89.0869C144.514 93.8434 148.348 97.6993 153.079 97.6993Z" fill="#FFB6B6"/>
<path d="M162.855 84.1556C161.954 82.7541 160.264 81.82 158.625 82.0824C158.472 81.0307 158.036 80.0411 157.363 79.2216C156.689 78.402 155.806 77.7839 154.807 77.4344C153.809 77.085 152.735 77.0177 151.701 77.2397C150.667 77.4618 149.714 77.9649 148.945 78.694C148.692 78.515 148.397 78.4046 148.09 78.3736C147.782 78.3426 147.471 78.3921 147.188 78.5172C146.624 78.7751 146.133 79.1712 145.761 79.6693C144.82 80.8486 144.215 82.2623 144.011 83.7599C143.806 85.2575 144.009 86.7829 144.598 88.1738C144.397 87.4415 145.127 86.7527 145.864 86.5884C146.602 86.4241 147.375 86.5795 148.123 86.4725C149.081 86.3354 149.942 85.7764 150.902 85.6506C151.716 85.5973 152.533 85.7028 153.307 85.9612C154.081 86.2196 154.896 86.3297 155.71 86.2858C156.518 86.1894 157.559 89.2678 157.545 91.4361C157.542 91.847 157.626 92.3746 158.026 92.4618C158.517 92.5691 158.802 91.8866 159.27 91.7006C159.486 91.6384 159.717 91.6629 159.916 91.7689C160.114 91.8748 160.263 92.054 160.333 92.2686C160.392 92.4868 160.398 92.716 160.351 92.9371C160.304 93.1583 160.205 93.3649 160.063 93.5399C159.775 93.8869 159.434 94.1849 159.052 94.4223L159.244 94.5835C159.427 94.778 159.672 94.9023 159.936 94.9353C160.2 94.9683 160.468 94.9079 160.692 94.7644C161.134 94.4634 161.492 94.0536 161.732 93.574C162.636 92.1691 163.281 90.6129 163.639 88.9789C163.941 87.338 163.756 85.5572 162.855 84.1556Z" fill="#2F2E41"/>
<path d="M226.217 118.123C215.17 126.537 193.189 123.879 186.368 138.291C165.714 181.928 148.045 148.687 129.962 145.093L129.795 144.201C147.898 145.711 167.315 143.368 185.948 137.426C202.787 132.057 217.811 124.069 229.393 114.336L230 115.098C228.777 116.126 227.516 117.135 226.217 118.123Z" fill="#F2F2F2"/>
<path d="M179.51 232.412C179.247 233.196 29.0229 233.196 28.739 232.414C29.0018 231.628 179.226 231.628 179.51 232.412Z" fill="#CCCCCC"/>
</g>
<defs>
<clipPath id="clip0_12_3305">
<rect width="230" height="233" fill="white"/>
</clipPath>
</defs>
</svg>
