<svg width="276" height="180" viewBox="0 0 276 180" fill="none" xmlns="http://www.w3.org/2000/svg">
<g clip-path="url(#clip0_12_2137)">
<path d="M37.4582 179.855C58.1458 179.855 74.9164 177.909 74.9164 175.509C74.9164 173.108 58.1458 171.163 37.4582 171.163C16.7706 171.163 0 173.108 0 175.509C0 177.909 16.7706 179.855 37.4582 179.855Z" fill="#E6E6E6"/>
<path d="M238.542 180C259.229 180 276 178.054 276 175.654C276 173.253 259.229 171.307 238.542 171.307C217.854 171.307 201.084 173.253 201.084 175.654C201.084 178.054 217.854 180 238.542 180Z" fill="#E6E6E6"/>
<path d="M230.522 96.5415H40.7745C40.242 96.5409 39.7316 96.3296 39.3551 95.9539C38.9786 95.5782 38.7669 95.0689 38.7662 94.5376V2.0039C38.7669 1.47262 38.9786 0.963284 39.3551 0.587614C39.7316 0.211944 40.242 0.000620374 40.7745 0H230.522C231.055 0.000624974 231.565 0.211954 231.942 0.587623C232.318 0.963293 232.53 1.47263 232.531 2.0039V94.5376C232.53 95.0689 232.318 95.5782 231.942 95.9539C231.565 96.3296 231.055 96.5409 230.522 96.5415ZM40.7745 0.80157C40.455 0.801917 40.1487 0.928703 39.9228 1.15411C39.6969 1.37951 39.5699 1.68513 39.5695 2.0039V94.5376C39.5699 94.8564 39.6969 95.162 39.9228 95.3874C40.1487 95.6128 40.455 95.7396 40.7745 95.74H230.522C230.842 95.7396 231.148 95.6128 231.374 95.3874C231.6 95.162 231.727 94.8564 231.727 94.5376V2.0039C231.727 1.68513 231.6 1.37951 231.374 1.15411C231.148 0.928703 230.842 0.801918 230.522 0.80157H40.7745Z" fill="#6CCAD0"/>
<path d="M128.975 40.2068C130.695 40.2068 132.089 38.8154 132.089 37.099C132.089 35.3826 130.695 33.9912 128.975 33.9912C127.254 33.9912 125.86 35.3826 125.86 37.099C125.86 38.8154 127.254 40.2068 128.975 40.2068Z" fill="#189193"/>
<path d="M128.975 39.0969C130.08 39.0969 130.977 38.2024 130.977 37.099C130.977 35.9956 130.08 35.1011 128.975 35.1011C127.869 35.1011 126.972 35.9956 126.972 37.099C126.972 38.2024 127.869 39.0969 128.975 39.0969Z" fill="#6CCAD0"/>
<path d="M142.322 40.2068C144.042 40.2068 145.437 38.8154 145.437 37.099C145.437 35.3826 144.042 33.9912 142.322 33.9912C140.602 33.9912 139.208 35.3826 139.208 37.099C139.208 38.8154 140.602 40.2068 142.322 40.2068Z" fill="#189193"/>
<path d="M142.322 39.0969C143.428 39.0969 144.325 38.2024 144.325 37.099C144.325 35.9956 143.428 35.1011 142.322 35.1011C141.217 35.1011 140.32 35.9956 140.32 37.099C140.32 38.2024 141.217 39.0969 142.322 39.0969Z" fill="#6CCAD0"/>
<path d="M128.624 37.321C127.129 37.3161 125.687 37.8691 124.579 38.8714C123.472 39.8737 122.78 41.2528 122.64 42.738L122.017 49.1069C121.944 49.8628 122.029 50.6259 122.268 51.3469C122.508 52.0679 122.895 52.731 123.407 53.2935C123.918 53.8561 124.542 54.3056 125.238 54.6132C125.934 54.9209 126.687 55.0798 127.448 55.0798H143.849C144.61 55.0798 145.363 54.9208 146.059 54.6132C146.755 54.3056 147.379 53.8561 147.89 53.2935C148.402 52.731 148.789 52.0679 149.029 51.3469C149.268 50.6259 149.353 49.8628 149.279 49.1069L148.657 42.738C148.516 41.2528 147.825 39.8737 146.718 38.8714C145.61 37.8691 144.168 37.3161 142.673 37.321H128.624Z" fill="#189193"/>
<path d="M137.31 46.3257C137.77 45.7101 138.455 45.3014 139.216 45.1892C139.977 45.077 140.752 45.2703 141.37 45.7269C141.713 45.2666 141.912 44.7149 141.942 44.1417C141.971 43.5685 141.829 42.9995 141.534 42.5068C141.239 42.0141 140.804 41.6199 140.284 41.374C139.764 41.1282 139.183 41.0417 138.614 41.1257C138.045 41.2096 137.514 41.4601 137.088 41.8455C136.661 42.2309 136.359 42.7339 136.22 43.2907C136.08 43.8475 136.109 44.4331 136.303 44.9734C136.498 45.5137 136.848 45.9843 137.31 46.3257Z" fill="white"/>
<path d="M130.529 46.8854C130.989 46.2698 131.674 45.8611 132.435 45.7488C133.196 45.6366 133.97 45.83 134.589 46.2866C134.932 45.8263 135.131 45.2746 135.161 44.7013C135.19 44.1281 135.048 43.5591 134.753 43.0665C134.458 42.5738 134.023 42.1795 133.503 41.9337C132.983 41.6878 132.402 41.6014 131.833 41.6853C131.264 41.7692 130.733 42.0197 130.306 42.4052C129.88 42.7906 129.578 43.2935 129.439 43.8503C129.299 44.4071 129.328 44.9927 129.522 45.533C129.716 46.0733 130.067 46.5439 130.529 46.8854Z" fill="white"/>
<path d="M132.452 45.0563C133.044 45.0563 133.523 44.578 133.523 43.9879C133.523 43.3978 133.044 42.9195 132.452 42.9195C131.861 42.9195 131.381 43.3978 131.381 43.9879C131.381 44.578 131.861 45.0563 132.452 45.0563Z" fill="#189193"/>
<path d="M139.386 44.2423C139.978 44.2423 140.457 43.7639 140.457 43.1739C140.457 42.5838 139.978 42.1055 139.386 42.1055C138.795 42.1055 138.316 42.5838 138.316 43.1739C138.316 43.7639 138.795 44.2423 139.386 44.2423Z" fill="#189193"/>
<path d="M135.718 48.8642C136.332 48.8642 136.83 48.3673 136.83 47.7543C136.83 47.1413 136.332 46.6443 135.718 46.6443C135.103 46.6443 134.605 47.1413 134.605 47.7543C134.605 48.3673 135.103 48.8642 135.718 48.8642Z" fill="#6CCAD0"/>
<path d="M131.278 49.5302C131.335 50.1365 131.616 50.7002 132.066 51.1107C132.517 51.5213 133.105 51.7493 133.715 51.75H138.165C138.775 51.7493 139.363 51.5213 139.814 51.1107C140.265 50.7002 140.546 50.1365 140.602 49.5302H131.278Z" fill="white"/>
<path d="M66.755 40.3178C66.7554 40.7262 66.6751 41.1306 66.5188 41.508C66.3624 41.8854 66.1331 42.2284 65.8438 42.5173C65.5546 42.8062 65.2111 43.0354 64.833 43.1917C64.455 43.3481 64.0497 43.4286 63.6405 43.4286C63.2312 43.4286 62.826 43.3481 62.4479 43.1917C62.0699 43.0354 61.7264 42.8062 61.4372 42.5173C61.1479 42.2284 60.9186 41.8854 60.7622 41.508C60.6059 41.1306 60.5256 40.7262 60.526 40.3178C60.526 38.6014 61.9204 31.4384 63.6405 31.4384C65.3606 31.4384 66.755 38.6014 66.755 40.3178Z" fill="#E6E6E6"/>
<path d="M65.6426 40.3178C65.6426 40.8477 65.4317 41.3558 65.0562 41.7305C64.6807 42.1052 64.1715 42.3157 63.6405 42.3157C63.1095 42.3157 62.6002 42.1052 62.2247 41.7305C61.8493 41.3558 61.6383 40.8477 61.6383 40.3178C61.6383 39.2144 62.5347 32.5483 63.6405 32.5483C64.7462 32.5483 65.6426 39.2144 65.6426 40.3178Z" fill="white"/>
<path d="M73.8738 40.3178C73.8738 41.142 74.2019 41.9325 74.786 42.5154C75.3701 43.0982 76.1623 43.4256 76.9883 43.4256C77.8143 43.4256 78.6065 43.0982 79.1906 42.5154C79.7746 41.9325 80.1028 41.142 80.1028 40.3178C80.1028 38.6014 78.7084 30.7725 76.9883 30.7725C75.2682 30.7725 73.8738 38.6014 73.8738 40.3178Z" fill="#E6E6E6"/>
<path d="M74.9861 40.3178C74.9861 40.8477 75.1971 41.3558 75.5726 41.7305C75.9481 42.1052 76.4573 42.3157 76.9883 42.3157C77.5193 42.3157 78.0286 42.1052 78.4041 41.7305C78.7795 41.3558 78.9905 40.8477 78.9905 40.3178C78.9905 39.2144 78.0941 31.8824 76.9883 31.8824C75.8826 31.8824 74.9861 39.2144 74.9861 40.3178Z" fill="white"/>
<path d="M63.2902 40.5398C61.7953 40.5349 60.3525 41.0879 59.2453 42.0902C58.1381 43.0924 57.4464 44.4716 57.3062 45.9567L56.6834 52.3257C56.6095 53.0816 56.695 53.8446 56.9342 54.5656C57.1735 55.2867 57.5613 55.9498 58.0728 56.5123C58.5842 57.0748 59.2079 57.5244 59.9039 57.832C60.5998 58.1396 61.3525 58.2985 62.1137 58.2986H78.5152C79.2763 58.2985 80.0291 58.1396 80.725 57.832C81.4209 57.5244 82.0447 57.0748 82.5561 56.5123C83.0675 55.9498 83.4553 55.2867 83.6946 54.5656C83.9339 53.8446 84.0193 53.0816 83.9454 52.3257L83.3227 45.9567C83.1824 44.4716 82.4908 43.0924 81.3835 42.0902C80.2763 41.0879 78.8336 40.5349 77.3387 40.5398H63.2902Z" fill="#E6E6E6"/>
<path d="M71.9763 49.5445C72.4358 48.9289 73.1211 48.5202 73.882 48.4079C74.643 48.2957 75.4175 48.4891 76.0358 48.9457C76.3794 48.4854 76.5784 47.9337 76.6076 47.3605C76.6368 46.7872 76.4949 46.2183 76.1998 45.7256C75.9047 45.2329 75.4698 44.8387 74.95 44.5928C74.4303 44.3469 73.8491 44.2605 73.2801 44.3444C72.711 44.4283 72.1798 44.6789 71.7535 45.0643C71.3273 45.4497 71.0253 45.9526 70.8857 46.5094C70.7461 47.0662 70.7752 47.6518 70.9693 48.1921C71.1635 48.7324 71.5139 49.203 71.9763 49.5445Z" fill="white"/>
<path d="M65.1952 50.1042C65.6547 49.4886 66.34 49.0799 67.1009 48.9676C67.8619 48.8554 68.6364 49.0488 69.2547 49.5054C69.5983 49.0451 69.7973 48.4934 69.8265 47.9202C69.8557 47.3469 69.7138 46.778 69.4187 46.2853C69.1236 45.7926 68.6887 45.3983 68.1689 45.1525C67.6491 44.9066 67.068 44.8202 66.4989 44.9041C65.9299 44.988 65.3987 45.2386 64.9724 45.624C64.5462 46.0094 64.2441 46.5123 64.1045 47.0691C63.9649 47.6259 63.994 48.2115 64.1882 48.7518C64.3823 49.2921 64.7328 49.7627 65.1952 50.1042Z" fill="white"/>
<path d="M67.1182 50.0509C67.7095 50.0509 68.1889 49.5726 68.1889 48.9825C68.1889 48.3925 67.7095 47.9141 67.1182 47.9141C66.5269 47.9141 66.0475 48.3925 66.0475 48.9825C66.0475 49.5726 66.5269 50.0509 67.1182 50.0509Z" fill="#E6E6E6"/>
<path d="M74.2747 49.4589C74.866 49.4589 75.3454 48.9805 75.3454 48.3905C75.3454 47.8004 74.866 47.3221 74.2747 47.3221C73.6834 47.3221 73.204 47.8004 73.204 48.3905C73.204 48.9805 73.6834 49.4589 74.2747 49.4589Z" fill="#E6E6E6"/>
<path d="M70.3836 52.083C70.9979 52.083 71.4959 51.5861 71.4959 50.9731C71.4959 50.3601 70.9979 49.8632 70.3836 49.8632C69.7693 49.8632 69.2713 50.3601 69.2713 50.9731C69.2713 51.5861 69.7693 52.083 70.3836 52.083Z" fill="white"/>
<path d="M72.7102 51.7823C73.0907 51.5847 73.5243 51.7168 73.8967 51.8693C74.3041 52.0361 74.6993 52.2253 75.1192 52.3613C75.9029 52.6348 76.7429 52.7078 77.5622 52.5736C79.0439 52.2971 80.2872 50.9756 79.9542 49.4084C79.8652 48.9894 79.2217 49.1667 79.3107 49.5855C79.3659 49.8994 79.3399 50.2222 79.2353 50.5233C79.1306 50.8244 78.9508 51.094 78.7126 51.3064C78.1684 51.7713 77.4676 52.0127 76.7519 51.9816C75.9613 51.9439 75.1866 51.7458 74.4752 51.3996C73.7956 51.0993 73.0826 50.8389 72.3734 51.2072C71.9922 51.4052 72.3293 51.9801 72.7102 51.7823Z" fill="white"/>
<path d="M68.4779 51.2072C67.7868 50.8483 67.0875 51.0867 66.4218 51.3793C65.6965 51.735 64.9064 51.9399 64.0993 51.9815C63.3981 52.0113 62.7107 51.7808 62.1698 51.3344C61.922 51.1223 61.7338 50.8495 61.6235 50.5429C61.5132 50.2363 61.4846 49.9064 61.5406 49.5854C61.6294 49.1674 60.9862 48.9887 60.897 49.4084C60.5641 50.9756 61.8073 52.2971 63.2891 52.5735C64.1083 52.7082 64.9484 52.6352 65.732 52.3613C66.1518 52.2247 66.5471 52.0363 66.9546 51.8692C67.3264 51.7168 67.7608 51.5848 68.1411 51.7823C68.5216 51.9799 68.8594 51.4054 68.4779 51.2072Z" fill="white"/>
<path d="M70.6481 54.8578C71.631 54.8578 72.4278 54.4602 72.4278 53.9698C72.4278 53.4795 71.631 53.0819 70.6481 53.0819C69.6652 53.0819 68.8684 53.4795 68.8684 53.9698C68.8684 54.4602 69.6652 54.8578 70.6481 54.8578Z" fill="white"/>
<path d="M189.748 46.0589C193.218 46.0589 196.031 43.2521 196.031 39.7897C196.031 36.3273 193.218 33.5204 189.748 33.5204C186.278 33.5204 183.465 36.3273 183.465 39.7897C183.465 43.2521 186.278 46.0589 189.748 46.0589Z" fill="#6CCAD0"/>
<path d="M189.748 43.8199C191.979 43.8199 193.787 42.0155 193.787 39.7897C193.787 37.5639 191.979 35.7595 189.748 35.7595C187.517 35.7595 185.709 37.5639 185.709 39.7897C185.709 42.0155 187.517 43.8199 189.748 43.8199Z" fill="#189193"/>
<path d="M212.217 46.0589C215.687 46.0589 218.5 43.2521 218.5 39.7897C218.5 36.3273 215.687 33.5204 212.217 33.5204C208.747 33.5204 205.934 36.3273 205.934 39.7897C205.934 43.2521 208.747 46.0589 212.217 46.0589Z" fill="#6CCAD0"/>
<path d="M212.217 43.8199C214.448 43.8199 216.256 42.0155 216.256 39.7897C216.256 37.5639 214.448 35.7595 212.217 35.7595C209.986 35.7595 208.178 37.5639 208.178 39.7897C208.178 42.0155 209.986 43.8199 212.217 43.8199Z" fill="#189193"/>
<path d="M194.069 37.7919C193.972 37.7919 193.876 37.7941 193.78 37.7986C190.159 37.9682 187.657 41.5042 188.539 45.0118L188.667 45.52C189.121 47.325 189.43 49.1603 189.736 50.9961C189.946 52.2685 190.603 53.4248 191.589 54.2589C192.575 55.093 193.825 55.5508 195.118 55.5506H207.07C208.411 55.5508 209.705 55.0578 210.705 54.1659C211.705 53.2741 212.341 52.0458 212.491 50.7159C212.702 49.0559 213.022 47.4118 213.452 45.7944L213.648 45.0119C214.531 41.5042 212.028 37.9682 208.408 37.7986C208.312 37.7941 208.215 37.7919 208.118 37.7919H194.069Z" fill="#6CCAD0"/>
<path d="M202.756 46.7965C203.215 46.181 203.9 45.7723 204.661 45.66C205.422 45.5478 206.197 45.7411 206.815 46.1977C207.159 45.7374 207.358 45.1858 207.387 44.6125C207.416 44.0393 207.274 43.4703 206.979 42.9776C206.684 42.485 206.249 42.0907 205.729 41.8449C205.21 41.599 204.628 41.5126 204.059 41.5965C203.49 41.6804 202.959 41.9309 202.533 42.3163C202.107 42.7018 201.805 43.2047 201.665 43.7615C201.525 44.3183 201.554 44.9039 201.749 45.4442C201.943 45.9845 202.293 46.4551 202.756 46.7965Z" fill="white"/>
<path d="M195.974 47.3562C196.434 46.7406 197.119 46.3319 197.88 46.2197C198.641 46.1074 199.416 46.3008 200.034 46.7574C200.378 46.2971 200.577 45.7454 200.606 45.1722C200.635 44.5989 200.493 44.03 200.198 43.5373C199.903 43.0446 199.468 42.6504 198.948 42.4045C198.428 42.1586 197.847 42.0722 197.278 42.1561C196.709 42.24 196.178 42.4906 195.752 42.876C195.325 43.2614 195.023 43.7643 194.884 44.3211C194.744 44.8779 194.773 45.4636 194.967 46.0038C195.162 46.5441 195.512 47.0148 195.974 47.3562Z" fill="white"/>
<path d="M196.785 45.5271C197.377 45.5271 197.856 45.0488 197.856 44.4587C197.856 43.8687 197.377 43.3903 196.785 43.3903C196.194 43.3903 195.714 43.8687 195.714 44.4587C195.714 45.0488 196.194 45.5271 196.785 45.5271Z" fill="#6CCAD0"/>
<path d="M203.719 45.1571C204.311 45.1571 204.79 44.6787 204.79 44.0887C204.79 43.4986 204.311 43.0203 203.719 43.0203C203.128 43.0203 202.648 43.4986 202.648 44.0887C202.648 44.6787 203.128 45.1571 203.719 45.1571Z" fill="#6CCAD0"/>
<path d="M202.275 48.2251C202.275 48.4038 202.232 48.5798 202.149 48.7383C202.066 48.8967 201.947 49.0328 201.8 49.1351C201.653 49.2374 201.483 49.3028 201.306 49.3258C201.128 49.3488 200.948 49.3286 200.78 49.2671C200.612 49.2055 200.461 49.1044 200.34 48.9722C200.22 48.8401 200.133 48.6809 200.087 48.5081C200.042 48.3353 200.039 48.1541 200.078 47.9798C200.118 47.8056 200.199 47.6434 200.315 47.5072C200.519 47.2674 200.754 48.0031 201.094 48.0031C201.446 48.0031 201.829 47.2784 202.033 47.5331C202.19 47.7295 202.276 47.9736 202.275 48.2251Z" fill="#189193"/>
<path d="M198.716 49.779H204.055C204.055 50.4855 203.774 51.163 203.273 51.6626C202.772 52.1622 202.093 52.4428 201.385 52.4428C200.677 52.4428 199.998 52.1622 199.498 51.6626C198.997 51.163 198.716 50.4855 198.716 49.779Z" fill="white"/>
<path d="M200.315 39.1238C201.114 39.1238 201.761 38.0305 201.761 36.6819C201.761 35.3334 201.114 34.2401 200.315 34.2401C199.516 34.2401 198.869 35.3334 198.869 36.6819C198.869 38.0305 199.516 39.1238 200.315 39.1238Z" fill="#189193"/>
<path d="M203.724 37.9535C204.499 36.8488 204.597 35.5827 203.943 35.1256C203.289 34.6686 202.13 35.1936 201.355 36.2983C200.58 37.403 200.482 38.6691 201.136 39.1262C201.79 39.5832 202.949 39.0582 203.724 37.9535Z" fill="#189193"/>
<path d="M89.1105 66.7289H51.5183C50.9859 66.7282 50.4754 66.5169 50.099 66.1413C49.7225 65.7656 49.5107 65.2563 49.5101 64.725V24.346C49.5107 23.8147 49.7225 23.3054 50.099 22.9297C50.4754 22.554 50.9859 22.3427 51.5183 22.3421H89.1105C89.6429 22.3427 90.1533 22.5541 90.5298 22.9297C90.9063 23.3054 91.1181 23.8147 91.1187 24.346V64.725C91.1181 65.2563 90.9063 65.7656 90.5298 66.1413C90.1533 66.5169 89.6429 66.7282 89.1105 66.7289ZM51.5183 23.1437C51.1988 23.144 50.8926 23.2708 50.6667 23.4962C50.4408 23.7216 50.3137 24.0272 50.3134 24.346V64.725C50.3137 65.0438 50.4408 65.3494 50.6667 65.5748C50.8926 65.8002 51.1988 65.927 51.5183 65.9273H89.1105C89.43 65.927 89.7362 65.8002 89.9621 65.5748C90.188 65.3494 90.3151 65.0438 90.3154 64.725V24.346C90.3151 24.0272 90.188 23.7216 89.9621 23.4962C89.7362 23.2708 89.43 23.144 89.1105 23.1437H51.5183Z" fill="#E6E6E6"/>
<path d="M154.445 66.7289H116.852C116.32 66.7282 115.809 66.5169 115.433 66.1413C115.057 65.7656 114.845 65.2563 114.844 64.725V24.346C114.845 23.8147 115.057 23.3054 115.433 22.9297C115.809 22.5541 116.32 22.3427 116.852 22.3421H154.445C154.977 22.3427 155.487 22.5541 155.864 22.9297C156.24 23.3054 156.452 23.8147 156.453 24.346V64.725C156.452 65.2563 156.24 65.7656 155.864 66.1413C155.487 66.5169 154.977 66.7282 154.445 66.7289ZM116.852 23.1437C116.533 23.144 116.227 23.2708 116.001 23.4962C115.775 23.7216 115.648 24.0272 115.647 24.346V64.725C115.648 65.0438 115.775 65.3494 116.001 65.5748C116.227 65.8002 116.533 65.927 116.852 65.9273H154.445C154.764 65.927 155.07 65.8002 155.296 65.5748C155.522 65.3494 155.649 65.0438 155.649 64.725V24.346C155.649 24.0272 155.522 23.7216 155.296 23.4962C155.07 23.2708 154.764 23.144 154.445 23.1437H116.852Z" fill="#E6E6E6"/>
<path d="M219.779 66.7289H182.186C181.654 66.7282 181.144 66.5169 180.767 66.1413C180.391 65.7656 180.179 65.2563 180.178 64.725V24.346C180.179 23.8147 180.391 23.3054 180.767 22.9297C181.144 22.5541 181.654 22.3427 182.186 22.3421H219.779C220.311 22.3427 220.821 22.5541 221.198 22.9297C221.574 23.3054 221.786 23.8147 221.787 24.346V64.725C221.786 65.2563 221.574 65.7656 221.198 66.1413C220.821 66.5169 220.311 66.7282 219.779 66.7289ZM182.186 23.1437C181.867 23.144 181.561 23.2708 181.335 23.4962C181.109 23.7216 180.982 24.0272 180.981 24.346V64.725C180.982 65.0438 181.109 65.3494 181.335 65.5748C181.561 65.8002 181.867 65.927 182.186 65.9273H219.779C220.098 65.927 220.404 65.8002 220.63 65.5748C220.856 65.3494 220.983 65.0438 220.983 64.725V24.346C220.983 24.0272 220.856 23.7216 220.63 23.4962C220.404 23.2708 220.098 23.144 219.779 23.1437H182.186Z" fill="#E6E6E6"/>
<path d="M191.691 71.3019C191.614 71.3019 191.54 71.3325 191.485 71.3868C191.431 71.4411 191.4 71.5148 191.4 71.5916V73.9096C191.4 73.9864 191.431 74.0601 191.485 74.1144C191.54 74.1688 191.614 74.1993 191.691 74.1994H210.274C210.351 74.1993 210.425 74.1688 210.48 74.1144C210.534 74.0601 210.565 73.9864 210.565 73.9096V71.5916C210.565 71.5148 210.534 71.4411 210.48 71.3868C210.425 71.3325 210.351 71.3019 210.274 71.3019H191.691Z" fill="#189193"/>
<path d="M126.356 71.3019C126.279 71.3019 126.206 71.3325 126.151 71.3868C126.097 71.4411 126.066 71.5148 126.066 71.5916V73.9096C126.066 73.9864 126.097 74.0601 126.151 74.1144C126.206 74.1688 126.279 74.1993 126.356 74.1994H144.94C145.017 74.1993 145.091 74.1688 145.146 74.1144C145.2 74.0601 145.231 73.9864 145.231 73.9096V71.5916C145.231 71.5148 145.2 71.4411 145.146 71.3868C145.091 71.3325 145.017 71.3019 144.94 71.3019H126.356Z" fill="#6CCAD0"/>
<path d="M61.0224 71.3019C60.9454 71.3019 60.8716 71.3325 60.8172 71.3868C60.7627 71.4411 60.7321 71.5148 60.7321 71.5916V73.9096C60.7321 73.9864 60.7627 74.0601 60.8172 74.1144C60.8716 74.1688 60.9454 74.1993 61.0224 74.1994H79.6063C79.6833 74.1993 79.7572 74.1688 79.8116 74.1144C79.866 74.0601 79.8967 73.9864 79.8967 73.9096V71.5916C79.8967 71.5148 79.866 71.4411 79.8116 71.3868C79.7572 71.3325 79.6833 71.3019 79.6063 71.3019H61.0224Z" fill="#E6E6E6"/>
<path d="M51.3961 109.446L50.525 113.213C50.525 113.213 50.8154 121.905 48.4924 121.036C46.1694 120.167 46.7501 112.633 46.7501 112.633L48.7827 108.867L51.3961 109.446Z" fill="#FFB8B8"/>
<path d="M38.4745 68.1571C41.6818 68.1571 44.2819 65.5626 44.2819 62.3621C44.2819 59.1616 41.6818 56.5671 38.4745 56.5671C35.2671 56.5671 32.667 59.1616 32.667 62.3621C32.667 65.5626 35.2671 68.1571 38.4745 68.1571Z" fill="#FFB8B8"/>
<path d="M33.9737 63.9557L33.3929 72.3584L40.6523 73.2276C40.6523 73.2276 40.6523 66.2737 41.233 65.4044C41.8138 64.5352 33.9737 63.9557 33.9737 63.9557Z" fill="#FFB8B8"/>
<path d="M50.0726 74.8983L40.666 70.9331C40.666 70.9331 36.1712 67.4785 33.5385 70.0378L32.357 71.7265C32.357 71.7265 21.9071 75.7921 21.9099 78.9794L25.9891 94.912C25.9891 94.912 23.674 103.896 27.159 104.473L46.0348 106.195C46.0348 106.195 48.6454 103.005 46.3188 98.9507L47.1815 89.3883L50.0726 74.8983Z" fill="#E6E6E6"/>
<path d="M43.6846 75.1936L50.0725 74.8983C50.0725 74.8983 52.1056 75.476 53.5623 80.98C55.019 86.4839 55.3173 95.4659 55.3173 95.4659L51.847 111.695L47.4909 111.119L49.2194 95.4712L46.3066 85.0428L43.6846 75.1936Z" fill="#E6E6E6"/>
<path d="M25.3926 76.9481L22.2439 77.9297C22.2439 77.9297 19.5894 81.8789 19.5912 83.9072C19.593 85.9354 18.4449 101.293 18.4449 101.293L26.0056 113.746L28.3232 107.659L23.6704 99.8398L27.4369 90.2748L25.3926 76.9481Z" fill="#E6E6E6"/>
<path d="M46.8953 105.535L26.0184 103.702C26.0184 103.702 23.9558 116.835 24.2462 122.05C24.5366 127.266 24.827 135.379 24.827 135.379L22.504 170.728L31.5055 169.569L32.667 140.304L36.4419 124.368L40.7975 144.651L43.7012 170.728L51.5413 169.859L48.928 138.276C48.928 138.276 51.2509 109.881 46.8953 105.535Z" fill="#2F2E41"/>
<path d="M49.799 168.41L52.4124 169.279C52.4124 169.279 57.9295 167.831 56.4776 171.597C55.0258 175.364 50.9605 174.785 50.9605 174.785C50.9605 174.785 46.0242 178.551 43.9916 175.654L45.1531 169.569L49.799 168.41Z" fill="#2F2E41"/>
<path d="M28.6018 168.41L31.2151 169.279C31.2151 169.279 36.7322 167.831 35.2804 171.597C33.8285 175.364 29.7633 174.785 29.7633 174.785C29.7633 174.785 24.8269 178.551 22.7943 175.654L23.9558 169.569L28.6018 168.41Z" fill="#2F2E41"/>
<path d="M33.9737 67.4327C33.9737 67.4327 27.8758 63.0865 31.0699 57.871C33.2858 54.2528 37.8775 54.5392 40.4821 55.054C41.1838 55.1832 41.8435 55.4808 42.4043 55.9211C42.9651 56.3613 43.4102 56.9311 43.7012 57.5812C44.1368 58.5954 44.1368 59.6095 42.3945 59.6095C38.91 59.6095 40.6523 62.2172 40.6523 62.2172C40.6523 62.2172 38.3293 62.7967 38.91 64.8249C39.4908 66.8532 33.9737 67.4327 33.9737 67.4327Z" fill="#2F2E41"/>
<path d="M242.7 169.2C242.7 169.2 236.261 169.694 236.921 172C237.582 174.307 242.7 173.978 242.7 173.978C242.7 173.978 246.663 173.648 248.81 174.307C250.956 174.966 253.433 174.307 253.598 173.154C253.763 172 252.442 171.177 252.442 171.177L251.617 169.529L242.7 169.2Z" fill="#2F2E41"/>
<path d="M225.776 117.712L225.116 120.348C225.116 120.348 222.144 126.444 225.776 126.444C229.409 126.444 228.088 120.843 228.088 120.843L228.418 118.206L225.776 117.712Z" fill="#9F616A"/>
<path d="M257.643 115.57L258.304 118.206C258.304 118.206 261.276 124.302 257.643 124.302C254.011 124.302 255.332 118.701 255.332 118.701L255.001 116.064L257.643 115.57Z" fill="#9F616A"/>
<path d="M240.471 70.7555C244.392 70.7555 247.571 67.5836 247.571 63.6709C247.571 59.7581 244.392 56.5862 240.471 56.5862C236.55 56.5862 233.371 59.7581 233.371 63.6709C233.371 67.5836 236.55 70.7555 240.471 70.7555Z" fill="#9F616A"/>
<path d="M238.325 69.108C238.325 69.108 239.15 72.8975 238.655 74.7099C238.16 76.5222 248.892 74.3803 248.892 74.3803C248.892 74.3803 245.094 68.1195 245.26 67.9547L238.325 69.108Z" fill="#9F616A"/>
<path d="M239.958 73.303C239.958 73.303 236.985 72.4818 235.995 73.4712C235.005 74.4607 229.229 77.2666 229.229 77.2666L233.213 101.483L250.381 97.6784L253.333 74.7742C253.333 74.7742 248.649 72.0386 247.853 72.5853C247.058 73.1321 239.958 73.303 239.958 73.303Z" fill="#E6E6E6"/>
<path d="M230.55 77.4303L229.757 77.0068C229.757 77.0068 226.752 77.5983 226.919 79.9048C227.087 82.2113 227.758 95.062 227.758 95.062L225.137 118.295L229.926 119.115L234.697 99.6692L230.55 77.4303Z" fill="#E6E6E6"/>
<path d="M252.838 75.2689L253.631 74.8441C253.631 74.8441 256.636 75.4304 256.473 77.7371C256.31 80.0439 255.661 92.8958 255.661 92.8958L258.323 116.125L253.535 116.953L248.73 97.5151L252.838 75.2689Z" fill="#E6E6E6"/>
<path d="M233.371 99.0942L232.711 109.145L230.564 129.245L233.702 170.929L244.599 171.259L241.297 131.552L244.599 117.877L255.393 117.478C255.393 117.478 256.157 101.73 250.048 96.7876L233.371 99.0942Z" fill="#2F2E41"/>
<path d="M245.26 115.57L243.526 151.9L242.948 170.27L252.69 171.259L255.148 117.233L251.369 113.428L245.26 115.57Z" fill="#2F2E41"/>
<path d="M243.608 54.2796C243.608 54.2796 237.169 53.4558 235.353 56.5862C235.353 56.5862 234.857 58.8929 233.206 59.7167C231.555 60.5405 233.536 63.3414 234.032 64.1652C234.527 64.989 235.848 69.767 234.362 70.9203C232.876 72.0737 237.004 75.3688 237.004 75.3688C237.004 75.3688 238.985 78.005 237.334 79.9821C235.683 81.9592 239.481 82.6183 239.481 82.6183C239.481 82.6183 238.655 88.2201 240.141 86.7373C240.141 86.7373 240.802 99.4238 247.076 91.5153C253.35 83.6068 255.992 79.8174 253.35 76.6869C250.708 73.5565 252.69 70.7556 252.69 70.7556C252.69 70.7556 253.515 69.108 251.699 66.6366C249.883 64.1652 249.883 54.2796 243.608 54.2796Z" fill="#2F2E41"/>
<path d="M234.279 170.188C234.279 170.188 227.84 170.682 228.5 172.989C229.161 175.296 234.279 174.966 234.279 174.966C234.279 174.966 238.242 174.637 240.389 175.296C242.535 175.955 245.012 175.296 245.177 174.142C245.342 172.989 244.021 172.165 244.021 172.165L243.196 170.518L234.279 170.188Z" fill="#2F2E41"/>
</g>
<defs>
<clipPath id="clip0_12_2137">
<rect width="276" height="180" fill="white"/>
</clipPath>
</defs>
</svg>
