<svg width="364" height="305" viewBox="0 0 364 305" fill="none" xmlns="http://www.w3.org/2000/svg">
<path d="M299.799 167.165C299.743 195.492 289.094 222.773 269.943 243.645C250.793 264.517 224.528 277.471 196.311 279.959C168.094 282.448 139.967 274.291 117.46 257.093C94.952 239.895 79.6918 214.899 74.6793 187.02C69.6667 159.14 75.2644 130.394 90.3718 106.433C105.479 82.4717 129.003 65.0284 156.32 57.5323C183.636 50.0362 212.769 53.0296 237.99 65.9241C263.211 78.8185 282.697 100.681 292.616 127.214C292.863 127.88 293.104 128.546 293.339 129.219V129.225C294.386 132.182 295.308 135.194 296.106 138.262C298.566 147.699 299.807 157.413 299.799 167.165Z" fill="#416BFF"/>
<path d="M173.083 90.1028C167.95 87.3271 162.251 85.7601 156.42 85.5216C150.589 85.2831 144.781 86.3792 139.439 88.7264C134.735 90.7736 129.781 94.446 128.212 101.078C134.559 97.3322 142.775 103.25 144.408 112.744L144.026 112.849C143.164 119.425 145.089 126.584 148.818 130.661C149.095 128.822 149.778 127.067 150.818 125.524C151.859 123.981 153.229 122.69 154.831 121.743C157.57 119.942 160.6 118.634 162.691 115.539C165.169 111.87 165.799 106.508 166.783 101.616C167.768 96.7238 169.636 91.4659 173.083 90.1028Z" fill="#1BA843"/>
<path d="M137.556 146.06C135.798 148.7 133.451 150.356 131.344 152.418C128.912 154.631 127.316 157.613 126.826 160.864C126.559 163.161 126.972 165.497 126.915 167.819C126.858 170.142 126.083 172.756 124.503 173.333C122.009 174.234 120.106 169.602 117.542 169.279C115.505 169.025 113.672 172.229 114.262 175.009C114.852 177.788 117.625 179.019 119.217 177.204C120.658 179.622 119.643 184.007 117.479 184.749C117.25 186.272 117.022 187.788 116.8 189.311C111.33 185.485 105.803 181.595 101.152 175.992C95.9787 169.813 92.7701 162.23 91.9379 154.214C91.3351 147.773 92.2298 140.406 89.2729 135.451C86.9059 131.485 82.8448 130.609 79.1898 130.856C78.5235 130.901 77.851 130.977 77.1846 131.059C79.3401 124.585 82.0777 118.32 85.3639 112.34C86.1076 112.021 86.7986 111.591 87.4135 111.064C90.8147 108.177 92.325 102.333 95.0852 98.2908C95.2629 98.0306 95.447 97.7768 95.6373 97.5294C98.4611 93.8426 102.243 91.9453 105.898 90.1812C113.989 86.2533 122.314 82.2747 130.855 82.8204L128.425 83.0551C125.588 90.9998 122.75 98.9444 119.909 106.889C119.477 108.107 119.042 109.328 118.602 110.55C116.99 115.068 115.327 119.878 115.575 124.936C115.721 127.931 116.762 131.129 118.741 132.157C120.588 133.109 122.606 131.941 124.389 130.786C125.144 130.304 125.893 129.822 126.648 129.333C129.357 127.588 132.359 125.799 135.221 126.966C137.841 128.032 139.777 131.592 140.145 135.431C140.482 139.163 139.572 142.902 137.556 146.06Z" fill="#1BA843"/>
<path d="M153.671 200.3C145.758 195.428 137.844 190.555 129.93 185.683L130.065 185.337C125.145 187.211 123.102 195.957 123.915 203.109C124.728 210.262 127.485 216.655 128.878 223.624C130.756 233.161 130.047 243.027 126.825 252.198C137.231 240.522 146.44 227.832 154.314 214.319C155.414 212.616 156.252 210.757 156.801 208.806C157.382 206.725 157.175 204.504 156.219 202.567C155.572 201.611 154.696 200.832 153.671 200.3Z" fill="#1BA843"/>
<path d="M122.439 111.656C121.51 113.651 121.367 115.923 122.038 118.019C122.819 119.708 124.235 121.02 125.979 121.669L130.352 123.837C131.806 124.558 133.374 125.286 134.857 124.693C136.646 123.977 137.886 121.173 137.565 118.57C137.224 115.8 135.478 113.894 133.863 112.272C131.603 110.001 129.343 107.73 127.083 105.46L125.809 107.02C124.432 108.363 123.292 109.931 122.439 111.656Z" fill="#1BA843"/>
<path d="M276.358 141.269C278.326 141.733 280.293 142.196 282.26 142.659C281.917 149.303 278.624 155.452 274.207 157.679C272.367 158.605 270.318 158.948 268.795 160.68C267.418 162.254 266.72 164.703 266.079 167.045C264.956 171.131 263.832 175.218 262.709 179.304C261.504 183.708 259.955 188.601 256.821 190.187C254.13 191.551 251.052 189.882 248.984 187.084C246.915 184.286 245.652 180.523 244.428 176.855C244.504 180.853 242.645 184.774 240.011 186.164C237.372 187.554 234.161 186.297 232.397 183.194C231.128 180.967 230.601 178.029 229.357 175.77C228.113 173.511 225.505 172.217 224.147 174.336C223.253 175.745 223.367 177.902 222.923 179.692C222.699 180.88 222.111 181.968 221.24 182.807C220.368 183.645 219.258 184.191 218.062 184.368C216.963 184.343 215.88 184.094 214.879 183.637C213.879 183.18 212.982 182.524 212.243 181.709C208.357 177.735 205.828 172.633 205.016 167.134C204.465 164.497 204.535 161.769 205.219 159.164C205.999 156.695 207.884 154.792 209.756 155.261C210.987 152.66 208.556 149.208 206.367 149.512C204.172 149.817 202.452 152.171 200.65 153.979C198.854 155.788 196.341 157.101 194.533 155.306C194.573 155.962 194.351 156.609 193.915 157.102C193.479 157.595 192.865 157.894 192.209 157.935C192.144 157.939 192.079 157.94 192.014 157.939C190.811 157.594 189.694 157.002 188.733 156.2C184.589 153.618 179.329 155.331 176.384 160.217C178.225 152.387 180.921 143.401 186.575 141.561C188.885 140.806 191.404 141.428 193.587 140.121C197.452 137.805 198.232 129.054 194.894 125.444C195.32 128.857 195.237 132.842 193.435 135.178C191.633 137.513 187.851 135.99 188.079 132.538C188.028 133.023 187.824 133.48 187.498 133.843C187.171 134.206 186.738 134.455 186.26 134.557C185.782 134.658 185.285 134.606 184.839 134.407C184.393 134.209 184.021 133.874 183.777 133.452C182.578 131.624 182.679 128.635 183.53 126.452C184.406 124.475 185.663 122.69 187.229 121.198C190.243 117.969 193.302 114.701 196.792 112.67C200.288 110.639 204.324 109.954 207.827 111.972C209.673 113.038 211.298 114.815 213.182 115.754C213.625 116.029 214.118 116.214 214.632 116.298C215.147 116.382 215.672 116.365 216.18 116.246C216.687 116.127 217.166 115.909 217.59 115.605C218.013 115.301 218.372 114.917 218.647 114.474C218.668 114.44 218.689 114.405 218.709 114.371C220.112 111.908 219.452 108.253 219.972 105.176C220.905 99.7378 226.343 97.1932 229.357 100.785C227.105 100.207 224.776 102.872 224.497 106.102C224.211 109.332 225.842 112.594 228.025 113.571C231.692 115.195 235.284 111.109 238.057 107.327C240.951 103.367 243.848 99.4099 246.75 95.4546C247.214 94.7811 247.734 94.1484 248.305 93.5635C249.214 92.6776 250.425 92.1703 251.694 92.1444C252.963 92.1185 254.195 92.5759 255.139 93.424C258.071 95.8162 259.448 100.721 261.853 104.097C265.343 109.002 270.565 110.195 275.426 111.147C279.049 111.851 282.674 112.56 286.302 113.273C288.72 117.771 290.83 122.429 292.616 127.214C285.964 130.247 280.321 135.125 276.358 141.269Z" fill="#1BA843"/>
<path d="M288.072 217.619C285.354 223.139 282.192 228.43 278.617 233.438C276.333 232.461 273.877 234.206 271.739 235.843C269.505 237.557 266.821 239.225 264.53 237.664C262.189 236.065 261.434 231.592 262.176 228.045C263.03 224.772 264.522 221.701 266.567 219.009C268.471 216.166 270.508 213.215 273.154 212.111C275.806 211.007 279.214 212.568 279.988 216.337L281.866 216.274C280.813 214.827 281.365 211.832 282.78 211.305C284.411 210.69 285.826 212.929 286.791 214.909C287.222 215.804 287.66 216.705 288.072 217.619Z" fill="#1BA843"/>
<path d="M216.136 190.816C212.098 191.07 208.9 186.1 206.775 181.21C204.65 176.321 202.711 170.729 199.069 168.241C196.987 166.819 194.614 166.623 192.356 165.934C191.076 165.611 189.891 164.987 188.9 164.114C187.908 163.241 187.139 162.145 186.656 160.916L184.095 159.881C180.513 161.672 177.232 164.011 174.372 166.814C171.103 170.286 169.067 174.737 168.578 179.481C168.089 184.607 169.895 190.323 173.271 192.248C175.938 193.77 179.043 192.811 181.745 194.204C185.12 195.944 187.124 201 187.883 205.992C188.642 210.983 188.449 216.171 188.992 221.219C189.535 226.267 191.031 231.52 194.126 234.108C198 237.345 203.684 234.655 205.422 228.762C206.274 225.871 206.245 222.609 206.883 219.608C208.006 214.324 211.036 210.403 213.439 206.069C215.842 201.734 217.734 195.846 216.136 190.816Z" fill="#1BA843"/>
<path d="M176.242 138.889C176.618 139.236 176.97 139.609 177.293 140.005C177.628 140.583 177.799 141.24 177.787 141.908C177.776 142.575 177.583 143.226 177.229 143.792C177.715 143.764 178.19 143.636 178.624 143.415C179.059 143.195 179.442 142.886 179.751 142.51C180.488 141.67 181.136 140.757 181.686 139.785C181.944 139.452 182.128 139.068 182.227 138.658C182.325 138.248 182.335 137.822 182.256 137.408C182.065 136.864 181.614 136.632 181.298 136.222C180.86 135.422 180.56 134.553 180.413 133.653C180.238 132.808 179.831 132.03 179.237 131.405C178.644 130.779 177.888 130.332 177.054 130.113L177.257 130.151C176.912 130.356 176.64 130.663 176.479 131.029C176.318 131.396 176.275 131.804 176.358 132.196C176.48 132.987 176.989 133.645 176.938 134.452C176.866 135.614 175.705 136.159 175.633 137.32C175.622 137.903 175.841 138.467 176.242 138.889Z" fill="#1BA843"/>
<path d="M169.325 119.155L169.343 119.151C169.467 119.038 169.582 118.915 169.687 118.784L169.325 119.155Z" fill="#6C63FF"/>
<path d="M170.535 124.606C171.02 124.18 171.379 123.63 171.572 123.014C171.766 122.399 171.786 121.742 171.631 121.115C171.338 119.795 170.3 118.907 169.343 119.151C169.065 119.433 168.72 119.639 168.341 119.751C167.961 119.862 167.56 119.876 167.174 119.79C166.582 119.637 165.932 119.245 165.418 119.691C165.125 120.024 164.919 120.425 164.82 120.858C164.63 121.442 164.44 122.025 164.25 122.608C164.16 122.817 164.137 123.048 164.183 123.271C164.219 123.36 164.278 123.439 164.354 123.499C164.429 123.559 164.519 123.598 164.614 123.614L168.034 124.622C168.427 124.803 168.854 124.895 169.287 124.892C169.719 124.889 170.145 124.792 170.535 124.606Z" fill="#1BA843"/>
<path d="M256.607 199.863C256.08 199 255.553 198.137 255.026 197.275C254.509 196.275 253.801 195.387 252.943 194.659C252.568 194.344 252.083 194.192 251.595 194.235C251.107 194.278 250.657 194.513 250.342 194.888L250.315 194.922L250.379 195.415C251.79 196.928 252.752 198.804 253.156 200.833C253.276 201.715 253.234 202.627 253.34 203.513C253.351 203.924 253.443 204.328 253.61 204.703C253.778 205.078 254.018 205.417 254.316 205.699C255.146 206.254 256.12 205.436 256.711 204.439C257.239 203.619 257.476 202.646 257.383 201.676C257.252 201.025 256.988 200.408 256.607 199.863Z" fill="#1BA843"/>
<path d="M264.875 200.986C264.975 200.178 264.91 199.358 264.682 198.577C264.644 197.52 264.925 196.475 265.487 195.579C266.045 194.733 266.468 193.806 266.741 192.83C266.856 192.385 266.835 191.916 266.681 191.483C266.506 191.092 266.084 190.913 265.841 191.223L266.36 191.557C265.66 191.432 264.94 191.467 264.255 191.659C263.864 191.809 263.515 192.05 263.238 192.363C262.96 192.676 262.762 193.052 262.66 193.457C262.574 194.09 262.434 194.714 262.241 195.323C261.932 195.959 261.333 196.171 260.957 196.729C260.7 197.224 260.571 197.775 260.58 198.332C260.589 198.889 260.737 199.436 261.01 199.922C261.482 200.717 262.234 201.308 263.118 201.579C263.751 201.807 264.585 201.819 264.875 200.986Z" fill="#1BA843"/>
<path d="M279.598 205.428C279.827 206.024 280.134 206.587 280.51 207.103C281.215 207.813 282.173 207.376 283.028 207.204C283.804 207.081 284.599 207.171 285.328 207.463C286.057 207.756 286.694 208.24 287.17 208.865C286.838 207.211 286.114 205.661 285.059 204.345C284.004 203.028 282.649 201.985 281.107 201.301C279.103 200.607 276.992 200.277 274.872 200.326L274.51 200.419C275.432 203.105 278.33 203.044 279.598 205.428Z" fill="#1BA843"/>
<path d="M217.24 210.922L217.245 210.933L217.351 210.731L217.24 210.922Z" fill="#6C63FF"/>
<path d="M215.007 215.245C214.519 216.129 214.1 217.05 213.753 217.998C213.294 219.533 212.99 221.111 212.845 222.708C212.732 223.615 212.697 224.775 213.266 225.217C213.429 225.325 213.626 225.371 213.82 225.344C214.014 225.318 214.192 225.222 214.321 225.074C214.637 224.739 214.895 224.355 215.086 223.937C216.204 222.012 217.072 219.952 217.668 217.807C218.291 215.532 218.143 213.115 217.245 210.934C216.499 212.371 215.753 213.808 215.007 215.245Z" fill="#1BA843"/>
<path d="M193.459 100.063C193.814 100.41 194.263 100.646 194.75 100.741C195.236 100.836 195.741 100.786 196.2 100.598C197.151 100.183 198.023 99.6064 198.778 98.895C199.404 98.4321 199.935 97.8532 200.341 97.1898C200.566 96.7934 200.709 96.3566 200.764 95.9045C200.819 95.4524 200.784 94.9939 200.661 94.5553C200.486 94.1351 200.207 93.7665 199.851 93.4842C199.494 93.2019 199.071 93.0152 198.622 92.9419C197.356 92.5665 196.091 92.1913 194.825 91.8161L195.741 90.991C194.799 90.4855 193.757 91.4236 193.168 92.5851C192.79 93.3435 192.527 94.1536 192.387 94.9891C192.187 95.862 192.179 96.7681 192.364 97.6444C192.549 98.5206 192.923 99.3461 193.459 100.063Z" fill="#1BA843"/>
<path d="M215.802 92.5628C216.158 92.956 216.651 93.1988 217.18 93.2418C217.71 93.2849 218.235 93.125 218.651 92.7946C219.009 92.526 219.306 92.185 219.523 91.7939C219.74 91.4028 219.872 90.9704 219.911 90.5247C220.001 89.5293 219.509 88.4229 218.806 88.3369L218.967 87.4049C217.612 87.1604 215.946 87.1114 215.22 88.7559C214.976 89.3858 214.9 90.0689 215.002 90.737C215.104 91.4051 215.38 92.0347 215.802 92.5628Z" fill="#1BA843"/>
<path d="M123.741 159.607C128.407 159.607 132.189 154.536 132.189 148.28C132.189 142.024 128.407 136.952 123.741 136.952C119.076 136.952 115.294 142.024 115.294 148.28C115.294 154.536 119.076 159.607 123.741 159.607Z" fill="white"/>
<path d="M278.111 299.872C282.143 298.798 284.807 295.653 284.06 292.847C283.313 290.042 279.438 288.638 275.405 289.712C271.372 290.786 268.708 293.931 269.456 296.737C270.203 299.542 274.078 300.946 278.111 299.872Z" fill="white"/>
<path d="M228.716 300.785C232.749 299.711 235.413 296.566 234.666 293.761C233.918 290.955 230.043 289.552 226.011 290.626C221.978 291.7 219.314 294.845 220.061 297.65C220.808 300.456 224.683 301.859 228.716 300.785Z" fill="white"/>
<path d="M286.886 258.775C290.919 257.701 293.582 254.556 292.835 251.75C292.088 248.945 288.213 247.541 284.18 248.615C280.147 249.689 277.484 252.834 278.231 255.64C278.978 258.445 282.853 259.849 286.886 258.775Z" fill="white"/>
<path d="M301.455 241.305C303.276 241.079 304.489 238.774 304.164 236.157C303.84 233.539 302.1 231.6 300.28 231.826C298.459 232.052 297.246 234.357 297.57 236.974C297.895 239.592 299.634 241.531 301.455 241.305Z" fill="white"/>
<path d="M305.143 210.3C306.964 210.074 308.177 207.769 307.852 205.151C307.528 202.534 305.789 200.595 303.968 200.821C302.147 201.046 300.934 203.351 301.258 205.969C301.583 208.586 303.322 210.525 305.143 210.3Z" fill="white"/>
<path d="M255.351 269.903C257.172 269.678 258.385 267.373 258.06 264.755C257.736 262.138 255.996 260.199 254.175 260.424C252.355 260.65 251.142 262.955 251.466 265.573C251.791 268.19 253.53 270.129 255.351 269.903Z" fill="white"/>
<path d="M280.324 278.943C282.145 278.717 283.358 276.412 283.034 273.794C282.709 271.177 280.97 269.238 279.149 269.464C277.328 269.689 276.115 271.994 276.439 274.612C276.764 277.229 278.503 279.168 280.324 278.943Z" fill="white"/>
<path d="M250.002 304.545C251.823 304.319 253.036 302.014 252.711 299.397C252.387 296.779 250.647 294.84 248.827 295.066C247.006 295.292 245.793 297.597 246.117 300.214C246.442 302.832 248.181 304.771 250.002 304.545Z" fill="white"/>
<path d="M32.5811 258.39C36.614 257.316 39.2776 254.171 38.5304 251.366C37.7833 248.56 33.9084 247.157 29.8755 248.231C25.8426 249.305 23.179 252.45 23.9262 255.255C24.6733 258.061 28.5483 259.464 32.5811 258.39Z" fill="white"/>
<path d="M41.3582 217.292C45.391 216.218 48.0547 213.073 47.3075 210.267C46.5604 207.462 42.6853 206.058 38.6525 207.132C34.6196 208.206 31.956 211.351 32.7032 214.157C33.4503 216.962 37.3253 218.366 41.3582 217.292Z" fill="white"/>
<path d="M55.9253 199.823C57.7462 199.598 58.9593 197.293 58.6348 194.675C58.3103 192.058 56.571 190.119 54.7501 190.344C52.9292 190.57 51.7162 192.875 52.0407 195.493C52.3652 198.11 54.1044 200.049 55.9253 199.823Z" fill="white"/>
<path d="M59.6136 168.818C61.4345 168.592 62.6476 166.287 62.323 163.67C61.9985 161.052 60.2592 159.113 58.4383 159.339C56.6174 159.565 55.4044 161.87 55.7289 164.487C56.0535 167.105 57.7927 169.044 59.6136 168.818Z" fill="white"/>
<path d="M9.82127 228.422C11.6422 228.196 12.8553 225.891 12.5307 223.274C12.2062 220.656 10.4669 218.717 8.64602 218.943C6.82511 219.169 5.61203 221.474 5.93656 224.091C6.2611 226.709 8.00036 228.648 9.82127 228.422Z" fill="white"/>
<path d="M34.7947 237.461C36.6156 237.235 37.8286 234.93 37.5041 232.313C37.1795 229.695 35.4403 227.756 33.6194 227.982C31.7985 228.208 30.5854 230.513 30.9099 233.13C31.2345 235.748 32.9737 237.687 34.7947 237.461Z" fill="white"/>
<path d="M4.47227 263.063C6.29319 262.838 7.50627 260.533 7.18173 257.915C6.85719 255.298 5.11793 253.359 3.29702 253.584C1.47611 253.81 0.26309 256.115 0.587626 258.733C0.912163 261.35 2.65136 263.289 4.47227 263.063Z" fill="white"/>
<path d="M332.687 68.4547C336.72 67.3807 339.383 64.2357 338.636 61.4302C337.889 58.6248 334.014 57.2212 329.981 58.2952C325.948 59.3692 323.285 62.5141 324.032 65.3196C324.779 68.1251 328.654 69.5287 332.687 68.4547Z" fill="white"/>
<path d="M283.29 69.3697C287.323 68.2957 289.987 65.1508 289.24 62.3453C288.492 59.5398 284.618 58.1363 280.585 59.2103C276.552 60.2843 273.888 63.4292 274.635 66.2347C275.382 69.0402 279.257 70.4438 283.29 69.3697Z" fill="white"/>
<path d="M341.464 27.3551C345.497 26.281 348.16 23.1361 347.413 20.3306C346.666 17.5251 342.791 16.1215 338.758 17.1955C334.725 18.2696 332.061 21.4145 332.809 24.22C333.556 27.0255 337.431 28.4291 341.464 27.3551Z" fill="white"/>
<path d="M356.031 9.88783C357.852 9.66207 359.065 7.3571 358.741 4.73953C358.416 2.12197 356.677 0.183023 354.856 0.408788C353.035 0.634552 351.822 2.93953 352.146 5.55709C352.471 8.17466 354.21 10.1136 356.031 9.88783Z" fill="white"/>
<path d="M309.927 38.4863C311.748 38.2605 312.961 35.9555 312.636 33.338C312.312 30.7204 310.573 28.7815 308.752 29.0072C306.931 29.233 305.718 31.538 306.042 34.1555C306.367 36.7731 308.106 38.712 309.927 38.4863Z" fill="white"/>
<path d="M334.9 47.5254C336.721 47.2997 337.934 44.9947 337.61 42.3771C337.285 39.7596 335.546 37.8207 333.725 38.0464C331.904 38.2722 330.691 40.5771 331.016 43.1947C331.34 45.8123 333.079 47.7512 334.9 47.5254Z" fill="white"/>
<path d="M304.578 73.1279C306.399 72.9022 307.612 70.5972 307.287 67.9796C306.963 65.362 305.224 63.4231 303.403 63.6489C301.582 63.8747 300.369 66.1796 300.693 68.7972C301.018 71.4147 302.757 73.3537 304.578 73.1279Z" fill="white"/>
<path d="M17.7392 265.417C9.6576 265.417 4.40355 263.409 2.07811 259.417C-2.50767 251.545 5.17267 237.732 24.9054 218.362L26.563 220.05C8.23337 238.044 0.263776 251.601 4.12243 258.226C6.56418 262.416 13.8309 263.918 25.1415 262.567C36.3697 261.227 51.2497 257.232 69.3683 250.693C106.669 237.231 153.467 214.524 201.141 186.753C248.814 158.983 291.651 129.477 321.763 103.67C327.547 98.7119 332.796 93.9424 337.364 89.4949C343.361 83.7988 348.893 77.6328 353.909 71.0558C360.663 61.885 362.942 54.8225 360.501 50.6314C356.423 43.6316 339.293 44.2898 312.264 52.4874L311.577 50.2228C340.577 41.4291 357.725 41.1653 362.546 49.4406C365.541 54.5822 363.276 62.3268 355.814 72.4593C350.722 79.1405 345.105 85.4041 339.015 91.1903C334.411 95.6729 329.124 100.476 323.303 105.466C293.086 131.364 250.125 160.958 202.332 188.797C154.539 216.638 107.603 239.41 70.1717 252.919C51.8844 259.519 36.8284 263.556 25.4219 264.917C22.8731 265.235 20.3078 265.402 17.7392 265.417Z" fill="#6C63FF"/>
<path d="M346.878 265.417C354.959 265.417 360.214 263.409 362.539 259.417C367.125 251.545 359.444 237.732 339.712 218.362L338.054 220.05C356.384 238.044 364.353 251.601 360.495 258.226C358.053 262.416 350.786 263.918 339.476 262.567C328.247 261.227 313.367 257.232 295.249 250.693C257.948 237.231 211.15 214.524 163.476 186.753C115.803 158.983 72.9658 129.477 42.8541 103.67C37.0705 98.7119 31.8215 93.9424 27.2531 89.4949C21.2561 83.7988 15.7237 77.6328 10.7085 71.0558C3.95441 61.885 1.67477 54.8225 4.11615 50.6314C8.19394 43.6316 25.3239 44.2898 52.3534 52.4874L53.0397 50.2228C24.0403 41.4291 6.89182 41.1653 2.07147 49.4406C-0.923706 54.5822 1.34128 62.3268 8.80286 72.4593C13.8948 79.1405 19.5125 85.4041 25.6024 91.1903C30.2062 95.6729 35.4926 100.476 41.3143 105.466C71.5311 131.364 114.492 160.958 162.285 188.797C210.078 216.638 257.014 239.41 294.445 252.919C312.733 259.519 327.789 263.556 339.195 264.917C341.744 265.235 344.309 265.402 346.878 265.417Z" fill="#6C63FF"/>
</svg>
