<svg width="40" height="50" viewBox="0 0 40 50" fill="none" xmlns="http://www.w3.org/2000/svg">
<g clip-path="url(#clip0_156_2201)">
<path d="M39.9999 6.98642C28.5689 11.599 17.1378 3.2125 5.70679 6.25173L5.83145 4.81009C5.83145 4.81009 5.83145 4.79276 5.83145 4.78583C6.80799 4.46008 7.51096 3.54172 7.51096 2.45703C7.51096 1.10202 6.41322 0 5.05576 0C3.6983 0 2.60056 1.09856 2.60056 2.45703C2.60056 3.39617 3.12693 4.21056 3.90262 4.62642C3.89569 4.65414 3.89223 4.68533 3.8853 4.71306C3.87838 4.74771 3.86799 4.7789 3.86799 4.81356L0.00338657 49.0227C-0.0450941 49.5599 0.360066 50 0.900279 50C1.4024 50 1.84911 49.6153 1.94608 49.1267C1.953 49.092 1.96339 49.0574 1.96685 49.0193L3.49399 31.5394C14.9458 26.9164 26.3976 35.3479 37.8495 32.2602C38.1092 29.2279 38.3689 26.1852 38.6251 23.1425C39.0823 17.7745 39.5394 12.3926 39.9965 6.98295L39.9999 6.98642Z" fill="#6CCAD0"/>
<path d="M40 6.98291C39.2832 15.4595 38.5698 23.8841 37.853 32.2636C28.6798 34.738 19.5065 29.8204 10.3333 30.1393L32.0596 8.39683C34.7052 8.42455 37.3543 8.05028 40 6.98291Z" fill="#63B9BE"/>
<path d="M20.1351 10.4399H23.9031L16.5351 21.7919H19.6071L20.4231 17.5679H23.7831L22.9671 21.7919H24.4791L23.9271 24.6479H22.4151L21.9591 26.9999H18.5991L19.0551 24.6479H11.7111L12.1671 22.3199L20.1351 10.4399Z" fill="white"/>
</g>
<defs>
<clipPath id="clip0_156_2201">
<rect width="40" height="50" fill="white"/>
</clipPath>
</defs>
</svg>
