<svg width="40" height="50" viewBox="0 0 40 50" fill="none" xmlns="http://www.w3.org/2000/svg">
<g clip-path="url(#clip0_147_834)">
<path d="M39.9997 6.98642C28.5686 11.599 17.1376 3.2125 5.70654 6.25173L5.83121 4.81009C5.83121 4.81009 5.83121 4.79276 5.83121 4.78583C6.80775 4.46008 7.51072 3.54172 7.51072 2.45703C7.51072 1.10202 6.41298 0 5.05552 0C3.69806 0 2.60032 1.09856 2.60032 2.45703C2.60032 3.39617 3.12668 4.21056 3.90237 4.62642C3.89545 4.65414 3.89198 4.68533 3.88506 4.71306C3.87813 4.74771 3.86774 4.7789 3.86774 4.81356L0.00314243 49.0227C-0.0453382 49.5599 0.359821 50 0.900034 50C1.40216 50 1.84887 49.6153 1.94583 49.1267C1.95276 49.092 1.96315 49.0574 1.96661 49.0193L3.49375 31.5394C14.9456 26.9164 26.3974 35.3479 37.8492 32.2602C38.1089 29.2279 38.3687 26.1852 38.6249 23.1425C39.082 17.7745 39.5391 12.3926 39.9962 6.98295L39.9997 6.98642Z" fill="#D28564"/>
<path d="M40 6.98291C39.2832 15.4595 38.5698 23.8841 37.853 32.2636C28.6798 34.738 19.5065 29.8204 10.3333 30.1393L32.0596 8.39683C34.7052 8.42455 37.3543 8.05028 40 6.98291Z" fill="#BE6E50"/>
<path d="M19.0871 19.8719L19.6151 17.0399H20.8391C22.4471 17.0399 23.5991 16.1279 23.5991 14.6159C23.5991 13.6799 22.9511 13.0079 21.8711 13.0079C20.6951 13.0079 19.8071 13.7519 19.4711 14.7839H16.4951C17.1431 12.0719 19.4471 10.2239 22.5911 10.2239C25.2311 10.2239 27.0071 12.0959 27.0071 14.3279C27.0071 16.4639 25.4951 17.7839 23.9351 18.4799C25.0151 19.0559 25.7831 20.1839 25.7831 21.6959C25.7831 24.7919 23.4791 27.2159 19.4711 27.2159C15.9911 27.2159 14.5271 24.9839 14.7671 22.5599H17.7191C17.6711 23.6159 18.3191 24.3839 19.8071 24.3839C21.3431 24.3839 22.4471 23.1839 22.4471 21.6959C22.4471 20.5679 21.7511 19.8719 20.3111 19.8719H19.0871Z" fill="white"/>
</g>
<defs>
<clipPath id="clip0_147_834">
<rect width="40" height="50" fill="white"/>
</clipPath>
</defs>
</svg>
