<svg width="40" height="42" viewBox="0 0 20 22" fill="none" xmlns="http://www.w3.org/2000/svg">
<path d="M17.875 5.26996C18.2187 5.46542 18.5041 5.74893 18.7018 6.09131C18.8995 6.4337 19.0025 6.82258 19 7.21796V14.502C19 15.311 18.557 16.057 17.842 16.45L11.092 20.72C10.7574 20.9037 10.3818 21 10 21C9.61824 21 9.24264 20.9037 8.908 20.72L2.158 16.45C1.80817 16.2588 1.51612 15.9771 1.31241 15.6344C1.1087 15.2917 1.0008 14.9006 1 14.502V7.21696C1 6.40796 1.443 5.66296 2.158 5.26996L8.908 1.28996C9.25254 1.09999 9.63956 1.00037 10.033 1.00037C10.4264 1.00037 10.8135 1.09999 11.158 1.28996L17.908 5.26996H17.875Z" stroke="#189193" stroke-width="2" stroke-linecap="round" stroke-linejoin="round"/>
<path d="M8 7V10C8 10.2652 8.10536 10.5196 8.29289 10.7071C8.48043 10.8946 8.73478 11 9 11H12M12 7V15" stroke="#189193" stroke-width="2" stroke-linecap="round" stroke-linejoin="round"/>
</svg>
